<svg width="120" height="106" viewBox="0 0 120 106" fill="none" xmlns="http://www.w3.org/2000/svg">
<path d="M119.02 0.400024H0.0200195V105.4H119.02V0.400024Z" fill="#2C626B"/>
<path d="M21.73 77.79L20.91 80.88C20.3092 81.1339 19.6622 81.2599 19.01 81.25C18.3261 81.2078 17.6849 80.9033 17.22 80.4C16.61 79.83 16.16 79.55 15.87 79.55C15.0673 79.7032 14.3289 80.0933 13.75 80.67L11.86 82.35C11.9965 81.4634 12.2313 80.5947 12.56 79.76C13.0515 78.8929 13.7358 78.1505 14.56 77.59C15.2559 76.91 16.1352 76.4477 17.09 76.26C17.47 76.26 17.88 76.61 18.31 77.26C18.4616 77.5514 18.6877 77.7974 18.9652 77.973C19.2427 78.1487 19.5618 78.2477 19.89 78.26C20.5346 78.2729 21.1705 78.1104 21.73 77.79V77.79ZM18.93 70.15C18.66 70.76 18.31 71.45 17.93 72.22C17.64 72.473 17.2989 72.6606 16.93 72.77C16.5854 72.9251 16.2167 73.0198 15.84 73.05C15.6911 73.0447 15.5433 73.0212 15.4 72.98C15.2565 72.9384 15.109 72.9115 14.96 72.9C14.6739 72.9371 14.4091 73.0712 14.21 73.28C14.6124 72.352 15.1083 71.4675 15.69 70.64H15.82C16.8721 70.5973 17.9157 70.4329 18.93 70.15V70.15Z" fill="white"/>
<path d="M23.91 83.26C23.7863 84.1443 23.4424 84.9833 22.91 85.7C22.1891 86.2171 21.4341 86.6848 20.65 87.1L19.23 87.88C19.414 86.9474 19.752 86.0518 20.23 85.23C20.6268 85.007 21.0377 84.81 21.46 84.64C21.82 84.5 22.6366 84.04 23.91 83.26ZM26.65 77.71L25.82 80.81C25.0526 81.4211 24.1102 81.7714 23.13 81.81C22.7168 81.8224 22.3086 81.7159 21.9541 81.5032C21.5996 81.2905 21.3136 80.9805 21.13 80.61L20.69 80.96L21.5 77.96L23.28 75.91C23.2967 76.0963 23.2967 76.2837 23.28 76.47C23.164 77.5511 22.7249 78.5722 22.02 79.4C22.3114 79.5438 22.6362 79.6059 22.96 79.58C23.6658 79.5313 24.3505 79.319 24.96 78.96C25.5812 78.6278 26.1505 78.2067 26.65 77.71V77.71Z" fill="white"/>
<path d="M27.47 84.84C27.0282 85.6169 26.5232 86.356 25.96 87.05L24.51 86.05C24.9592 85.2548 25.4499 84.4838 25.98 83.74L26.84 84.14C27.1301 84.2864 27.3548 84.5362 27.47 84.84V84.84ZM28.84 73.54C28.7198 74.4854 28.5327 75.4211 28.28 76.34C27.9212 78.1267 26.9911 79.7482 25.63 80.96L26.46 77.9C26.9737 77.475 27.3783 76.9333 27.64 76.32V76C27.7067 75.095 27.4439 74.1964 26.9 73.47C26.6145 73.7167 26.3829 74.0197 26.22 74.36H26.04V74.24C26.1674 73.492 26.3788 72.7607 26.67 72.06C26.878 71.3574 27.2926 70.7337 27.86 70.27C28.5278 71.2273 28.8713 72.3733 28.84 73.54V73.54Z" fill="white"/>
<path d="M41.85 77.72L41 80.86C39.6667 81.6466 38.7267 82.2166 38.18 82.57C37.2603 83.089 36.4678 83.8064 35.86 84.67L33.25 90.29C31.99 92.6766 30.6767 94.1 29.31 94.56C28.2032 94.9225 27.0446 95.1015 25.88 95.09C23.37 95.09 21.76 94.88 21.04 94.46V94.38L21.17 94.23C21.872 94.363 22.5855 94.4267 23.3 94.42C25.3436 94.4028 27.3277 93.7297 28.96 92.5C30.6037 91.283 31.9676 89.7282 32.96 87.94C33.04 87.8 33.55 86.78 34.51 84.88C35.0028 83.8507 35.6063 82.8783 36.31 81.98C37.1069 81.1028 38.0345 80.354 39.06 79.76C40.0547 79.1732 40.9892 78.4899 41.85 77.72V77.72Z" fill="white"/>
<path d="M49.64 77.6401L48.8 80.8C48.0101 81.357 47.0758 81.6731 46.11 81.7101C44.77 81.7101 43.83 80.7101 43.28 78.7101C42.5339 79.5467 41.7065 80.3071 40.81 80.9801L41.63 77.9801L42.17 77.4301C42.0647 77.3178 41.9377 77.228 41.7968 77.1662C41.6559 77.1043 41.5039 77.0716 41.35 77.0701C40.9969 77.0467 40.6423 77.0805 40.3 77.1701C40.3917 76.5137 40.5769 75.8739 40.85 75.2701C41.0038 74.9025 41.1808 74.5451 41.38 74.2001C41.7667 73.7801 42.8667 73.5701 44.68 73.5701C45.95 73.5701 46.58 73.9201 46.58 74.5701C46.58 75.2201 46.05 76.0901 44.97 77.2601C45.27 78.4001 45.88 78.9701 46.83 78.9701C47.8966 78.8807 48.8948 78.4083 49.64 77.6401V77.6401Z" fill="white"/>
<path d="M54.48 67.48C54.5556 70.0593 54.1626 72.631 53.32 75.07C52.3664 77.4838 50.6987 79.5491 48.54 80.99L49.35 77.99C52.12 75.78 53.5 73.55 53.5 71.32C53.3903 69.2105 52.8527 67.1453 51.92 65.25C51.72 66.31 51.41 67.9 51 70.01C50.83 70.93 50.69 71.38 50.57 71.38H50.42V71.17C50.5223 69.5053 50.7496 67.8506 51.1 66.22C51.58 63.61 51.99 62.1 52.34 61.71C53.1364 62.4166 53.6864 63.359 53.91 64.4C54.253 65.3923 54.4452 66.4306 54.48 67.48V67.48Z" fill="white"/>
<path d="M63.74 74.47C63.74 77.35 63.4067 79.4266 62.74 80.7C61.9 82.22 60.22 83.44 57.68 84.36C57.4588 84.454 57.2272 84.5212 56.99 84.56C56.9708 84.5628 56.9513 84.5616 56.9326 84.5564C56.9139 84.5513 56.8965 84.5423 56.8815 84.5301C56.8664 84.5179 56.8541 84.5027 56.8452 84.4854C56.8364 84.4682 56.8312 84.4493 56.83 84.43C57.1397 83.8333 57.5338 83.2843 58 82.8L59.41 81.32C60.233 80.4458 60.9791 79.5023 61.64 78.5C62.2861 77.4905 62.6329 76.3185 62.64 75.12C62.4904 73.6741 62.1264 72.2587 61.56 70.92C61.0662 69.4976 60.4748 68.1109 59.79 66.77C59.5837 68.0955 59.4435 69.4305 59.37 70.77C59.37 71.9 59.25 72.53 59 72.65C58.65 72.58 58.47 71.46 58.47 69.29C58.3494 66.237 58.6865 63.1832 59.47 60.23C60.7182 62.4034 61.7242 64.7072 62.47 67.1C63.2652 69.4779 63.6935 71.9631 63.74 74.47Z" fill="white"/>
<path d="M78.47 77.79L77.66 80.88C77.0557 81.1338 76.4054 81.2598 75.75 81.25C75.0667 81.2058 74.4262 80.9016 73.96 80.4C73.36 79.83 72.91 79.55 72.61 79.55C71.8105 79.7039 71.0755 80.0941 70.5 80.67L68.61 82.35C68.7418 81.4624 68.9768 80.5932 69.31 79.76C69.8015 78.8929 70.4858 78.1505 71.31 77.59C72.0013 76.9036 72.8826 76.4403 73.84 76.26C74.22 76.26 74.62 76.61 75.05 77.26C75.2024 77.5528 75.43 77.7998 75.7095 77.9755C75.9889 78.1512 76.3101 78.2494 76.64 78.26C77.2814 78.2731 77.9142 78.1105 78.47 77.79V77.79ZM75.67 70.15C75.4 70.76 75.05 71.45 74.67 72.22C74.3833 72.4777 74.0411 72.6659 73.67 72.77C73.3257 72.926 72.9569 73.0208 72.58 73.05C72.4311 73.0439 72.2834 73.0205 72.14 72.98C71.9968 72.937 71.8492 72.9102 71.7 72.9C71.4139 72.9371 71.1491 73.0712 70.95 73.28C71.3567 72.3542 71.8523 71.47 72.43 70.64H72.56C73.6122 70.598 74.6559 70.4336 75.67 70.15V70.15Z" fill="white"/>
<path d="M86.2 77.64L85.36 80.8C84.5701 81.3569 83.6358 81.673 82.67 81.71C81.33 81.71 80.39 80.71 79.84 78.71C79.0939 79.5466 78.2665 80.307 77.37 80.98L78.19 77.98L78.73 77.43C78.6247 77.3177 78.4977 77.228 78.3568 77.1661C78.2159 77.1042 78.0639 77.0716 77.91 77.07C77.5735 77.0519 77.2362 77.0857 76.91 77.17C77.0016 76.5137 77.1869 75.8738 77.46 75.27C77.6139 74.9042 77.7875 74.547 77.98 74.2C78.38 73.78 79.48 73.57 81.29 73.57C82.56 73.57 83.19 73.92 83.19 74.57C83.19 75.22 82.66 76.09 81.58 77.26C81.86 78.42 82.4633 79 83.39 79C84.4607 78.9027 85.4594 78.4193 86.2 77.64ZM82 68.22C81.5885 69.0092 81.0813 69.7448 80.49 70.41C80.15 70.21 79.67 69.88 79.03 69.41C79.14 69.19 79.63 68.41 80.52 67.12C80.9219 67.209 81.2919 67.4061 81.59 67.69C81.82 67.84 82 68 82 68.22Z" fill="white"/>
<path d="M93 77.72L92.17 80.8C91.5507 81.3135 90.7743 81.5993 89.97 81.61C88.8 81.61 88.23 80.55 88.26 78.41V76.81C87.5762 78.467 86.4566 79.908 85.02 80.98L85.83 77.98C86.6378 77.3933 87.3324 76.6648 87.88 75.83C88.2748 74.9343 88.4496 73.9571 88.39 72.98C88.39 72.43 88.39 71.61 88.31 70.52C88.23 69.43 88.23 68.6 88.23 68.05C88.2694 67.5672 88.3772 67.0925 88.55 66.64C88.6558 66.1942 88.8534 65.7753 89.13 65.41L89.27 65.48C89.38 67.36 89.43 71.13 89.43 76.81C89.43 78.1434 89.88 78.81 90.78 78.81C91.6298 78.7354 92.4213 78.3468 93 77.72V77.72Z" fill="white"/>
<path d="M97.92 67.48C97.9984 70.0587 97.6088 72.6302 96.77 75.07C95.823 77.4874 94.1584 79.5569 92 81L92.82 78C95.58 75.79 96.97 73.56 96.97 71.33C96.8602 69.2204 96.3227 67.1553 95.39 65.26C95.18 66.32 94.88 67.91 94.47 70.02C94.3 70.94 94.15 71.39 94.04 71.39H93.89V71.18C93.9871 69.5147 94.2144 67.8597 94.57 66.23C95.04 63.62 95.46 62.11 95.8 61.72C96.6048 62.4196 97.1566 63.3651 97.37 64.41C97.7053 65.4002 97.8907 66.435 97.92 67.48V67.48Z" fill="white"/>
<path d="M107.19 74.47C107.19 77.35 106.84 79.4266 106.14 80.7C105.307 82.22 103.62 83.44 101.08 84.36C100.862 84.4533 100.634 84.5204 100.4 84.56C100.3 84.56 100.25 84.56 100.24 84.43C100.552 83.8319 100.949 83.2827 101.42 82.8L102.84 81.32C103.66 80.4432 104.406 79.4999 105.07 78.5C105.712 77.4884 106.058 76.3178 106.07 75.12C105.92 73.6741 105.556 72.2587 104.99 70.92C104.488 69.5009 103.896 68.1148 103.22 66.77C103.014 68.0955 102.873 69.4305 102.8 70.77C102.8 71.9 102.68 72.53 102.43 72.65C102.08 72.58 101.9 71.46 101.9 69.29C101.78 66.237 102.117 63.1833 102.9 60.23C104.148 62.4035 105.154 64.7072 105.9 67.1C106.697 69.478 107.132 71.9625 107.19 74.47V74.47Z" fill="white"/>
<path d="M89.6 45.94C92.6648 43.01 94.5401 39.0518 94.8664 34.8243C95.1926 30.5968 93.9468 26.3977 91.3678 23.0322C88.7888 19.6667 85.0581 17.3717 80.8913 16.5873C76.7244 15.8029 72.4147 16.5843 68.7885 18.7816C65.1623 20.979 62.4748 24.4376 61.2415 28.4944C60.0082 32.5511 60.3159 36.9203 62.1055 40.7641C63.8951 44.608 67.0407 47.6559 70.9391 49.3234C74.8375 50.9909 79.2142 51.1606 83.23 49.8L92.55 52.16L89.6 45.94Z" fill="white"/>
<path d="M29.64 45.94C26.5762 43.0084 24.7026 39.0489 24.3785 34.8209C24.0544 30.5929 25.3026 26.394 27.8837 23.0297C30.4649 19.6654 34.1972 17.3724 38.3649 16.5905C42.5327 15.8087 46.8423 16.593 50.4674 18.7931C54.0924 20.9932 56.7775 24.4541 58.0078 28.5122C59.2381 32.5702 58.927 36.9395 57.1341 40.7823C55.3411 44.625 52.1926 47.6705 48.2924 49.3347C44.3922 50.9989 40.0149 51.1646 36 49.8L26.68 52.16L29.64 45.94Z" fill="white"/>
<path d="M75.46 49.6201C79.4831 45.7675 81.9424 40.5655 82.3666 35.0115C82.7907 29.4575 81.1496 23.9424 77.7582 19.5237C74.3667 15.1049 69.4635 12.0937 63.9887 11.0672C58.5139 10.0407 52.8529 11.0714 48.0911 13.9614C43.3293 16.8515 39.8019 21.3976 38.1853 26.728C36.5687 32.0585 36.9767 37.7981 39.331 42.8463C41.6852 47.8945 45.8202 51.896 50.9428 54.0835C56.0655 56.271 61.8154 56.4906 67.09 54.7001L79.34 57.8101L75.46 49.6201Z" fill="#2C626B"/>
<path d="M72.88 48.7799C76.69 45.1299 79.88 39.0999 79.88 33.4099C79.88 29.4543 78.7071 25.5875 76.5094 22.2985C74.3118 19.0095 71.1882 16.4461 67.5337 14.9323C63.8792 13.4186 59.8579 13.0225 55.9782 13.7942C52.0986 14.5659 48.5349 16.4707 45.7379 19.2678C42.9408 22.0648 41.036 25.6285 40.2643 29.5081C39.4926 33.3877 39.8887 37.4091 41.4024 41.0636C42.9162 44.7181 45.4797 47.8417 48.7686 50.0393C52.0576 52.237 55.9244 53.4099 59.88 53.4099C62.0638 53.4125 64.233 53.0544 66.3 52.3499L76.73 55.3499L72.88 48.7799Z" fill="white"/>
<path d="M70.77 22.2801C70.6868 24.9664 69.74 27.5543 68.07 29.6601C66.542 31.8774 64.4453 33.6424 62 34.7701C61.8575 35.4277 61.7772 36.0973 61.76 36.7701L61.57 36.9501L61.41 36.8L61.54 35.0201C60.538 35.3552 59.4864 35.5175 58.43 35.5001C58.028 37.8247 57.1496 40.0411 55.85 42.0101C54.19 44.5767 52.39 45.8634 50.45 45.8701C48.2967 45.8701 47.2233 44.4134 47.23 41.5001C47.2074 39.7104 47.5791 37.9378 48.3188 36.308C49.0586 34.6782 50.1481 33.2313 51.51 32.0701C53.1876 30.7556 54.9333 29.5306 56.74 28.4001C58.4487 27.4076 59.977 26.1329 61.26 24.6301L61.44 24.5301L61.5 24.7101C61.003 25.8388 60.1992 26.8055 59.18 27.5001C58.46 28.0801 57.1533 29.0067 55.26 30.2801C54.1216 30.9934 53.0416 31.7959 52.03 32.6801C49.33 35.3301 47.97 37.68 47.97 39.8C47.97 41.92 48.97 42.9401 50.85 42.9401C52.05 42.9401 53.4033 42.1834 54.91 40.6701C56.37 39.1801 57.11 37.9101 57.11 36.8501C57.122 36.2947 57.0118 35.7435 56.7872 35.2354C56.5625 34.7274 56.2289 34.2749 55.81 33.9101C55.86 33.5101 55.96 32.9101 56.12 32.2101C56.31 31.3301 56.48 30.8501 56.62 30.7701C56.9359 31.2649 57.3084 31.7214 57.73 32.1301C58.2296 32.4593 58.8228 32.6172 59.42 32.58C60.2568 32.5375 61.081 32.3585 61.86 32.05C62.1688 30.6101 62.6073 29.201 63.17 27.8401C63.8 26.5069 64.6948 25.3161 65.8 24.3401C66.5198 23.7478 67.3172 23.2566 68.17 22.8801C68.8972 22.4782 69.6951 22.2201 70.52 22.1201C70.68 22.0701 70.77 22.1401 70.77 22.2801ZM62.89 19.9401C62.5339 20.7476 62.0284 21.4804 61.4 22.1001L59.94 21.1001C60.3874 20.3134 60.8782 19.5523 61.41 18.8201C61.71 18.946 62.0008 19.093 62.28 19.2601C62.69 19.5201 62.89 19.7401 62.89 19.9401ZM69.04 25.4801L68.96 25.3C67.354 25.6387 65.8768 26.4258 64.7 27.5701C63.4374 28.6211 62.628 30.118 62.44 31.7501C63.8344 31.0449 65.1153 30.1348 66.24 29.05C67.9 27.5634 68.82 26.3734 69 25.4801H69.04Z" fill="#FFB815"/>
</svg>
