<svg width="371" height="260" viewBox="0 0 371 260" fill="none" xmlns="http://www.w3.org/2000/svg">
<path d="M370.82 0.349976H0.589966V259.35H370.82V0.349976Z" fill="#2C626B"/>
<path d="M185.67 213.7C231.979 213.7 269.52 176.159 269.52 129.85C269.52 83.5409 231.979 46 185.67 46C139.361 46 101.82 83.5409 101.82 129.85C101.82 176.159 139.361 213.7 185.67 213.7Z" fill="#1E4F54"/>
<path d="M119.22 166.64L117.79 172.07C116.731 172.519 115.59 172.744 114.44 172.73C113.236 172.653 112.109 172.116 111.29 171.23C110.22 170.23 109.43 169.73 108.91 169.73C108.07 169.73 106.83 170.38 105.19 171.73C104.077 172.73 102.97 173.713 101.87 174.68C102.102 173.121 102.515 171.594 103.1 170.13C103.5 169.13 104.68 167.857 106.64 166.31C108.59 164.76 110.08 163.98 111.09 163.98C111.76 163.98 112.47 164.59 113.22 165.8C113.484 166.323 113.883 166.766 114.375 167.085C114.867 167.403 115.435 167.584 116.02 167.61C117.154 167.578 118.259 167.243 119.22 166.64ZM114.3 153.2C113.82 154.27 113.21 155.48 112.46 156.83C111.976 157.282 111.399 157.623 110.77 157.83C110.164 158.096 109.519 158.262 108.86 158.32C108.596 158.308 108.334 158.264 108.08 158.19C107.829 158.116 107.571 158.072 107.31 158.06C106.808 158.125 106.343 158.358 105.99 158.72C106.708 157.093 107.582 155.539 108.6 154.08H108.83C110.681 153.996 112.516 153.701 114.3 153.2V153.2Z" fill="white"/>
<path d="M123.06 176.26C122.837 177.82 122.217 179.297 121.26 180.55C119.992 181.475 118.655 182.3 117.26 183.02C116.7 183.34 115.87 183.8 114.74 184.39C114.74 183.8 115.34 182.24 116.58 179.72C117.281 179.347 118.002 179.013 118.74 178.72C120.221 177.974 121.663 177.153 123.06 176.26ZM127.88 166.49L126.42 172C125.077 173.08 123.422 173.697 121.7 173.76C120.96 173.798 120.224 173.618 119.584 173.243C118.945 172.868 118.429 172.315 118.1 171.65L117.33 172.26L118.75 166.94C119.75 165.76 120.82 164.55 121.89 163.33C121.946 163.66 121.973 163.995 121.97 164.33C121.97 165.717 121.23 167.433 119.75 169.48C120.265 169.733 120.838 169.843 121.41 169.8C122.635 169.705 123.821 169.333 124.88 168.71C125.982 168.12 126.993 167.372 127.88 166.49V166.49Z" fill="white"/>
<path d="M129.33 179C128.559 180.375 127.669 181.68 126.67 182.9L124.12 181.15C124.91 179.753 125.771 178.398 126.7 177.09L128.22 177.8C128.722 178.054 129.116 178.48 129.33 179V179ZM131.74 159.13C131.527 160.792 131.193 162.437 130.74 164.05C130.108 167.194 128.477 170.049 126.09 172.19L127.55 166.8C128.44 166.047 129.145 165.099 129.61 164.03V163.39C129.73 161.797 129.272 160.213 128.32 158.93C127.82 159.368 127.412 159.902 127.12 160.5H126.8L126.75 160.3C126.97 158.981 127.342 157.693 127.86 156.46C128.527 154.76 129.227 153.71 129.96 153.31C131.166 155.018 131.79 157.07 131.74 159.16V159.13Z" fill="white"/>
<path d="M154.62 166.52L153.13 172.05C150.77 173.423 149.12 174.423 148.18 175.05C145.947 176.543 144.58 177.777 144.08 178.75C142.56 182.083 141.033 185.377 139.5 188.63C137.293 192.83 134.983 195.333 132.57 196.14C130.636 196.782 128.608 197.1 126.57 197.08C122.163 197.08 119.327 196.707 118.06 195.96L117.98 195.82L118.2 195.56C119.439 195.797 120.698 195.911 121.96 195.9C125.571 195.883 129.079 194.698 131.96 192.52C134.833 190.378 137.218 187.652 138.96 184.52C139.09 184.28 139.96 182.52 141.68 179.14C142.54 177.322 143.603 175.608 144.85 174.03C146.254 172.483 147.89 171.163 149.7 170.12C151.456 169.088 153.105 167.882 154.62 166.52V166.52Z" fill="white"/>
<path d="M168.34 166.37L166.85 171.93C165.465 172.909 163.825 173.464 162.13 173.53C159.77 173.53 158.103 171.767 157.13 168.24C155.819 169.713 154.365 171.053 152.79 172.24L154.23 166.92L155.18 165.92C154.995 165.723 154.772 165.566 154.524 165.458C154.277 165.349 154.01 165.292 153.74 165.29C153.118 165.25 152.494 165.308 151.89 165.46C152.066 164.305 152.402 163.181 152.89 162.12C153.152 161.474 153.456 160.846 153.8 160.24C154.467 159.5 156.407 159.13 159.62 159.13C161.85 159.13 162.97 159.74 162.97 160.96C162.97 162.18 162.02 163.64 160.13 165.7C160.65 167.7 161.74 168.7 163.4 168.7C164.927 168.713 166.573 167.937 168.34 166.37Z" fill="white"/>
<path d="M176.85 148.5C176.995 153.034 176.317 157.557 174.85 161.85C173.165 166.1 170.229 169.737 166.43 172.28L167.86 166.92C172.733 163.02 175.167 159.107 175.16 155.18C175.16 152.24 174.233 148.677 172.38 144.49C172.02 146.36 171.49 149.16 170.77 152.89C170.47 154.49 170.21 155.29 170 155.29L169.75 155.2L169.69 154.83C169.868 151.904 170.269 148.995 170.89 146.13C171.73 141.52 172.45 138.88 173.06 138.19C174.06 138.84 175.06 140.42 175.82 142.92C176.451 144.715 176.799 146.598 176.85 148.5V148.5Z" fill="white"/>
<path d="M193.15 160.79C193.15 165.87 192.537 169.537 191.31 171.79C189.837 174.457 186.87 176.603 182.41 178.23C182.023 178.397 181.616 178.514 181.2 178.58C181.166 178.584 181.132 178.581 181.1 178.572C181.067 178.563 181.037 178.547 181.011 178.525C180.984 178.504 180.963 178.477 180.947 178.447C180.932 178.417 180.922 178.384 180.92 178.35C181.474 177.297 182.178 176.33 183.01 175.48L185.5 172.88C186.947 171.328 188.259 169.656 189.42 167.88C190.571 166.107 191.199 164.044 191.23 161.93C191.23 160.49 190.59 158.03 189.33 154.54C188.452 152.039 187.413 149.597 186.22 147.23C185.727 150.897 185.48 153.267 185.48 154.34C185.48 156.34 185.26 157.42 184.83 157.63C184.21 157.517 183.9 155.55 183.9 151.73C183.9 144.65 184.49 139.333 185.67 135.78C187.846 139.608 189.606 143.657 190.92 147.86C192.305 152.034 193.057 156.393 193.15 160.79V160.79Z" fill="white"/>
<path d="M219.07 166.64L217.64 172.07C216.578 172.519 215.434 172.744 214.28 172.73C213.076 172.653 211.949 172.116 211.13 171.23C210.057 170.23 209.267 169.73 208.76 169.73C207.92 169.73 206.68 170.38 205.03 171.73C203.93 172.73 202.823 173.713 201.71 174.68C201.952 173.123 202.364 171.597 202.94 170.13C203.34 169.13 204.52 167.857 206.48 166.31C208.44 164.763 209.923 163.987 210.93 163.98C211.6 163.98 212.31 164.59 213.07 165.8C213.331 166.324 213.727 166.768 214.218 167.086C214.708 167.404 215.276 167.585 215.86 167.61C216.997 167.579 218.106 167.244 219.07 166.64V166.64ZM214.14 153.2C213.66 154.267 213.05 155.477 212.31 156.83C211.824 157.28 211.248 157.621 210.62 157.83C210.012 158.099 209.363 158.264 208.7 158.32C208.439 158.308 208.181 158.264 207.93 158.19C207.676 158.117 207.414 158.073 207.15 158.06C206.648 158.125 206.183 158.358 205.83 158.72C206.548 157.093 207.422 155.539 208.44 154.08H208.67C210.521 153.997 212.356 153.702 214.14 153.2V153.2Z" fill="white"/>
<path d="M232.67 166.37L231.18 171.93C229.794 172.909 228.155 173.464 226.46 173.53C224.1 173.53 222.433 171.767 221.46 168.24C220.148 169.717 218.691 171.057 217.11 172.24L218.55 166.92L219.5 165.92C219.315 165.723 219.092 165.566 218.844 165.458C218.597 165.349 218.33 165.292 218.06 165.29C217.442 165.251 216.821 165.309 216.22 165.46C216.399 164.306 216.735 163.182 217.22 162.12C217.49 161.476 217.798 160.849 218.14 160.24C218.807 159.5 220.747 159.13 223.96 159.13C226.19 159.13 227.31 159.74 227.31 160.96C227.31 162.18 226.31 163.64 224.47 165.7C224.99 167.7 226.08 168.7 227.74 168.7C229.611 168.544 231.362 167.717 232.67 166.37ZM225.2 149.79C224.478 151.186 223.585 152.486 222.54 153.66C221.95 153.3 221.1 152.66 219.98 151.91C220.16 151.53 221.04 150.18 222.6 147.91C223.305 148.067 223.955 148.413 224.48 148.91C225 149.12 225.2 149.43 225.2 149.79V149.79Z" fill="white"/>
<path d="M244.7 166.52L243.24 171.94C242.15 172.842 240.784 173.343 239.37 173.36C237.31 173.36 236.31 171.49 236.37 167.73V164.92C235.157 167.828 233.189 170.358 230.67 172.25L232.1 166.92C233.512 165.88 234.73 164.601 235.7 163.14C236.386 161.567 236.691 159.854 236.59 158.14C236.59 157.14 236.59 155.72 236.45 153.8C236.31 151.88 236.31 150.43 236.31 149.46C236.386 148.612 236.574 147.778 236.87 146.98C237.056 146.201 237.396 145.466 237.87 144.82L238.12 144.93C238.313 148.263 238.41 154.91 238.41 164.87C238.41 167.16 239.2 168.3 240.78 168.3C242.259 168.201 243.652 167.569 244.7 166.52Z" fill="white"/>
<path d="M253.29 148.5C253.44 153.034 252.762 157.558 251.29 161.85C249.609 166.102 246.672 169.74 242.87 172.28L244.3 166.92C249.173 163.02 251.61 159.107 251.61 155.18C251.61 152.24 250.683 148.677 248.83 144.49L247.21 152.89C246.91 154.49 246.65 155.29 246.45 155.29L246.19 155.2L246.13 154.83C246.308 151.904 246.709 148.995 247.33 146.13C248.17 141.52 248.89 138.88 249.5 138.19C250.547 138.857 251.47 140.433 252.27 142.92C252.894 144.717 253.238 146.599 253.29 148.5Z" fill="white"/>
<path d="M269.59 160.79C269.59 165.87 268.98 169.537 267.76 171.79C266.287 174.457 263.317 176.603 258.85 178.23C258.466 178.395 258.063 178.512 257.65 178.58C257.616 178.584 257.581 178.582 257.548 178.572C257.515 178.563 257.484 178.547 257.457 178.526C257.43 178.504 257.408 178.478 257.391 178.448C257.374 178.417 257.364 178.384 257.36 178.35C257.917 177.299 258.621 176.333 259.45 175.48L261.94 172.88C263.386 171.325 264.701 169.653 265.87 167.88C267.014 166.104 267.638 164.043 267.67 161.93C267.67 160.49 267.037 158.027 265.77 154.54C264.896 152.037 263.857 149.595 262.66 147.23C262.167 150.897 261.92 153.267 261.92 154.34C261.92 156.34 261.71 157.42 261.27 157.63C260.65 157.517 260.34 155.55 260.34 151.73C260.34 144.65 260.93 139.333 262.11 135.78C264.286 139.608 266.046 143.657 267.36 147.86C268.751 152.033 269.503 156.392 269.59 160.79V160.79Z" fill="white"/>
<path d="M238.64 110.59C244.01 105.442 247.291 98.493 247.853 91.0753C248.416 83.6577 246.222 76.2933 241.69 70.3938C237.159 64.4943 230.609 60.4748 223.297 59.1059C215.986 57.737 208.426 59.1149 202.067 62.9756C195.708 66.8362 190.998 72.908 188.839 80.0268C186.681 87.1457 187.226 94.8109 190.369 101.553C193.513 108.295 199.035 113.639 205.876 116.562C212.716 119.484 220.395 119.779 227.44 117.39L243.84 121.54L238.64 110.59Z" fill="white"/>
<path d="M133.15 110.59C127.78 105.442 124.499 98.493 123.936 91.0753C123.374 83.6577 125.568 76.2933 130.1 70.3938C134.631 64.4943 141.181 60.4748 148.492 59.1059C155.804 57.737 163.364 59.1149 169.723 62.9756C176.082 66.8362 180.792 72.908 182.95 80.0268C185.109 87.1457 184.564 94.8109 181.421 101.553C178.277 108.295 172.755 113.639 165.914 116.562C159.074 119.484 151.395 119.779 144.35 117.39L128 121.54L133.15 110.59Z" fill="white"/>
<path d="M213.77 117.07C220.835 110.315 225.159 101.19 225.913 91.4444C226.667 81.6987 223.798 72.0175 217.856 64.2561C211.914 56.4946 203.317 51.1987 193.712 49.3834C184.108 47.568 174.171 49.3608 165.806 54.4181C157.441 59.4755 151.237 67.4418 148.382 76.7904C145.527 86.139 146.222 96.2123 150.334 105.08C154.446 113.948 161.686 120.986 170.667 124.847C179.647 128.707 189.736 129.118 199 126L220.57 131.45L213.77 117.07Z" fill="#1E4F54"/>
<path d="M209.23 115.59C215.93 109.17 221.55 98.5899 221.55 88.5899C221.555 81.1263 219.192 73.8537 214.8 67.8189C210.408 61.7841 204.215 57.2985 197.112 55.0079C190.008 52.7172 182.361 52.7397 175.272 55.072C168.182 57.4043 162.015 61.9262 157.659 67.9866C153.303 74.0471 150.982 81.3335 151.031 88.7969C151.08 96.2603 153.495 103.516 157.931 109.519C162.366 115.522 168.591 119.962 175.711 122.202C182.831 124.441 190.477 124.363 197.55 121.98L216 127.3L209.23 115.59Z" fill="white"/>
<path d="M205.51 68.9999C205.51 73.2999 203.927 77.6333 200.76 81.9999C198.076 85.9036 194.39 89.0124 190.09 90.9999C189.841 92.1306 189.7 93.2825 189.67 94.4399L189.32 94.7499L189.04 94.4899L189.27 91.3599C187.511 91.9487 185.665 92.2361 183.81 92.2099C183.094 96.2981 181.545 100.195 179.26 103.66C176.34 108.18 173.173 110.44 169.76 110.44C165.98 110.44 164.093 107.877 164.1 102.75C164.058 99.6012 164.712 96.4819 166.013 93.6144C167.315 90.7469 169.233 88.2017 171.63 86.1599C174.576 83.8481 177.644 81.695 180.82 79.7099C184.993 76.9499 187.66 74.7366 188.82 73.0699L189.14 72.8999L189.25 73.2199C188.85 74.5799 187.49 76.2199 185.16 78.1199C183.89 79.1199 181.59 80.7799 178.26 83.0199C176.263 84.2773 174.364 85.6847 172.58 87.2299C167.82 91.8966 165.443 96.0733 165.45 99.7599C165.45 103.45 167.13 105.29 170.51 105.29C172.61 105.29 174.99 103.957 177.65 101.29C180.31 98.6233 181.6 96.3833 181.52 94.5699C181.539 93.5913 181.345 92.6202 180.951 91.724C180.558 90.8278 179.974 90.028 179.24 89.3799C179.368 88.3713 179.549 87.37 179.78 86.3799C180.12 84.8399 180.41 83.9999 180.66 83.8499C181.223 84.7279 181.895 85.531 182.66 86.2399C183.544 86.8302 184.599 87.1115 185.66 87.0399C187.132 86.9684 188.583 86.6506 189.95 86.0999C190.491 83.5721 191.261 81.0986 192.25 78.7099C193.358 76.3574 194.937 74.2574 196.89 72.5399C198.153 71.5008 199.553 70.6395 201.05 69.9799C202.327 69.2621 203.735 68.8065 205.19 68.64C205.37 68.6 205.51 68.7199 205.51 68.9999ZM191.66 64.8699C191.026 66.2942 190.134 67.5893 189.03 68.6899L186.45 66.95C187.246 65.5721 188.114 64.2369 189.05 62.95C189.574 63.1712 190.082 63.4284 190.57 63.7199C191.29 64.1099 191.66 64.4999 191.66 64.8399V64.8699ZM202.46 74.6299L202.32 74.3199C199.496 74.9128 196.901 76.3007 194.84 78.3199C192.38 80.6199 191.047 83.07 190.84 85.67C193.29 84.4222 195.541 82.8181 197.52 80.9099C200.453 78.2633 202.1 76.1599 202.46 74.5999V74.6299Z" fill="#FFB815"/>
</svg>
