<svg width="120" height="106" viewBox="0 0 120 106" fill="none" xmlns="http://www.w3.org/2000/svg">
<path d="M119.02 0.399994H0.0200195V105.4H119.02V0.399994Z" fill="#B51C1C"/>
<path d="M72.78 48.51C73.03 49.31 73.78 49.98 74.34 49.88C74.9 49.78 75.34 48.94 75.34 48.33C75.44 47.33 74.73 46.05 73.96 46.07C73.4 46.07 72.87 46.76 72.72 47.48L71.5 47.72C71.6605 47.0929 71.5895 46.429 71.3 45.85C70.9903 45.2657 70.4784 44.8142 69.86 44.58L71.13 43.83C71.2954 44.0637 71.5255 44.2441 71.7919 44.3489C72.0584 44.4537 72.3497 44.4784 72.63 44.42C73.2 44.17 73.34 43.19 73.15 42.51C72.9 41.63 71.96 40.81 71.3 41.04C70.64 41.27 70.53 42.04 70.62 42.73L68.49 43.82L68.21 43.58C67.54 43.07 66.94 42.63 66.38 42.24L67.43 40.55C67.5477 40.6819 67.6912 40.7883 67.8517 40.8624C68.0122 40.9366 68.1862 40.9769 68.363 40.981C68.5397 40.9851 68.7155 40.9528 68.8792 40.8861C69.043 40.8194 69.1912 40.7198 69.3149 40.5934C69.4385 40.4671 69.5348 40.3166 69.5979 40.1514C69.661 39.9863 69.6894 39.8099 69.6814 39.6333C69.6734 39.4567 69.6293 39.2836 69.5516 39.1247C69.474 38.9659 69.3645 38.8247 69.23 38.71C68.63 37.85 67.23 37.5 66.68 38.06C66.5085 38.3385 66.4254 38.6623 66.4415 38.9889C66.4575 39.3156 66.5721 39.6297 66.77 39.89L65.35 41.29C65.2538 40.9927 65.0997 40.7175 64.8964 40.4803C64.693 40.2431 64.4446 40.0486 64.1655 39.9081C63.8864 39.7676 63.5823 39.684 63.2706 39.662C62.959 39.64 62.646 39.6801 62.35 39.78L62.65 38.71C63.36 38.71 64.1 38.33 64.21 37.77C64.32 37.21 63.6 36.53 63.08 36.28C62.3 35.91 61.08 35.94 60.81 36.53C60.54 37.12 60.95 37.96 61.66 38.42L61.1 40.13C60.1901 40.1237 59.2821 40.2109 58.39 40.39L57.52 38.02C58.24 37.68 58.75 36.85 58.52 36.32C58.29 35.79 57.1 35.6 56.4 35.72C56.29 35.72 55.1 35.96 54.98 36.59C54.86 37.22 55.64 38.01 56.54 38.16L56.85 39.86C56.375 39.6508 55.8525 39.5729 55.3372 39.6344C54.8218 39.696 54.3323 39.8948 53.92 40.21C53.7643 40.4405 53.624 40.681 53.5 40.93L52.77 40.12C52.96 39.8702 53.0718 39.5698 53.0914 39.2566C53.1109 38.9434 53.0374 38.6314 52.88 38.36C52.44 37.84 51.43 38.03 50.88 38.29C50.33 38.55 49.42 39.4 49.6 40.07C49.8219 40.4613 50.1795 40.7577 50.6051 40.9033C51.0307 41.0488 51.4949 41.0334 51.91 40.86L53.13 42.59C53.13 42.59 53.13 42.66 53.13 42.69C52.4989 43.0798 51.9734 43.619 51.6 44.26L49.37 43C49.4661 42.7358 49.4872 42.4501 49.4307 42.1747C49.3742 41.8993 49.2424 41.645 49.05 41.44C48.8314 41.3173 48.5866 41.2487 48.3361 41.24C48.0855 41.2313 47.8366 41.2828 47.61 41.39C46.61 41.79 45.86 43.13 46.3 43.83C46.6005 44.1348 46.9988 44.3239 47.4249 44.3642C47.8511 44.4044 48.2778 44.2931 48.63 44.05L49.71 44.96C49.553 45.0482 49.4154 45.1672 49.3055 45.3098C49.1955 45.4524 49.1154 45.6157 49.07 45.79C48.8909 46.3389 48.8598 46.9253 48.98 47.49H46.49C46.4654 47.2195 46.3638 46.9618 46.1972 46.7473C46.0306 46.5329 45.806 46.3707 45.55 46.28C44.84 46.16 44.15 47.03 43.96 47.79C43.77 48.55 44.11 49.79 44.77 49.98C45.43 50.17 46.17 49.42 46.44 48.57L49.08 49.57C49.0827 49.787 49.1164 50.0025 49.18 50.21C49.18 50.21 47.57 49.08 47.67 51.56C47.73 52.95 48.28 53.06 48.74 52.89L46.67 54.03C46.548 53.8521 46.3835 53.7077 46.1913 53.6099C45.9992 53.5121 45.7855 53.464 45.57 53.47C44.86 53.58 44.42 54.61 44.52 55.41C44.65 56.41 45.67 57.35 46.35 57.16C47.03 56.97 47.35 55.92 47.15 54.99L49.71 54.19C50.0184 54.8451 50.4902 55.4099 51.08 55.83V56L48.08 59.05C47.914 58.8981 47.7131 58.7894 47.4951 58.7336C47.277 58.6778 47.0486 58.6766 46.83 58.73C46.4669 58.8731 46.1667 59.141 45.9834 59.4856C45.8001 59.8302 45.7457 60.2289 45.83 60.61C46.06 61.73 47.56 62.47 48.31 62.01C48.5885 61.7482 48.7764 61.4045 48.8466 61.0287C48.9167 60.6529 48.8653 60.2646 48.7 59.92L51.35 57.85C51.5101 58.0516 51.6875 58.239 51.88 58.41L51.66 58.65C51.479 58.6012 51.2893 58.5948 51.1055 58.6312C50.9216 58.6676 50.7487 58.7459 50.6 58.86C50.3677 58.9911 50.1752 59.1825 50.0428 59.4141C49.9104 59.6456 49.8429 59.9086 49.8477 60.1753C49.8525 60.442 49.9293 60.7024 50.0699 60.9291C50.2105 61.1557 50.4098 61.3402 50.6466 61.4629C50.8834 61.5856 51.149 61.6421 51.4152 61.6262C51.6815 61.6104 51.9385 61.5229 52.1592 61.3731C52.3798 61.2232 52.5558 61.0165 52.6686 60.7748C52.7814 60.5331 52.8268 60.2654 52.8 60V60L52.97 59.57C53.13 59.74 53.32 59.92 53.55 60.12L52.83 62.27C52.4592 62.2484 52.092 62.3535 51.7886 62.5679C51.4852 62.7822 51.2635 63.0932 51.16 63.45C51.16 64.36 53.33 65.4 53.96 64.85C54.1556 64.5382 54.2492 64.1732 54.2277 63.8058C54.2061 63.4384 54.0707 63.0868 53.84 62.8L54.84 61.08C55.2676 61.3424 55.7157 61.5698 56.18 61.76L55.99 62.37C55.7948 62.3553 55.5992 62.3929 55.4234 62.4791C55.2476 62.5652 55.098 62.6967 54.99 62.86C54.76 63.38 55.31 64.22 56.04 64.4C56.77 64.58 57.6 64.12 57.66 63.56C57.649 63.3689 57.5866 63.1843 57.4792 63.0258C57.3718 62.8674 57.2235 62.7409 57.05 62.66V62.09C57.4729 62.2259 57.9038 62.3362 58.34 62.42V64.26C57.51 64.41 56.74 65.07 56.8 65.64C56.86 66.21 58.05 66.85 59.01 66.64C59.59 66.51 60.37 66.04 60.35 65.4C60.35 64.92 59.86 64.54 59.35 64.4L59.69 62.64C60.1862 62.6705 60.6838 62.6705 61.18 62.64V62.75C60.48 62.92 59.88 63.52 59.96 64.08C60.04 64.64 60.7 64.95 61.18 65.08C62 65.22 63.05 64.75 63.12 64.08C63.12 63.56 62.63 63.01 61.99 62.82V62.64C62.5995 62.5727 63.1998 62.4386 63.78 62.24L64.78 63.83C64.25 64.14 63.84 64.71 63.99 65.19C64.14 65.67 64.99 66 65.59 65.89C66.43 65.75 67.19 64.89 66.99 64.26C66.8551 64.0233 66.6528 63.8321 66.4087 63.711C66.1647 63.5899 65.8901 63.5443 65.62 63.58L65.02 61.7C65.4405 61.4864 65.8449 61.2424 66.23 60.97L67.38 62.16C67.2701 62.2813 67.1917 62.4277 67.1516 62.5863C67.1115 62.745 67.111 62.9111 67.15 63.07C67.2751 63.3185 67.4852 63.5137 67.7422 63.6202C67.9992 63.7267 68.2859 63.7372 68.55 63.65C68.7312 63.5871 68.8976 63.4877 69.0389 63.3579C69.1801 63.228 69.2932 63.0705 69.371 62.8952C69.4489 62.7198 69.4898 62.5304 69.4913 62.3385C69.4929 62.1467 69.455 61.9566 69.38 61.78C69.2211 61.6441 69.028 61.5545 68.8217 61.521C68.6153 61.4875 68.4037 61.5113 68.21 61.59L67.06 60.32C67.4 60.02 67.71 59.71 68.06 59.4L70.06 60.94C69.8756 61.1901 69.7712 61.4902 69.7605 61.8007C69.7498 62.1113 69.8333 62.4178 70 62.68C70.46 63.12 71.48 62.86 72.06 62.34C72.82 61.67 73.06 60.34 72.55 59.88C72.04 59.42 71.21 59.77 70.62 60.25L68.73 58.58C68.99 58.25 69.23 57.92 69.44 57.58L70.44 57.85C70.3792 58.0972 70.4149 58.3582 70.54 58.58C70.6641 58.7854 70.8549 58.9421 71.0805 59.024C71.3061 59.1059 71.553 59.108 71.78 59.03C71.9463 58.9163 72.0871 58.7692 72.1934 58.5981C72.2997 58.427 72.3692 58.2356 72.3974 58.0361C72.4256 57.8367 72.4119 57.6335 72.3573 57.4396C72.3027 57.2457 72.2082 57.0654 72.08 56.91C71.8811 56.8255 71.6619 56.8003 71.449 56.8376C71.236 56.8748 71.0384 56.9729 70.88 57.12L69.88 56.84C70.1934 56.3247 70.4675 55.7865 70.7 55.23C70.7 55.23 70.7 55.01 70.81 54.63L72.37 55.19C72.2169 55.4902 72.1588 55.8299 72.2035 56.164C72.2481 56.498 72.3934 56.8105 72.62 57.06C72.8636 57.2365 73.1539 57.3373 73.4545 57.3497C73.7551 57.3622 74.0526 57.2858 74.31 57.13C75.31 56.48 75.31 54.43 74.54 53.98C74.04 53.7 73.2 54.06 72.73 54.6L70.93 53.6C70.93 53.46 70.93 53.3 70.93 53.14C71.2345 53.1327 71.5334 53.0559 71.8038 52.9155C72.0741 52.7752 72.3088 52.5749 72.49 52.33C73.14 51.41 72.78 49.88 72.06 49.65C71.8566 49.6226 71.6497 49.6427 71.4554 49.7086C71.2611 49.7746 71.0847 49.8845 70.94 50.03C70.94 49.76 70.94 49.49 70.86 49.22L72.78 48.51ZM49.41 52.6L49.18 52.73C49.2645 52.6689 49.3447 52.6021 49.42 52.53C49.4186 52.5536 49.4153 52.577 49.41 52.6V52.6Z" fill="white"/>
<path d="M58.64 49.58C59.3856 49.58 59.99 48.9756 59.99 48.23C59.99 47.4844 59.3856 46.88 58.64 46.88C57.8944 46.88 57.29 47.4844 57.29 48.23C57.29 48.9756 57.8944 49.58 58.64 49.58Z" fill="#B51C1C"/>
<path d="M57.18 56.83C57.9863 56.83 58.64 56.1763 58.64 55.37C58.64 54.5637 57.9863 53.91 57.18 53.91C56.3737 53.91 55.72 54.5637 55.72 55.37C55.72 56.1763 56.3737 56.83 57.18 56.83Z" fill="#B51C1C"/>
<path d="M55.12 47.82C55.8656 47.82 56.47 47.2156 56.47 46.47C56.47 45.7244 55.8656 45.12 55.12 45.12C54.3744 45.12 53.77 45.7244 53.77 46.47C53.77 47.2156 54.3744 47.82 55.12 47.82Z" fill="#B51C1C"/>
<path d="M52.71 56.08C53.3562 56.08 53.88 55.5562 53.88 54.91C53.88 54.2638 53.3562 53.74 52.71 53.74C52.0638 53.74 51.54 54.2638 51.54 54.91C51.54 55.5562 52.0638 56.08 52.71 56.08Z" fill="#B51C1C"/>
<path d="M55.72 52.69C56.217 52.69 56.62 52.2871 56.62 51.79C56.62 51.293 56.217 50.89 55.72 50.89C55.2229 50.89 54.82 51.293 54.82 51.79C54.82 52.2871 55.2229 52.69 55.72 52.69Z" fill="#B51C1C"/>
<path d="M52.05 51.2C52.4145 51.2 52.71 50.9045 52.71 50.54C52.71 50.1755 52.4145 49.88 52.05 49.88C51.6855 49.88 51.39 50.1755 51.39 50.54C51.39 50.9045 51.6855 51.2 52.05 51.2Z" fill="#B51C1C"/>
<path d="M56.38 43.93C56.7445 43.93 57.04 43.6345 57.04 43.27C57.04 42.9055 56.7445 42.61 56.38 42.61C56.0155 42.61 55.72 42.9055 55.72 43.27C55.72 43.6345 56.0155 43.93 56.38 43.93Z" fill="#B51C1C"/>
<path d="M59.68 52.67C60.166 52.67 60.56 52.276 60.56 51.79C60.56 51.304 60.166 50.91 59.68 50.91C59.194 50.91 58.8 51.304 58.8 51.79C58.8 52.276 59.194 52.67 59.68 52.67Z" fill="#B51C1C"/>
<path d="M54.84 58.86C55.326 58.86 55.72 58.466 55.72 57.98C55.72 57.494 55.326 57.1 54.84 57.1C54.354 57.1 53.96 57.494 53.96 57.98C53.96 58.466 54.354 58.86 54.84 58.86Z" fill="#B51C1C"/>
<path d="M67.68 49.11C68.166 49.11 68.56 48.716 68.56 48.23C68.56 47.744 68.166 47.35 67.68 47.35C67.194 47.35 66.8 47.744 66.8 48.23C66.8 48.716 67.194 49.11 67.68 49.11Z" fill="#B51C1C"/>
<path d="M68.56 52.67C69.046 52.67 69.44 52.276 69.44 51.79C69.44 51.304 69.046 50.91 68.56 50.91C68.074 50.91 67.68 51.304 67.68 51.79C67.68 52.276 68.074 52.67 68.56 52.67Z" fill="#B51C1C"/>
<path d="M66.75 57.98C67.236 57.98 67.63 57.586 67.63 57.1C67.63 56.614 67.236 56.22 66.75 56.22C66.264 56.22 65.87 56.614 65.87 57.1C65.87 57.586 66.264 57.98 66.75 57.98Z" fill="#B51C1C"/>
<path d="M58.43 60.76C58.916 60.76 59.31 60.366 59.31 59.88C59.31 59.394 58.916 59 58.43 59C57.944 59 57.55 59.394 57.55 59.88C57.55 60.366 57.944 60.76 58.43 60.76Z" fill="#B51C1C"/>
<path d="M62.45 59.41C63.2398 59.41 63.88 58.7698 63.88 57.98C63.88 57.1902 63.2398 56.55 62.45 56.55C61.6602 56.55 61.02 57.1902 61.02 57.98C61.02 58.7698 61.6602 59.41 62.45 59.41Z" fill="#B51C1C"/>
<path d="M65.31 54.65C66.0998 54.65 66.74 54.0098 66.74 53.22C66.74 52.4302 66.0998 51.79 65.31 51.79C64.5202 51.79 63.88 52.4302 63.88 53.22C63.88 54.0098 64.5202 54.65 65.31 54.65Z" fill="#B51C1C"/>
<path d="M62.93 50.02C63.4547 50.02 63.88 49.5947 63.88 49.07C63.88 48.5453 63.4547 48.12 62.93 48.12C62.4053 48.12 61.98 48.5453 61.98 49.07C61.98 49.5947 62.4053 50.02 62.93 50.02Z" fill="#B51C1C"/>
<path d="M65.87 45.17C66.2179 45.17 66.5 44.8879 66.5 44.54C66.5 44.1921 66.2179 43.91 65.87 43.91C65.5221 43.91 65.24 44.1921 65.24 44.54C65.24 44.8879 65.5221 45.17 65.87 45.17Z" fill="#B51C1C"/>
<path d="M59.31 44.24C59.5033 44.24 59.66 44.0833 59.66 43.89C59.66 43.6967 59.5033 43.54 59.31 43.54C59.1167 43.54 58.96 43.6967 58.96 43.89C58.96 44.0833 59.1167 44.24 59.31 44.24Z" fill="#B51C1C"/>
<path d="M62.85 46.46C63.3802 46.46 63.81 46.0302 63.81 45.5C63.81 44.9698 63.3802 44.54 62.85 44.54C62.3198 44.54 61.89 44.9698 61.89 45.5C61.89 46.0302 62.3198 46.46 62.85 46.46Z" fill="#B51C1C"/>
<path d="M34.32 44.31C34.3725 44.2959 34.4175 44.2619 34.4454 44.2153C34.4734 44.1686 34.4822 44.113 34.47 44.06C34.463 44.0329 34.4508 44.0075 34.4338 43.9852C34.4169 43.963 34.3957 43.9443 34.3715 43.9303C34.3473 43.9164 34.3206 43.9074 34.2929 43.9039C34.2651 43.9004 34.237 43.9025 34.21 43.91C33.38 44.13 32.34 42.72 31.88 41.91C32.1238 41.7414 32.3173 41.5098 32.44 41.24C33.13 41.12 34.5 41.03 34.87 41.69C34.8831 41.7143 34.9009 41.7358 34.9224 41.7532C34.9438 41.7706 34.9684 41.7836 34.9949 41.7915C35.0213 41.7994 35.0491 41.802 35.0766 41.7992C35.1041 41.7964 35.1307 41.7881 35.155 41.775C35.1793 41.7619 35.2008 41.7441 35.2182 41.7227C35.2356 41.7012 35.2486 41.6766 35.2565 41.6501C35.2644 41.6237 35.267 41.5959 35.2642 41.5684C35.2613 41.5409 35.2531 41.5143 35.24 41.49C34.75 40.62 33.3 40.7 32.57 40.8C32.6228 40.4581 32.5668 40.1083 32.41 39.8C31.6491 38.1011 31.349 36.2317 31.54 34.38C31.68 33.11 35.84 30.86 38.08 29.65C40.75 28.21 43.08 26.97 44.08 25.54C46.36 22.35 44.85 17.78 44.67 17.27C44.5365 16.9032 44.2781 16.5951 43.94 16.4C43.9348 15.9417 44.0826 15.4948 44.36 15.13C44.7317 14.6911 45.2509 14.4031 45.82 14.32C45.8476 14.3175 45.8745 14.3095 45.899 14.2966C45.9235 14.2837 45.9453 14.266 45.963 14.2446C45.9806 14.2232 45.9939 14.1985 46.002 14.172C46.01 14.1455 46.0128 14.1176 46.01 14.09C46.0025 14.0334 45.9733 13.9819 45.9285 13.9464C45.8837 13.911 45.8269 13.8943 45.77 13.9C45.0873 14.0096 44.4684 14.3653 44.03 14.9C43.7301 15.2925 43.5558 15.7666 43.53 16.26C43.2994 16.2096 43.0606 16.2096 42.83 16.26C42.7421 15.6076 42.8213 14.9435 43.06 14.33C43.11 14.16 43.16 13.98 43.2 13.8C43.312 13.4649 43.3404 13.1076 43.2829 12.7591C43.2254 12.4106 43.0836 12.0813 42.87 11.8C42.8293 11.762 42.7756 11.7409 42.72 11.7409C42.6643 11.7409 42.6107 11.762 42.57 11.8C42.5503 11.8187 42.5347 11.8412 42.524 11.8661C42.5133 11.891 42.5078 11.9179 42.5078 11.945C42.5078 11.9721 42.5133 11.999 42.524 12.0239C42.5347 12.0488 42.5503 12.0713 42.57 12.09C42.7391 12.32 42.8493 12.5878 42.8912 12.8702C42.933 13.1525 42.9052 13.4409 42.81 13.71L42.66 14.24C42.3953 14.9275 42.3194 15.6733 42.44 16.4C42.2768 16.4659 42.1249 16.557 41.99 16.67C41.4197 16.4181 40.9179 16.0333 40.5265 15.548C40.1351 15.0627 39.8654 14.4908 39.74 13.88C39.7376 13.8527 39.7296 13.8262 39.7166 13.8022C39.7035 13.7781 39.6856 13.757 39.6641 13.7401C39.6425 13.7232 39.6177 13.711 39.5912 13.7041C39.5647 13.6972 39.5371 13.6958 39.51 13.7C39.4823 13.7037 39.4556 13.7128 39.4315 13.7269C39.4074 13.741 39.3863 13.7598 39.3696 13.7822C39.3528 13.8045 39.3407 13.83 39.3339 13.8571C39.3271 13.8842 39.3258 13.9124 39.33 13.94C39.3625 14.1558 39.4195 14.3672 39.5 14.57C39.8454 15.5502 40.5395 16.3689 41.45 16.87C38.75 16.96 38.08 15.87 38.07 15.87C38.0409 15.8223 37.9947 15.7875 37.9408 15.7727C37.8869 15.7578 37.8295 15.764 37.78 15.79C37.7363 15.8153 37.703 15.8554 37.6865 15.9032C37.6699 15.951 37.6712 16.0031 37.69 16.05C37.69 16.05 38.46 17.37 41.53 17.24C41.3846 17.6337 41.3846 18.0663 41.53 18.46C41.84 19.32 42.46 22.13 41.38 23.64C40.81 24.44 38.38 25.72 36.52 26.75C32.43 28.97 28.52 31.06 28.24 34.08C28.0146 36.1907 28.2745 38.3251 29 40.32C29.1317 40.7048 29.2922 41.0792 29.48 41.44V41.5C28.48 41.9 27.23 42.88 27.61 44.38C27.6272 44.433 27.6648 44.4771 27.7145 44.5024C27.7642 44.5277 27.822 44.5323 27.875 44.515C27.928 44.4978 27.9721 44.4602 27.9974 44.4105C28.0227 44.3608 28.0273 44.303 28.01 44.25C27.64 42.79 29.23 42.03 29.74 41.83C29.9614 42.0397 30.2337 42.188 30.53 42.26C30.74 43.2 30.9 44.68 30.32 44.86C30.2927 44.8679 30.2673 44.8813 30.2453 44.8994C30.2233 44.9174 30.2052 44.9397 30.1921 44.965C30.1791 44.9902 30.1712 45.0179 30.1691 45.0463C30.167 45.0746 30.1707 45.1031 30.18 45.13V45.13C30.2001 45.1796 30.2376 45.2201 30.2855 45.244C30.3333 45.268 30.3883 45.2737 30.44 45.26C31.44 44.96 31.16 43.18 30.97 42.26C31.1541 42.2475 31.3357 42.2104 31.51 42.15C31.9 42.81 33.11 44.65 34.32 44.31Z" fill="white"/>
<path d="M17 30.91C16.9815 30.9365 16.9742 30.9693 16.9798 31.0012C16.9855 31.0331 17.0035 31.0614 17.0301 31.08C17.0566 31.0986 17.0894 31.1058 17.1212 31.1002C17.1531 31.0946 17.1815 31.0765 17.2 31.05C17.5 30.63 18.52 30.89 19.04 31.05C18.9942 31.2203 18.9942 31.3997 19.04 31.57C18.77 31.89 18.17 32.46 17.75 32.3C17.7345 32.2919 17.7174 32.2872 17.6999 32.2864C17.6824 32.2856 17.6649 32.2887 17.6487 32.2954C17.6325 32.3021 17.618 32.3122 17.6061 32.3251C17.5942 32.338 17.5853 32.3533 17.58 32.37C17.5704 32.4018 17.5733 32.4362 17.5882 32.4659C17.603 32.4957 17.6287 32.5186 17.66 32.53C18.21 32.75 18.8501 32.16 19.1501 31.83C19.261 32.014 19.4247 32.1604 19.62 32.25C20.624 32.7413 21.4798 33.4901 22.1 34.42C22.52 35.06 21.46 37.7 20.89 39.11C20.2249 40.4238 19.8175 41.8529 19.69 43.32C19.86 45.67 22.3101 47.2 22.5901 47.37C22.7925 47.4871 23.0295 47.5296 23.26 47.49C23.4384 47.7011 23.5436 47.9642 23.56 48.24C23.5467 48.5862 23.4162 48.9176 23.19 49.18C23.1668 49.2042 23.1538 49.2364 23.1538 49.27C23.1538 49.3035 23.1668 49.3358 23.19 49.36C23.2152 49.3811 23.2471 49.3928 23.2801 49.3928C23.313 49.3928 23.3448 49.3811 23.37 49.36C23.6477 49.0563 23.8042 48.6614 23.81 48.25C23.7959 47.9541 23.695 47.669 23.52 47.43C23.6478 47.3683 23.7631 47.2836 23.86 47.18C24.1488 47.4567 24.3651 47.8001 24.49 48.18L24.63 48.48C24.7066 48.681 24.8315 48.86 24.9937 49.0013C25.1559 49.1425 25.3504 49.2417 25.56 49.29C25.5939 49.2904 25.6268 49.2784 25.6526 49.2563C25.6783 49.2342 25.6952 49.2036 25.7 49.17C25.703 49.1371 25.6932 49.1042 25.6728 49.0782C25.6523 49.0522 25.6228 49.035 25.5901 49.03C25.4218 48.9923 25.2661 48.9117 25.1382 48.796C25.0103 48.6804 24.9145 48.5336 24.86 48.37C24.86 48.27 24.77 48.17 24.72 48.08C24.5788 47.6631 24.3306 47.2906 24 47C24.0491 46.9059 24.0828 46.8047 24.1 46.7C24.4611 46.5972 24.8417 46.5835 25.2093 46.6601C25.5768 46.7367 25.9202 46.9014 26.21 47.14C26.2353 47.1612 26.2671 47.1728 26.3 47.1728C26.3329 47.1728 26.3648 47.1612 26.39 47.14C26.4133 47.1158 26.4262 47.0835 26.4262 47.05C26.4262 47.0164 26.4133 46.9842 26.39 46.96C26.289 46.8758 26.182 46.799 26.07 46.73C25.5354 46.4103 24.9025 46.2966 24.29 46.41C25.5 45.34 26.21 45.57 26.22 45.57C26.2491 45.5774 26.2799 45.5745 26.3072 45.5617C26.3344 45.549 26.3563 45.5272 26.3693 45.5001C26.3823 45.473 26.3854 45.4422 26.3783 45.413C26.3711 45.3838 26.3541 45.358 26.33 45.34V45.34C26.33 45.34 25.4601 45.02 24.0901 46.26C24.019 46.0166 23.8581 45.8093 23.64 45.68C23.17 45.39 21.81 44.34 21.73 43.22C21.9087 42.0789 22.2452 40.9683 22.73 39.92C23.78 37.33 24.73 34.92 23.73 33.36C23.0193 32.2986 22.0796 31.4101 20.98 30.76C20.7701 30.6371 20.5531 30.5269 20.33 30.43V30.43C20.5425 30.1163 20.6351 29.7367 20.591 29.3604C20.547 28.9841 20.3692 28.6362 20.0901 28.38V28.38C20.0656 28.3614 20.0358 28.3513 20.005 28.3513C19.9743 28.3513 19.9444 28.3614 19.92 28.38C19.8968 28.4042 19.8838 28.4365 19.8838 28.47C19.8838 28.5035 19.8968 28.5358 19.92 28.56C20.66 29.09 20.21 30.05 20.05 30.34C19.8675 30.3242 19.6842 30.3588 19.52 30.44C19.06 30.09 18.42 29.44 18.62 29.16C18.6412 29.1348 18.6528 29.1029 18.6528 29.07C18.6528 29.0371 18.6412 29.0052 18.62 28.98V28.98C18.6089 28.9688 18.5956 28.9599 18.581 28.9539C18.5664 28.9478 18.5508 28.9447 18.535 28.9447C18.5192 28.9447 18.5036 28.9478 18.489 28.9539C18.4744 28.9599 18.4612 28.9688 18.45 28.98C18.12 29.48 18.9101 30.21 19.3401 30.55C19.2571 30.6253 19.1863 30.7131 19.13 30.81C18.72 30.68 17.46 30.29 17 30.91Z" fill="white"/>
<path d="M89.14 40.48C88.6912 40.4786 88.2431 40.4418 87.8 40.37C83.86 39.71 82.25 36.59 81.29 33.94L81.11 33.44C80.795 32.1841 80.173 31.0262 79.3 30.07C78.95 29.79 78.67 29.77 77.88 30.39C77.0959 31.1186 76.0702 31.5317 75 31.55C70.48 31.55 66.82 28.37 66.48 24.25C66.2014 22.4628 66.5551 20.6344 67.48 19.08V19.08C67.7438 18.7179 68.0607 18.3977 68.42 18.13C70.95 16.22 75.86 14.28 78.27 17.21C78.6767 17.7146 79.0539 18.2421 79.4 18.79C79.9886 19.8854 80.8409 20.8168 81.88 21.5C83.15 22.2 84.45 21.22 86.14 19.75C86.7094 19.2181 87.329 18.7425 87.99 18.33C89.2404 17.6422 90.6538 17.306 92.08 17.357C93.5062 17.4081 94.892 17.8445 96.09 18.62C99.56 20.62 102.01 24.52 102.09 28.11C102.038 29.7862 101.611 31.4295 100.841 32.9193C100.071 34.4091 98.9771 35.7077 97.64 36.72C94.62 39.22 91.77 40.48 89.14 40.48ZM78.86 28.62C79.316 28.6244 79.7556 28.791 80.1 29.09C81.1673 30.1805 81.9294 31.5323 82.31 33.01L82.48 33.51C83.73 36.96 85.48 38.69 88.02 39.12C90.56 39.55 93.59 38.43 96.79 35.75C98.63 34.21 100.79 31.64 100.79 28.12C100.79 25.01 98.52 21.48 95.47 19.72C94.4606 19.0582 93.2909 18.6818 92.085 18.6308C90.879 18.5797 89.6818 18.8559 88.62 19.43C88.035 19.8051 87.486 20.2336 86.98 20.71C85.39 22.08 83.42 23.78 81.28 22.62C80.0541 21.8373 79.0461 20.7571 78.35 19.48C78 18.96 77.68 18.48 77.35 18.01C75.43 15.68 71.05 17.77 69.23 19.14C68.9679 19.3289 68.7411 19.5624 68.56 19.83C67.8197 21.1406 67.5481 22.6643 67.79 24.15C68.07 27.61 71.2 30.25 75.06 30.29C75.4512 30.2898 75.8383 30.2099 76.1976 30.0552C76.557 29.9004 76.8811 29.6741 77.15 29.39C77.6231 28.9572 78.2224 28.6873 78.86 28.62V28.62Z" fill="white"/>
<path d="M85.73 31.68C86.4314 31.68 87 31.1114 87 30.41C87 29.7086 86.4314 29.14 85.73 29.14C85.0286 29.14 84.46 29.7086 84.46 30.41C84.46 31.1114 85.0286 31.68 85.73 31.68Z" fill="white"/>
<path d="M85.8 36.49C86.5014 36.49 87.07 35.9214 87.07 35.22C87.07 34.5186 86.5014 33.95 85.8 33.95C85.0986 33.95 84.53 34.5186 84.53 35.22C84.53 35.9214 85.0986 36.49 85.8 36.49Z" fill="white"/>
<path d="M90.51 37.34C91.0015 37.34 91.4 36.9415 91.4 36.45C91.4 35.9585 91.0015 35.56 90.51 35.56C90.0185 35.56 89.62 35.9585 89.62 36.45C89.62 36.9415 90.0185 37.34 90.51 37.34Z" fill="white"/>
<path d="M95.34 35.31C95.8316 35.31 96.23 34.9115 96.23 34.42C96.23 33.9285 95.8316 33.53 95.34 33.53C94.8485 33.53 94.45 33.9285 94.45 34.42C94.45 34.9115 94.8485 35.31 95.34 35.31Z" fill="white"/>
<path d="M96.87 29.95C97.2179 29.95 97.5 29.6679 97.5 29.32C97.5 28.9721 97.2179 28.69 96.87 28.69C96.5221 28.69 96.24 28.9721 96.24 29.32C96.24 29.6679 96.5221 29.95 96.87 29.95Z" fill="white"/>
<path d="M89.97 21.4C90.3179 21.4 90.6 21.1179 90.6 20.77C90.6 20.422 90.3179 20.14 89.97 20.14C89.622 20.14 89.34 20.422 89.34 20.77C89.34 21.1179 89.622 21.4 89.97 21.4Z" fill="white"/>
<path d="M95.62 24.9C96.3766 24.9 96.99 24.2866 96.99 23.53C96.99 22.7734 96.3766 22.16 95.62 22.16C94.8634 22.16 94.25 22.7734 94.25 23.53C94.25 24.2866 94.8634 24.9 95.62 24.9Z" fill="white"/>
<path d="M91.11 31.79C91.8666 31.79 92.48 31.1766 92.48 30.42C92.48 29.6634 91.8666 29.05 91.11 29.05C90.3534 29.05 89.74 29.6634 89.74 30.42C89.74 31.1766 90.3534 31.79 91.11 31.79Z" fill="white"/>
<path d="M82 27.09C82.4639 27.09 82.84 26.7139 82.84 26.25C82.84 25.7861 82.4639 25.41 82 25.41C81.5361 25.41 81.16 25.7861 81.16 26.25C81.16 26.7139 81.5361 27.09 82 27.09Z" fill="white"/>
<path d="M75.44 28.5C75.9923 28.5 76.44 28.0523 76.44 27.5C76.44 26.9477 75.9923 26.5 75.44 26.5C74.8877 26.5 74.44 26.9477 74.44 27.5C74.44 28.0523 74.8877 28.5 75.44 28.5Z" fill="white"/>
<path d="M71.92 28.41C72.2458 28.41 72.51 28.1459 72.51 27.82C72.51 27.4942 72.2458 27.23 71.92 27.23C71.5941 27.23 71.33 27.4942 71.33 27.82C71.33 28.1459 71.5941 28.41 71.92 28.41Z" fill="white"/>
<path d="M69.82 25.99C70.2729 25.99 70.64 25.6229 70.64 25.17C70.64 24.7171 70.2729 24.35 69.82 24.35C69.3671 24.35 69 24.7171 69 25.17C69 25.6229 69.3671 25.99 69.82 25.99Z" fill="white"/>
<path d="M71.4 20.25C71.8529 20.25 72.22 19.8829 72.22 19.43C72.22 18.9771 71.8529 18.61 71.4 18.61C70.9472 18.61 70.58 18.9771 70.58 19.43C70.58 19.8829 70.9472 20.25 71.4 20.25Z" fill="white"/>
<path d="M76.12 21.19C76.5729 21.19 76.94 20.8229 76.94 20.37C76.94 19.9171 76.5729 19.55 76.12 19.55C75.6671 19.55 75.3 19.9171 75.3 20.37C75.3 20.8229 75.6671 21.19 76.12 21.19Z" fill="white"/>
<path d="M78.45 25.48C79.1901 25.48 79.79 24.8801 79.79 24.14C79.79 23.4 79.1901 22.8 78.45 22.8C77.71 22.8 77.11 23.4 77.11 24.14C77.11 24.8801 77.71 25.48 78.45 25.48Z" fill="white"/>
<path d="M73.17 24.9C74.2911 24.9 75.2 23.9911 75.2 22.87C75.2 21.7489 74.2911 20.84 73.17 20.84C72.0488 20.84 71.14 21.7489 71.14 22.87C71.14 23.9911 72.0488 24.9 73.17 24.9Z" fill="white"/>
<path d="M71.85 21.91C72.01 21.65 72.52 21.37 72.78 21.52C73.04 21.67 72.94 22.21 72.78 22.46C72.62 22.71 72.19 23.06 71.93 22.91C71.67 22.76 71.7 22.17 71.85 21.91Z" fill="#B51C1C"/>
<path d="M88.48 28.05C89.8662 28.05 90.99 26.9262 90.99 25.54C90.99 24.1538 89.8662 23.03 88.48 23.03C87.0937 23.03 85.97 24.1538 85.97 25.54C85.97 26.9262 87.0937 28.05 88.48 28.05Z" fill="white"/>
<path d="M86.85 24.35C87.04 24.03 87.67 23.68 87.99 23.87C88.31 24.06 88.19 24.71 87.99 25.03C87.79 25.35 87.25 25.77 86.93 25.59C86.61 25.41 86.66 24.67 86.85 24.35Z" fill="#B51C1C"/>
<path d="M84.7106 61.1351L84.7076 61.1255C84.5395 60.5879 83.9673 60.2884 83.4296 60.4566L81.7499 60.982C81.2123 61.1502 80.9127 61.7224 81.0809 62.26L81.0839 62.2696C81.2521 62.8072 81.8243 63.1067 82.3619 62.9385L84.0416 62.4131C84.5793 62.2449 84.8788 61.6727 84.7106 61.1351Z" fill="white"/>
<path d="M88.2606 62.1289L88.2643 62.1197C88.4733 61.5965 88.2185 61.003 87.6954 60.7941L86.0609 60.1413C85.5378 59.9324 84.9443 60.1872 84.7353 60.7103L84.7316 60.7195C84.5227 61.2427 84.7775 61.8362 85.3006 62.0451L86.9351 62.6979C87.4582 62.9068 88.0517 62.6521 88.2606 62.1289Z" fill="white"/>
<path d="M90.6211 65.2807L90.629 65.2745C91.0688 64.9225 91.14 64.2806 90.788 63.8408L89.5383 62.2793C89.1863 61.8394 88.5445 61.7682 88.1046 62.1202L88.0968 62.1265C87.657 62.4784 87.5858 63.1203 87.9378 63.5602L89.1874 65.1217C89.5394 65.5615 90.1813 65.6327 90.6211 65.2807Z" fill="white"/>
<path d="M94.2534 66.9331L94.2576 66.924C94.4909 66.4113 94.2644 65.8065 93.7517 65.5732L91.9313 64.7447C91.4186 64.5114 90.8138 64.7378 90.5804 65.2506L90.5763 65.2597C90.343 65.7724 90.5694 66.3772 91.0822 66.6106L92.9025 67.439C93.4152 67.6724 94.0201 67.4459 94.2534 66.9331Z" fill="white"/>
<path d="M98.1595 66.3224L98.1582 66.3125C98.0896 65.7533 97.5807 65.3557 97.0215 65.4244L95.0365 65.6681C94.4773 65.7367 94.0797 66.2457 94.1484 66.8048L94.1496 66.8147C94.2183 67.3739 94.7272 67.7715 95.2863 67.7028L97.2714 67.4591C97.8305 67.3904 98.2281 66.8815 98.1595 66.3224Z" fill="white"/>
<path d="M101.022 63.6569L101.015 63.6496C100.624 63.244 99.9781 63.232 99.5724 63.6229L98.1323 65.0107C97.7267 65.4016 97.7147 66.0474 98.1056 66.453L98.1126 66.4602C98.5034 66.8659 99.1492 66.8778 99.5548 66.4869L100.995 65.0991C101.401 64.7082 101.413 64.0625 101.022 63.6569Z" fill="white"/>
<path d="M81.0619 62.0929L81.0556 62.0851C80.7036 61.6452 80.0617 61.574 79.6219 61.926L78.0136 63.2131C77.5737 63.5651 77.5025 64.2071 77.8545 64.6469L77.8608 64.6547C78.2127 65.0945 78.8546 65.1657 79.2945 64.8137L80.9028 63.5265C81.3426 63.1745 81.4139 62.5327 81.0619 62.0929Z" fill="white"/>
<path d="M78.3492 64.7204L78.3399 64.7167C77.8167 64.5077 77.2233 64.7625 77.0143 65.2856L76.2503 67.1987C76.0414 67.7219 76.2961 68.3153 76.8192 68.5243L76.8285 68.528C77.3517 68.7369 77.9452 68.4822 78.1541 67.959L78.9181 66.0459C79.1271 65.5228 78.8723 64.9293 78.3492 64.7204Z" fill="white"/>
<path d="M77.2878 68.5318L77.2789 68.5363C76.7772 68.7924 76.578 69.4068 76.8341 69.9086L77.7706 71.7434C78.0267 72.2451 78.6411 72.4442 79.1429 72.1881L79.1517 72.1836C79.6535 71.9275 79.8526 71.3132 79.5965 70.8114L78.66 68.9766C78.4039 68.4748 77.7896 68.2757 77.2878 68.5318Z" fill="white"/>
<path d="M79.4915 71.5119L79.4869 71.5207C79.2256 72.0198 79.4184 72.6362 79.9175 72.8974L81.7426 73.8528C82.2417 74.114 82.858 73.9212 83.1193 73.4221L83.1239 73.4133C83.3852 72.9142 83.1924 72.2978 82.6933 72.0365L80.8682 71.0812C80.3691 70.8199 79.7528 71.0128 79.4915 71.5119Z" fill="white"/>
<path d="M82.9497 73.3158L82.9451 73.3247C82.6838 73.8238 82.8766 74.4402 83.3757 74.7014L85.2008 75.6568C85.6999 75.918 86.3163 75.7252 86.5775 75.2261L86.5822 75.2172C86.8434 74.7181 86.6506 74.1018 86.1515 73.8405L84.3264 72.8852C83.8274 72.6239 83.211 72.8167 82.9497 73.3158Z" fill="white"/>
<path d="M86.4542 75.1536L86.4495 75.1625C86.1883 75.6616 86.3811 76.278 86.8802 76.5392L88.7052 77.4946C89.2043 77.7558 89.8207 77.563 90.082 77.0639L90.0866 77.055C90.3479 76.556 90.1551 75.9396 89.656 75.6783L87.8309 74.723C87.3318 74.4617 86.7154 74.6545 86.4542 75.1536Z" fill="white"/>
<path d="M89.9394 76.9792L89.9347 76.988C89.6735 77.4871 89.8663 78.1035 90.3654 78.3647L92.1905 79.3201C92.6896 79.5813 93.3059 79.3886 93.5672 78.8895L93.5718 78.8806C93.8331 78.3815 93.6403 77.7651 93.1412 77.5039L91.3161 76.5485C90.817 76.2873 90.2006 76.4801 89.9394 76.9792Z" fill="white"/>
<path d="M93.3414 79.1544L93.3325 79.1589C92.8307 79.415 92.6316 80.0294 92.8876 80.5311L93.8242 82.366C94.0802 82.8677 94.6946 83.0668 95.1964 82.8107L95.2053 82.8062C95.707 82.5501 95.9061 81.9358 95.6501 81.434L94.7136 79.5992C94.4575 79.0974 93.8431 78.8983 93.3414 79.1544Z" fill="white"/>
<path d="M95.8522 82.6064L95.8431 82.6022C95.3314 82.3668 94.7256 82.5907 94.4901 83.1024L93.629 84.9738C93.3935 85.4856 93.6175 86.0913 94.1292 86.3268L94.1383 86.331C94.65 86.5665 95.2558 86.3425 95.4913 85.8308L96.3524 83.9594C96.5879 83.4476 96.3639 82.8419 95.8522 82.6064Z" fill="white"/>
<path d="M94.1458 86.0275L94.1401 86.0193C93.8157 85.5588 93.1793 85.4484 92.7188 85.7728L91.0346 86.9591C90.5741 87.2835 90.4637 87.9198 90.7881 88.3804L90.7939 88.3885C91.1183 88.8491 91.7546 88.9594 92.2151 88.635L93.8993 87.4488C94.3598 87.1244 94.4702 86.4881 94.1458 86.0275Z" fill="white"/>
<path d="M90.7647 87.84L90.7682 87.8306C90.9676 87.3037 90.7021 86.715 90.1753 86.5156L88.2487 85.7865C87.7218 85.5871 87.1331 85.8525 86.9337 86.3793L86.9301 86.3887C86.7307 86.9156 86.9962 87.5043 87.523 87.7037L89.4497 88.4329C89.9765 88.6323 90.5653 88.3668 90.7647 87.84Z" fill="white"/>
<path d="M87.0712 86.1616L87.0783 86.1546C87.479 85.7586 87.4828 85.1128 87.0869 84.7121L85.6389 83.2468C85.2429 82.8461 84.5971 82.8423 84.1964 83.2383L84.1893 83.2453C83.7886 83.6413 83.7848 84.2871 84.1807 84.6878L85.6287 86.1531C86.0246 86.5538 86.6705 86.5576 87.0712 86.1616Z" fill="white"/>
<path d="M84.6029 83.3116L84.6076 83.3027C84.8688 82.8036 84.676 82.1873 84.1769 81.926L82.3518 80.9707C81.8527 80.7094 81.2364 80.9022 80.9751 81.4013L80.9705 81.4101C80.7092 81.9092 80.902 82.5256 81.4011 82.7869L83.2262 83.7422C83.7253 84.0035 84.3417 83.8106 84.6029 83.3116Z" fill="white"/>
<path d="M81.0317 81.4571L81.0313 81.4471C81.008 80.8843 80.5329 80.4469 79.97 80.4702L77.9118 80.5553C77.3489 80.5786 76.9115 81.0538 76.9348 81.6167L76.9352 81.6267C76.9585 82.1895 77.4337 82.6269 77.9966 82.6036L80.0548 82.5185C80.6176 82.4952 81.055 82.02 81.0317 81.4571Z" fill="white"/>
<path d="M77.0358 81.5933L77.0288 81.5862C76.6328 81.1855 75.987 81.1817 75.5863 81.5777L74.121 83.0256C73.7204 83.4216 73.7165 84.0674 74.1125 84.4681L74.1195 84.4752C74.5155 84.8759 75.1613 84.8797 75.562 84.4838L77.0272 83.0358C77.4279 82.6398 77.4318 81.994 77.0358 81.5933Z" fill="white"/>
<path d="M39.15 82.82C38.341 82.8172 37.5403 82.655 36.7939 82.3427C36.0476 82.0304 35.37 81.5742 34.8 81L25.62 71.81C24.472 70.6574 23.8274 69.0968 23.8274 67.47C23.8274 65.8432 24.472 64.2826 25.62 63.13L27.37 61.38C27.9394 60.8092 28.6159 60.3562 29.3606 60.0472C30.1053 59.7382 30.9037 59.5791 31.71 59.5791C32.5163 59.5791 33.3147 59.7382 34.0594 60.0472C34.8041 60.3562 35.4806 60.8092 36.05 61.38L45.24 70.56C45.8112 71.1303 46.2643 71.8076 46.5734 72.5531C46.8826 73.2987 47.0417 74.0979 47.0417 74.905C47.0417 75.7121 46.8826 76.5113 46.5734 77.2569C46.2643 78.0024 45.8112 78.6797 45.24 79.25L43.49 81C42.3418 82.1581 40.7808 82.8127 39.15 82.82V82.82ZM35.7 80.13C36.6147 81.0417 37.8535 81.5536 39.145 81.5536C40.4365 81.5536 41.6753 81.0417 42.59 80.13L44.34 78.38C44.7939 77.9284 45.154 77.3916 45.3997 76.8004C45.6455 76.2092 45.772 75.5752 45.772 74.935C45.772 74.2948 45.6455 73.6608 45.3997 73.0696C45.154 72.4784 44.7939 71.9416 44.34 71.49L35.16 62.31C34.2449 61.3952 33.0039 60.8813 31.71 60.8813C30.4161 60.8813 29.1751 61.3952 28.26 62.31L26.52 64.05C26.0659 64.5024 25.7055 65.0401 25.4597 65.6321C25.2138 66.2242 25.0872 66.8589 25.0872 67.5C25.0872 68.1411 25.2138 68.7758 25.4597 69.3679C25.7055 69.9599 26.0659 70.4976 26.52 70.95L35.7 80.13Z" fill="white"/>
<path d="M39.2 80.21C38.6641 80.2131 38.1329 80.1085 37.6382 79.9024C37.1434 79.6962 36.6952 79.3928 36.32 79.01L27.63 70.33C27.2514 69.952 26.9511 69.5031 26.7462 69.0089C26.5413 68.5147 26.4359 67.985 26.4359 67.45C26.4359 66.915 26.5413 66.3853 26.7462 65.8911C26.9511 65.3969 27.2514 64.948 27.63 64.57L28.78 63.42C29.158 63.0415 29.607 62.7411 30.1011 62.5362C30.5953 62.3313 31.125 62.2259 31.66 62.2259C32.1949 62.2259 32.7247 62.3313 33.2189 62.5362C33.713 62.7411 34.162 63.0415 34.54 63.42L43.23 72.11C43.9896 72.876 44.4159 73.9112 44.4159 74.99C44.4159 76.0688 43.9896 77.104 43.23 77.87L42.08 79C41.7057 79.3846 41.2578 79.6899 40.763 79.8978C40.2682 80.1056 39.7367 80.2118 39.2 80.21ZM31.66 63.15C31.2451 63.149 30.8342 63.2307 30.4513 63.3904C30.0684 63.5501 29.7212 63.7845 29.43 64.08L28.29 65.22C27.9949 65.5115 27.7608 65.8588 27.6011 66.2416C27.4415 66.6245 27.3595 67.0352 27.36 67.45C27.3586 67.8634 27.4402 68.2729 27.6 68.6543C27.7597 69.0356 27.9943 69.381 28.29 69.67L36.97 78.36C37.5622 78.9499 38.3641 79.2811 39.2 79.2811C40.0359 79.2811 40.8377 78.9499 41.43 78.36L42.57 77.22C43.1599 76.6278 43.4911 75.8259 43.4911 74.99C43.4911 74.1541 43.1599 73.3523 42.57 72.76L33.88 64.08C33.5903 63.7852 33.2448 63.5512 32.8636 63.3915C32.4824 63.2319 32.0732 63.1497 31.66 63.15V63.15Z" fill="white"/>
<path d="M34.14 67.23C34.4327 67.23 34.67 66.9927 34.67 66.7C34.67 66.4073 34.4327 66.17 34.14 66.17C33.8473 66.17 33.61 66.4073 33.61 66.7C33.61 66.9927 33.8473 67.23 34.14 67.23Z" fill="white"/>
<path d="M31.52 67.6C31.8127 67.6 32.05 67.3627 32.05 67.07C32.05 66.7773 31.8127 66.54 31.52 66.54C31.2273 66.54 30.99 66.7773 30.99 67.07C30.99 67.3627 31.2273 67.6 31.52 67.6Z" fill="white"/>
<path d="M29.49 68.05C29.7827 68.05 30.02 67.8127 30.02 67.52C30.02 67.2273 29.7827 66.99 29.49 66.99C29.1973 66.99 28.96 67.2273 28.96 67.52C28.96 67.8127 29.1973 68.05 29.49 68.05Z" fill="white"/>
<path d="M30.84 69.33C31.1327 69.33 31.37 69.0927 31.37 68.8C31.37 68.5073 31.1327 68.27 30.84 68.27C30.5473 68.27 30.31 68.5073 30.31 68.8C30.31 69.0927 30.5473 69.33 30.84 69.33Z" fill="white"/>
<path d="M32.33 72.48C32.6227 72.48 32.86 72.2427 32.86 71.95C32.86 71.6573 32.6227 71.42 32.33 71.42C32.0373 71.42 31.8 71.6573 31.8 71.95C31.8 72.2427 32.0373 72.48 32.33 72.48Z" fill="white"/>
<path d="M38.56 71.43C38.8527 71.43 39.09 71.1927 39.09 70.9C39.09 70.6073 38.8527 70.37 38.56 70.37C38.2673 70.37 38.03 70.6073 38.03 70.9C38.03 71.1927 38.2673 71.43 38.56 71.43Z" fill="white"/>
<path d="M38.24 75.51C38.5327 75.51 38.77 75.2727 38.77 74.98C38.77 74.6873 38.5327 74.45 38.24 74.45C37.9473 74.45 37.71 74.6873 37.71 74.98C37.71 75.2727 37.9473 75.51 38.24 75.51Z" fill="white"/>
<path d="M40.07 73.85C40.3627 73.85 40.6 73.6127 40.6 73.32C40.6 73.0273 40.3627 72.79 40.07 72.79C39.7773 72.79 39.54 73.0273 39.54 73.32C39.54 73.6127 39.7773 73.85 40.07 73.85Z" fill="white"/>
<path d="M40.72 77.22C41.0127 77.22 41.25 76.9827 41.25 76.69C41.25 76.3973 41.0127 76.16 40.72 76.16C40.4273 76.16 40.19 76.3973 40.19 76.69C40.19 76.9827 40.4273 77.22 40.72 77.22Z" fill="white"/>
<path d="M38.34 77.66C38.6327 77.66 38.87 77.4227 38.87 77.13C38.87 76.8373 38.6327 76.6 38.34 76.6C38.0473 76.6 37.81 76.8373 37.81 77.13C37.81 77.4227 38.0473 77.66 38.34 77.66Z" fill="white"/>
<path d="M30.31 66.09C30.6027 66.09 30.84 65.8527 30.84 65.56C30.84 65.2673 30.6027 65.03 30.31 65.03C30.0173 65.03 29.78 65.2673 29.78 65.56C29.78 65.8527 30.0173 66.09 30.31 66.09Z" fill="white"/>
<path d="M32.26 65.25C32.5527 65.25 32.79 65.0127 32.79 64.72C32.79 64.4273 32.5527 64.19 32.26 64.19C31.9673 64.19 31.73 64.4273 31.73 64.72C31.73 65.0127 31.9673 65.25 32.26 65.25Z" fill="white"/>
<path d="M37.71 73.47H37.61C37.5175 73.4455 37.4359 73.391 37.3779 73.3149C37.32 73.2388 37.289 73.1456 37.29 73.05C37.21 73.0447 37.1299 73.0447 37.05 73.05C36.7086 73.078 36.37 72.9712 36.1064 72.7525C35.8429 72.5338 35.6754 72.2206 35.64 71.88C35.6257 71.678 35.5819 71.4793 35.51 71.29C35.4729 71.204 35.4115 71.1308 35.3334 71.0792C35.2552 71.0277 35.1636 71.0002 35.07 71C34.21 71 33.66 70.57 33.59 69.88C33.5868 69.6187 33.5325 69.3604 33.43 69.12C33.3411 69.0524 33.2828 68.9522 33.2678 68.8416C33.2528 68.7309 33.2823 68.6188 33.35 68.53C33.4176 68.4412 33.5177 68.3828 33.6284 68.3678C33.739 68.3528 33.8511 68.3824 33.94 68.45C34.2 68.61 34.37 69.06 34.43 69.8C34.43 69.89 34.43 70.15 35.08 70.16C35.3432 70.1598 35.6004 70.2389 35.818 70.3869C36.0356 70.535 36.2035 70.7451 36.3 70.99C36.397 71.2435 36.4576 71.5095 36.48 71.78C36.4947 71.8993 36.5528 72.009 36.6431 72.0883C36.7335 72.1676 36.8497 72.2109 36.9699 72.21C37.1477 72.1738 37.3315 72.1812 37.5057 72.2317C37.6799 72.2822 37.8392 72.3743 37.9699 72.5C38.0428 72.5919 38.0949 72.6985 38.1225 72.8124C38.1501 72.9264 38.1527 73.045 38.13 73.16C38.1052 73.2515 38.0502 73.3319 37.974 73.3882C37.8977 73.4445 37.8047 73.4733 37.71 73.47V73.47Z" fill="white"/>
<path d="M37.18 90.07C37.0805 90.0723 36.9839 90.0366 36.91 89.97C36.1452 89.3124 35.665 88.3841 35.57 87.38C35.5721 86.9028 35.6799 86.432 35.8857 86.0015C36.0914 85.571 36.39 85.1914 36.76 84.89C38.24 83.51 40.11 83.67 41.9 85.32C42.4401 85.836 43.1533 86.132 43.9 86.15C44.2128 86.1606 44.524 86.1015 44.8111 85.977C45.0982 85.8524 45.354 85.6656 45.56 85.43C45.9455 85.0095 46.175 84.4694 46.21 83.9C46.2356 83.4853 46.1721 83.07 46.0237 82.6819C45.8754 82.2938 45.6456 81.9419 45.35 81.65L44 80.22C43.9204 80.1404 43.8757 80.0325 43.8757 79.92C43.8757 79.8075 43.9204 79.6996 44 79.62C44.0796 79.5404 44.1875 79.4957 44.3 79.4957C44.4125 79.4957 44.5204 79.5404 44.6 79.62L46.02 81.06C46.4027 81.4372 46.6999 81.8923 46.8914 82.3943C47.0829 82.8964 47.1643 83.4337 47.13 83.97C47.0653 84.7136 46.7599 85.4157 46.26 85.97C45.9726 86.2915 45.6192 86.5472 45.2241 86.7198C44.8289 86.8924 44.4011 86.9777 43.97 86.97V86.97C42.9975 86.9581 42.0654 86.5795 41.36 85.91C40.36 84.96 38.81 84.12 37.36 85.48C37.0858 85.7047 36.8622 85.9848 36.7037 86.3018C36.5451 86.6189 36.4553 86.9659 36.44 87.32C36.512 88.0881 36.8687 88.8016 37.44 89.32C37.5182 89.4003 37.562 89.5079 37.562 89.62C37.562 89.7321 37.5182 89.8397 37.44 89.92C37.3754 90.0011 37.2825 90.0547 37.18 90.07V90.07Z" fill="white"/>
<path d="M33.61 80.85C33.5536 80.8513 33.4975 80.8404 33.4457 80.818C33.3939 80.7955 33.3476 80.7621 33.31 80.72C33.2704 80.6818 33.2389 80.6359 33.2173 80.5852C33.1958 80.5346 33.1848 80.4801 33.1848 80.425C33.1848 80.3699 33.1958 80.3154 33.2173 80.2647C33.2389 80.2141 33.2704 80.1682 33.31 80.13L34.08 79.4C34.1183 79.3604 34.1641 79.3289 34.2148 79.3073C34.2655 79.2858 34.3199 79.2747 34.375 79.2747C34.4301 79.2747 34.4845 79.2858 34.5352 79.3073C34.5859 79.3289 34.6317 79.3604 34.67 79.4C34.7482 79.4803 34.7919 79.5879 34.7919 79.7C34.7919 79.8121 34.7482 79.9197 34.67 80L33.91 80.73C33.8294 80.8075 33.7218 80.8505 33.61 80.85V80.85Z" fill="white"/>
<path d="M39.14 83.27C39.0295 83.2648 38.9252 83.2173 38.8488 83.1372C38.7725 83.0571 38.7299 82.9507 38.73 82.84V81.78C38.73 81.7253 38.7409 81.6712 38.7621 81.6208C38.7834 81.5704 38.8144 81.5247 38.8536 81.4865C38.8927 81.4483 38.9391 81.4183 38.9901 81.3983C39.041 81.3783 39.0953 81.3687 39.15 81.37V81.37C39.2052 81.3713 39.2595 81.3834 39.31 81.4058C39.3605 81.4281 39.406 81.4601 39.4441 81.5001C39.4822 81.54 39.512 81.587 39.5319 81.6385C39.5517 81.69 39.5613 81.7448 39.56 81.8V82.86C39.555 82.9688 39.5088 83.0717 39.4308 83.1478C39.3529 83.2239 39.2489 83.2676 39.14 83.27Z" fill="white"/>
<path d="M29.84 77.11C29.7569 77.1092 29.6759 77.0838 29.6072 77.037C29.5386 76.9902 29.4854 76.924 29.4544 76.8469C29.4233 76.7699 29.4158 76.6853 29.4329 76.604C29.4499 76.5226 29.4906 76.4482 29.55 76.39L30.31 75.66C30.3909 75.5831 30.499 75.5415 30.6106 75.5443C30.7222 75.5471 30.8281 75.5941 30.905 75.675C30.9819 75.7559 31.0236 75.864 31.0208 75.9756C31.0179 76.0872 30.9709 76.1931 30.89 76.27L30.13 77C30.0515 77.0732 29.9474 77.1127 29.84 77.11V77.11Z" fill="white"/>
<path d="M26.1 73.47C26.0421 73.4709 25.9847 73.4598 25.9314 73.4374C25.8781 73.415 25.8299 73.3819 25.79 73.34C25.7118 73.2597 25.668 73.1521 25.668 73.04C25.668 72.928 25.7118 72.8203 25.79 72.74L26.55 72.02C26.6309 71.9431 26.739 71.9015 26.8506 71.9043C26.9622 71.9071 27.0681 71.9541 27.145 72.035C27.2219 72.1159 27.2636 72.224 27.2607 72.3356C27.2579 72.4472 27.2109 72.5531 27.13 72.63L26.37 73.36C26.2943 73.425 26.1995 73.4636 26.1 73.47V73.47Z" fill="white"/>
<path d="M44.1 70.4C44.0422 70.4003 43.985 70.3889 43.9318 70.3666C43.8785 70.3442 43.8303 70.3114 43.79 70.27C43.7118 70.1897 43.668 70.0821 43.668 69.97C43.668 69.8579 43.7118 69.7503 43.79 69.67L44.55 68.95C44.59 68.9119 44.6372 68.8821 44.6888 68.8623C44.7404 68.8424 44.7953 68.8329 44.8506 68.8343C44.9058 68.8357 44.9603 68.8479 45.0108 68.8704C45.0613 68.8928 45.1069 68.925 45.145 68.965C45.1831 69.0051 45.2129 69.0522 45.2328 69.1038C45.2526 69.1554 45.2621 69.2104 45.2607 69.2656C45.2593 69.3209 45.2471 69.3753 45.2247 69.4258C45.2022 69.4763 45.1701 69.5219 45.13 69.56L44.37 70.28C44.2975 70.3514 44.2015 70.394 44.1 70.4V70.4Z" fill="white"/>
<path d="M46.1 75.24C45.9985 75.2244 45.9059 75.173 45.8391 75.095C45.7722 75.017 45.7354 74.9177 45.7354 74.815C45.7354 74.7123 45.7722 74.613 45.8391 74.535C45.9059 74.457 45.9985 74.4056 46.1 74.39H47.1C47.2015 74.4056 47.2941 74.457 47.361 74.535C47.4278 74.613 47.4646 74.7123 47.4646 74.815C47.4646 74.9177 47.4278 75.017 47.361 75.095C47.2941 75.173 47.2015 75.2244 47.1 75.24H46.1Z" fill="white"/>
<path d="M40.32 66.66C40.2636 66.6613 40.2075 66.6504 40.1557 66.628C40.1039 66.6055 40.0576 66.5721 40.02 66.53C39.9418 66.4497 39.8981 66.3421 39.8981 66.23C39.8981 66.1179 39.9418 66.0103 40.02 65.93L40.78 65.2C40.8615 65.1241 40.9687 65.0819 41.08 65.0819C41.1914 65.0819 41.2986 65.1241 41.38 65.2C41.4582 65.2803 41.502 65.3879 41.502 65.5C41.502 65.6121 41.4582 65.7197 41.38 65.8L40.61 66.52C40.574 66.5621 40.5297 66.5964 40.4797 66.6205C40.4298 66.6446 40.3754 66.658 40.32 66.66V66.66Z" fill="white"/>
<path d="M36.58 63C36.4668 62.9979 36.359 62.9512 36.28 62.87C36.2018 62.7897 36.1581 62.6821 36.1581 62.57C36.1581 62.4579 36.2018 62.3503 36.28 62.27L37.05 61.54C37.1309 61.4631 37.239 61.4215 37.3506 61.4243C37.4622 61.4271 37.5681 61.4741 37.645 61.555C37.7219 61.6359 37.7636 61.744 37.7607 61.8556C37.7579 61.9672 37.7109 62.0731 37.63 62.15L36.86 62.88C36.7861 62.9554 36.6855 62.9985 36.58 63V63Z" fill="white"/>
<path d="M31.72 61C31.6077 60.9948 31.5019 60.9458 31.4253 60.8636C31.3487 60.7813 31.3073 60.6724 31.31 60.56V59.56C31.3151 59.4495 31.3627 59.3452 31.4428 59.2688C31.5229 59.1924 31.6293 59.1499 31.74 59.15V59.15C31.7952 59.1513 31.8495 59.1634 31.9 59.1858C31.9504 59.2081 31.996 59.2401 32.0341 59.2801C32.0722 59.32 32.102 59.367 32.1219 59.4185C32.1418 59.47 32.1514 59.5248 32.15 59.58V60.64C32.1353 60.7425 32.0833 60.8358 32.0039 60.9023C31.9246 60.9687 31.8234 61.0035 31.72 61V61Z" fill="white"/>
<path d="M26.89 62.89C26.7865 62.8882 26.687 62.8492 26.61 62.78L25.83 62.06C25.7893 62.0219 25.7565 61.9762 25.7335 61.9254C25.7104 61.8746 25.6976 61.8198 25.6957 61.7641C25.6939 61.7084 25.703 61.6529 25.7226 61.6007C25.7422 61.5485 25.7719 61.5007 25.81 61.46C25.8481 61.4193 25.8938 61.3865 25.9446 61.3634C25.9953 61.3404 26.0501 61.3276 26.1058 61.3257C26.1615 61.3239 26.2171 61.333 26.2693 61.3526C26.3215 61.3722 26.3693 61.4019 26.41 61.44L27.18 62.16C27.2429 62.2175 27.2868 62.2928 27.306 62.3759C27.3251 62.459 27.3185 62.5459 27.287 62.6251C27.2555 62.7043 27.2007 62.7721 27.1298 62.8194C27.0588 62.8667 26.9752 62.8914 26.89 62.89V62.89Z" fill="white"/>
<path d="M24.89 67.87H23.89C23.8287 67.8794 23.7662 67.8755 23.7065 67.8585C23.6469 67.8414 23.5917 67.8117 23.5446 67.7714C23.4976 67.731 23.4598 67.6809 23.4339 67.6246C23.408 67.5683 23.3946 67.507 23.3946 67.445C23.3946 67.383 23.408 67.3217 23.4339 67.2654C23.4598 67.2091 23.4976 67.159 23.5446 67.1186C23.5917 67.0783 23.6469 67.0485 23.7065 67.0315C23.7662 67.0145 23.8287 67.0106 23.89 67.02V67.02H24.89C25.0014 67.02 25.1082 67.0642 25.187 67.143C25.2658 67.2218 25.31 67.3286 25.31 67.44C25.31 67.5514 25.2658 67.6582 25.187 67.737C25.1082 67.8158 25.0014 67.86 24.89 67.86V67.87Z" fill="white"/>
<path d="M36.12 48.72C36.12 48.3831 35.8469 48.11 35.51 48.11C35.1731 48.11 34.9 48.3831 34.9 48.72V50.85C34.9 51.1869 35.1731 51.46 35.51 51.46C35.8469 51.46 36.12 51.1869 36.12 50.85V48.72Z" fill="#FFB815"/>
<path d="M32.0452 49.3651C31.77 49.1708 31.3893 49.2365 31.1951 49.5117C31.0008 49.7869 31.0664 50.1675 31.3416 50.3618L33.0817 51.5902C33.3569 51.7845 33.7375 51.7189 33.9318 51.4437C34.1261 51.1685 34.0605 50.7878 33.7853 50.5935L32.0452 49.3651Z" fill="#FFB815"/>
<path d="M33.1389 52.9654C32.8232 53.0831 32.6627 53.4344 32.7804 53.7501C32.898 54.0658 33.2493 54.2263 33.565 54.1087L35.5609 53.3648C35.8766 53.2472 36.0371 52.8959 35.9194 52.5802C35.8018 52.2645 35.4505 52.1039 35.1348 52.2216L33.1389 52.9654Z" fill="#FFB815"/>
<path d="M36.4057 53.8926C36.3597 54.2263 36.5928 54.5342 36.9266 54.5802C37.2603 54.6263 37.5682 54.3931 37.6142 54.0594L37.9055 51.9494C37.9516 51.6157 37.7184 51.3078 37.3847 51.2617C37.051 51.2156 36.7431 51.4489 36.697 51.7826L36.4057 53.8926Z" fill="#FFB815"/>
<path d="M38.526 51.1447C38.7887 51.3557 39.1726 51.3137 39.3836 51.0511C39.5946 50.7884 39.5526 50.4045 39.29 50.1935L37.6293 48.8597C37.3666 48.6487 36.9827 48.6906 36.7717 48.9533C36.5607 49.216 36.6026 49.6 36.8653 49.8109L38.526 51.1447Z" fill="#FFB815"/>
<path d="M36.0296 56.2594C36.2923 56.4704 36.6762 56.4284 36.8872 56.1658C37.0982 55.9031 37.0562 55.5192 36.7936 55.3082L35.1329 53.9744C34.8702 53.7635 34.4863 53.8053 34.2753 54.068C34.0643 54.3307 34.1062 54.7147 34.3689 54.9256L36.0296 56.2594Z" fill="#FFB815"/>
<path d="M38.5175 52.4824C38.2335 52.6637 38.1503 53.0409 38.3316 53.3248C38.5129 53.6088 38.8901 53.692 39.174 53.5106L40.9693 52.3643C41.2532 52.183 41.3364 51.8058 41.1551 51.5219C40.9738 51.238 40.5966 51.1548 40.3127 51.3361L38.5175 52.4824Z" fill="#FFB815"/>
<path d="M58.8139 18.7473C59.0487 19.1151 59.5372 19.2228 59.9049 18.988C60.2727 18.7532 60.3804 18.2647 60.1456 17.897L58.6548 15.5624C58.42 15.1946 57.9316 15.0869 57.5638 15.3217C57.1961 15.5565 57.0883 16.045 57.3231 16.4127L58.8139 18.7473Z" fill="#FFB815"/>
<path d="M62.8273 15.2093C63.2631 15.2295 63.6328 14.8927 63.6531 14.4568C63.6733 14.021 63.3365 13.6512 62.9006 13.631L60.1336 13.5024C59.6978 13.4822 59.3281 13.8191 59.3078 14.2549C59.2876 14.6908 59.6244 15.0605 60.0603 15.0807L62.8273 15.2093Z" fill="#FFB815"/>
<path d="M59.1167 12.0223C59.3793 11.6738 59.3097 11.1785 58.9612 10.9159C58.6128 10.6533 58.1174 10.7229 57.8548 11.0714L56.1878 13.2836C55.9252 13.632 55.9949 14.1274 56.3433 14.39C56.6918 14.6526 57.1871 14.5829 57.4497 14.2345L59.1167 12.0223Z" fill="#FFB815"/>
<path d="M54.8632 13.3148C54.6809 12.9184 54.2117 12.7449 53.8154 12.9272C53.419 13.1095 53.2455 13.5786 53.4278 13.975L54.5853 16.4916C54.7676 16.888 55.2367 17.0615 55.6331 16.8792C56.0295 16.6969 56.203 16.2277 56.0207 15.8313L54.8632 13.3148Z" fill="#FFB815"/>
<path d="M54.4817 17.805C54.048 17.7578 53.6581 18.0712 53.6109 18.5049C53.5637 18.9387 53.877 19.3285 54.3108 19.3757L57.0646 19.6754C57.4983 19.7226 57.8882 19.4092 57.9354 18.9755C57.9826 18.5417 57.6692 18.1518 57.2355 18.1046L54.4817 17.805Z" fill="#FFB815"/>
<path d="M53.634 10.445C53.2002 10.3978 52.8103 10.7111 52.7631 11.1449C52.7159 11.5786 53.0293 11.9686 53.463 12.0158L56.2168 12.3154C56.6505 12.3626 57.0404 12.0492 57.0876 11.6154C57.1348 11.1817 56.8214 10.7918 56.3877 10.7446L53.634 10.445Z" fill="#FFB815"/>
<path d="M53.5487 16.3163C53.7323 15.9205 53.5602 15.4508 53.1644 15.2673C52.7686 15.0837 52.2989 15.2558 52.1154 15.6516L50.95 18.1645C50.7664 18.5603 50.9385 19.03 51.3343 19.2136C51.7301 19.3971 52.1998 19.225 52.3833 18.8292L53.5487 16.3163Z" fill="#FFB815"/>
<path d="M61.85 88.03C61.85 87.7097 61.5903 87.45 61.27 87.45C60.9497 87.45 60.69 87.7097 60.69 88.03V90.07C60.69 90.3903 60.9497 90.65 61.27 90.65C61.5903 90.65 61.85 90.3903 61.85 90.07V88.03Z" fill="#FFB815"/>
<path d="M57.9644 88.6543C57.7027 88.4695 57.3408 88.5319 57.1561 88.7936C56.9714 89.0553 57.0337 89.4172 57.2954 89.6019L58.962 90.7785C59.2237 90.9632 59.5856 90.9008 59.7703 90.6391C59.955 90.3774 59.8927 90.0155 59.631 89.8308L57.9644 88.6543Z" fill="#FFB815"/>
<path d="M59.0103 92.0929C58.7101 92.2048 58.5575 92.5388 58.6694 92.839C58.7812 93.1391 59.1152 93.2917 59.4154 93.1799L61.3269 92.4674C61.6271 92.3556 61.7797 92.0216 61.6679 91.7215C61.556 91.4213 61.222 91.2686 60.9218 91.3805L59.0103 92.0929Z" fill="#FFB815"/>
<path d="M63.8943 90.6069C63.8495 90.9241 64.0703 91.2175 64.3874 91.2624C64.7046 91.3072 64.9981 91.0865 65.0429 90.7693L65.3286 88.7494C65.3734 88.4322 65.1527 88.1388 64.8355 88.0939C64.5183 88.0491 64.2248 88.2698 64.18 88.587L63.8943 90.6069Z" fill="#FFB815"/>
<path d="M60.9834 89.1121C61.2333 89.3139 61.5994 89.2749 61.8012 89.0251C62.003 88.7752 61.9641 88.4091 61.7142 88.2073L60.123 86.9221C59.8732 86.7203 59.507 86.7592 59.3052 87.0091C59.1034 87.2589 59.1424 87.6251 59.3922 87.8269L60.9834 89.1121Z" fill="#FFB815"/>
<path d="M61.7723 95.217C62.022 95.4175 62.3871 95.3777 62.5877 95.1279C62.7883 94.8782 62.7484 94.5132 62.4987 94.3126L60.9081 93.0351C60.6584 92.8345 60.2934 92.8744 60.0928 93.1241C59.8922 93.3739 59.932 93.7389 60.1818 93.9395L61.7723 95.217Z" fill="#FFB815"/>
<path d="M64.1543 91.6305C63.8843 91.8029 63.8052 92.1616 63.9776 92.4316C64.15 92.7015 64.5086 92.7806 64.7786 92.6083L66.4979 91.5104C66.7679 91.338 66.847 90.9793 66.6746 90.7094C66.5022 90.4394 66.1436 90.3603 65.8736 90.5327L64.1543 91.6305Z" fill="#FFB815"/>
<path d="M86.5847 48.7534C86.9048 48.7414 87.1546 48.4722 87.1426 48.1521C87.1307 47.832 86.8615 47.5823 86.5414 47.5942L84.5028 47.6704C84.1827 47.6824 83.9329 47.9515 83.9448 48.2716C83.9568 48.5917 84.226 48.8415 84.5461 48.8296L86.5847 48.7534Z" fill="#FFB815"/>
<path d="M85.8064 44.8158C85.9812 44.5474 85.9053 44.188 85.6369 44.0132C85.3685 43.8384 85.0092 43.9142 84.8344 44.1826L83.7209 45.892C83.5461 46.1604 83.6219 46.5197 83.8903 46.6945C84.1587 46.8694 84.5181 46.7935 84.6929 46.5251L85.8064 44.8158Z" fill="#FFB815"/>
<path d="M82.3412 45.9572C82.2182 45.6614 81.8788 45.5214 81.583 45.6444C81.2872 45.7674 81.1471 46.1069 81.2701 46.4026L82.0534 48.2863C82.1764 48.582 82.5159 48.7221 82.8117 48.5991C83.1075 48.4761 83.2475 48.1366 83.1245 47.8408L82.3412 45.9572Z" fill="#FFB815"/>
<path d="M81.6401 49.234C81.3213 49.202 81.037 49.4345 81.0051 49.7532C80.9731 50.0719 81.2055 50.3562 81.5242 50.3882L83.554 50.5919C83.8728 50.6239 84.1571 50.3914 84.189 50.0727C84.221 49.754 83.9886 49.4696 83.6699 49.4377L81.6401 49.234Z" fill="#FFB815"/>
<path d="M84.2223 51.1652C84.0312 51.4222 84.0846 51.7855 84.3417 51.9767C84.5987 52.1678 84.9621 52.1143 85.1532 51.8573L86.3703 50.2202C86.5615 49.9631 86.508 49.5998 86.2509 49.4086C85.9939 49.2175 85.6306 49.271 85.4395 49.5281L84.2223 51.1652Z" fill="#FFB815"/>
<path d="M79.2561 48.952C79.065 49.209 79.1185 49.5724 79.3755 49.7635C79.6326 49.9546 79.9959 49.9011 80.187 49.6441L81.4042 48.0069C81.5953 47.7499 81.5419 47.3866 81.2848 47.1955C81.0277 47.0044 80.6644 47.0578 80.4733 47.3149L79.2561 48.952Z" fill="#FFB815"/>
<path d="M82.9857 51.0779C82.8034 50.8145 82.4421 50.7489 82.1787 50.9313C81.9154 51.1136 81.8497 51.4749 82.0321 51.7382L83.1934 53.4154C83.3758 53.6788 83.7371 53.7445 84.0004 53.5621C84.2638 53.3798 84.3294 53.0184 84.1471 52.7551L82.9857 51.0779Z" fill="#FFB815"/>
</svg>
