<svg width="371" height="260" viewBox="0 0 371 260" fill="none" xmlns="http://www.w3.org/2000/svg">
<path d="M370.82 0.309998H0.589996V259.31H370.82V0.309998Z" fill="#B51C1C"/>
<path d="M185.7 213.26C231.788 213.26 269.15 175.898 269.15 129.81C269.15 83.7218 231.788 46.36 185.7 46.36C139.612 46.36 102.25 83.7218 102.25 129.81C102.25 175.898 139.612 213.26 185.7 213.26Z" fill="#930D0D"/>
<path d="M203.45 125.33C203.87 126.67 205.04 127.78 206.04 127.61C207.04 127.44 207.64 126.06 207.74 125.04C207.91 123.31 206.74 121.25 205.44 121.28C204.51 121.28 203.63 122.42 203.37 123.63L201.37 124.02C201.627 122.98 201.51 121.883 201.04 120.92C200.528 119.942 199.673 119.188 198.64 118.8L200.76 117.55C201.029 117.945 201.41 118.251 201.853 118.429C202.296 118.607 202.783 118.649 203.25 118.55C204.2 118.13 204.43 116.55 204.12 115.38C203.7 113.91 202.12 112.54 201.04 112.93C200.18 113.23 199.76 114.55 199.91 115.74L196.36 117.55C196.214 117.412 196.06 117.282 195.9 117.16C194.78 116.31 193.78 115.57 192.85 114.92L194.6 112.11C195.66 112.78 197.1 112.96 197.81 112.21C198.52 111.46 198.22 109.93 197.6 109.04C196.6 107.61 194.25 107.04 193.36 107.97C192.72 108.63 192.87 109.97 193.5 110.97L191.13 113.3C190.972 112.803 190.716 112.344 190.377 111.948C190.039 111.552 189.624 111.227 189.158 110.994C188.692 110.761 188.184 110.624 187.664 110.591C187.144 110.557 186.622 110.628 186.13 110.8L186.63 109.01C187.83 109.01 189.05 108.37 189.23 107.45C189.41 106.53 188.23 105.38 187.35 104.97C186.06 104.35 184.11 104.4 183.58 105.39C183.05 106.38 183.82 107.76 184.99 108.53L184.06 111.37C182.543 111.358 181.028 111.503 179.54 111.8L178.1 107.86C179.3 107.29 180.15 105.92 179.82 105.03C179.42 103.96 177.45 103.83 176.29 104.03C176.1 104.03 174.13 104.42 173.93 105.47C173.73 106.52 175.03 107.83 176.52 108.08L177 111C176.211 110.65 175.342 110.519 174.485 110.621C173.628 110.723 172.815 111.054 172.13 111.58C171.863 111.958 171.626 112.356 171.42 112.77L170.22 111.43C170.537 111.016 170.723 110.518 170.756 109.997C170.788 109.477 170.664 108.959 170.4 108.51C169.66 107.63 167.99 107.95 167.05 108.39C165.91 108.92 164.62 110.24 164.93 111.39C165.24 112.54 167.25 113.3 168.77 112.72L170.77 115.58C170.77 115.64 170.77 115.7 170.77 115.76C169.721 116.41 168.845 117.306 168.22 118.37L164.45 116.37C164.609 115.931 164.643 115.456 164.547 114.998C164.452 114.541 164.231 114.119 163.91 113.78C163.549 113.572 163.143 113.454 162.726 113.439C162.31 113.423 161.896 113.509 161.52 113.69C159.86 114.36 158.61 116.58 159.34 117.75C159.94 118.75 161.9 118.96 163.21 118.11L165.01 119.63C164.752 119.779 164.527 119.978 164.347 120.215C164.166 120.452 164.035 120.722 163.96 121.01C163.653 121.922 163.598 122.899 163.8 123.84L159.66 123.9C159.46 122.9 158.9 122.02 158.08 121.9C156.92 121.69 155.77 123.15 155.45 124.41C155.09 125.88 155.7 127.79 156.8 128.05C157.9 128.31 159.12 127.12 159.57 125.71L163.97 127.4C163.97 127.763 164.027 128.125 164.14 128.47C164.14 128.47 161.45 126.59 161.63 130.71C161.73 133.02 162.63 133.21 163.4 132.93L160 134.65C159.798 134.355 159.523 134.115 159.203 133.954C158.883 133.793 158.528 133.716 158.17 133.73C156.98 133.9 156.26 135.62 156.42 136.96C156.63 138.66 158.34 140.17 159.47 139.87C160.6 139.57 161.11 137.8 160.79 136.25L165.05 134.93C165.569 136.017 166.357 136.954 167.34 137.65V137.93L162.42 143C162.14 142.746 161.803 142.564 161.437 142.47C161.071 142.375 160.688 142.372 160.32 142.46C159.736 142.721 159.26 143.177 158.974 143.75C158.688 144.322 158.609 144.976 158.75 145.6C159.13 147.47 161.63 148.68 162.88 147.93C163.8 147.37 164.03 145.74 163.52 144.45L167.94 141C168.199 141.337 168.491 141.649 168.81 141.93L168.45 142.34C168.15 142.256 167.835 142.243 167.53 142.302C167.224 142.361 166.937 142.49 166.69 142.68C166.325 143.086 166.108 143.603 166.075 144.148C166.042 144.694 166.196 145.233 166.51 145.68C166.589 145.922 166.715 146.147 166.88 146.34C167.046 146.534 167.248 146.693 167.475 146.809C167.702 146.924 167.949 146.994 168.203 147.014C168.457 147.034 168.713 147.004 168.955 146.925C169.197 146.846 169.422 146.72 169.615 146.555C169.809 146.389 169.968 146.187 170.084 145.96C170.199 145.733 170.269 145.486 170.289 145.232C170.309 144.978 170.279 144.722 170.2 144.48V144.48L170.48 143.76C170.75 144.04 171.07 144.35 171.48 144.67L170.3 148.25C168.91 148.18 167.54 149.32 167.51 150.25C167.45 151.76 171.13 153.49 172.17 152.58C172.79 152.04 172.82 150.26 171.97 149.17L173.7 146.31C174.415 146.74 175.16 147.118 175.93 147.44L175.61 148.44C175.282 148.407 174.951 148.464 174.654 148.605C174.356 148.746 174.102 148.965 173.92 149.24C173.54 150.11 174.46 151.51 175.67 151.8C176.88 152.09 178.26 151.34 178.36 150.41C178.344 150.094 178.243 149.789 178.067 149.526C177.891 149.264 177.646 149.054 177.36 148.92L177.44 147.92C178.144 148.148 178.862 148.328 179.59 148.46V151.54C178.2 151.78 176.93 152.88 177.02 153.82C177.13 154.93 179.11 155.82 180.7 155.48C181.7 155.27 182.97 154.48 182.94 153.42C182.94 152.61 182.11 151.98 181.24 151.68L181.82 148.76C182.642 148.822 183.466 148.839 184.29 148.81L184.35 148.99C183.2 149.27 182.2 150.28 182.35 151.21C182.5 152.14 183.58 152.66 184.35 152.79C185.72 153.03 187.47 152.25 187.58 151.12C187.66 150.25 186.76 149.34 185.7 149.03L185.63 148.72C186.651 148.606 187.657 148.381 188.63 148.05L190.34 150.7C189.45 151.22 188.78 152.16 189.02 152.97C189.26 153.78 190.67 154.31 191.68 154.14C193.07 153.9 194.35 152.46 194.01 151.42C193.77 150.66 192.72 150.25 191.73 150.28L190.73 147.17C191.424 146.807 192.093 146.396 192.73 145.94L194.65 147.94C194.462 148.14 194.328 148.384 194.261 148.65C194.195 148.916 194.198 149.195 194.27 149.46C194.483 149.87 194.831 150.194 195.256 150.376C195.681 150.559 196.156 150.588 196.6 150.46C197.93 150.07 198.6 148.14 197.98 147.35C197.717 147.123 197.397 146.974 197.054 146.92C196.711 146.865 196.36 146.907 196.04 147.04L194.11 144.91C194.666 144.431 195.197 143.924 195.7 143.39L199.09 145.95C198.52 146.95 198.37 148.25 198.99 148.85C199.61 149.45 201.46 149.14 202.43 148.28C203.69 147.16 204.12 144.95 203.24 144.18C202.51 143.56 201 144 200.03 144.8L196.88 142.03C197.32 141.47 197.72 140.92 198.07 140.4L199.73 140.85C199.622 141.259 199.68 141.693 199.89 142.06C200.099 142.398 200.416 142.656 200.79 142.792C201.164 142.928 201.572 142.935 201.95 142.81C203.16 142.32 203.36 139.89 202.46 139.28C202.129 139.133 201.761 139.089 201.405 139.153C201.048 139.217 200.719 139.387 200.46 139.64L198.85 139.16C199.371 138.304 199.828 137.412 200.22 136.49C200.22 136.49 200.3 136.12 200.4 135.49L203 136.42C202.743 136.918 202.645 137.483 202.718 138.039C202.791 138.595 203.033 139.115 203.41 139.53C203.813 139.828 204.296 139.999 204.797 140.021C205.297 140.042 205.793 139.913 206.22 139.65C207.96 138.57 207.9 135.16 206.61 134.42C205.77 133.94 204.38 134.55 203.61 135.42L200.61 133.8C200.61 133.55 200.61 133.3 200.68 133.03C201.187 133.024 201.686 132.899 202.136 132.664C202.586 132.43 202.975 132.093 203.27 131.68C204.35 130.14 203.76 127.61 202.55 127.23C202.215 127.183 201.873 127.215 201.552 127.323C201.231 127.43 200.939 127.611 200.7 127.85C200.7 127.41 200.62 126.96 200.56 126.51L203.45 125.33ZM164.56 132.14L164.17 132.35C164.316 132.252 164.453 132.141 164.58 132.02L164.56 132.14Z" fill="white"/>
<path d="M179.91 127.1C181.147 127.1 182.15 126.097 182.15 124.86C182.15 123.623 181.147 122.62 179.91 122.62C178.673 122.62 177.67 123.623 177.67 124.86C177.67 126.097 178.673 127.1 179.91 127.1Z" fill="#A01010"/>
<path d="M177.48 139.19C178.822 139.19 179.91 138.102 179.91 136.76C179.91 135.418 178.822 134.33 177.48 134.33C176.138 134.33 175.05 135.418 175.05 136.76C175.05 138.102 176.138 139.19 177.48 139.19Z" fill="#A01010"/>
<path d="M174.06 124.18C175.297 124.18 176.3 123.177 176.3 121.94C176.3 120.703 175.297 119.7 174.06 119.7C172.823 119.7 171.82 120.703 171.82 121.94C171.82 123.177 172.823 124.18 174.06 124.18Z" fill="#A01010"/>
<path d="M170.05 137.92C171.121 137.92 171.99 137.051 171.99 135.98C171.99 134.909 171.121 134.04 170.05 134.04C168.979 134.04 168.11 134.909 168.11 135.98C168.11 137.051 168.979 137.92 170.05 137.92Z" fill="#A01010"/>
<path d="M175.05 132.29C175.878 132.29 176.55 131.618 176.55 130.79C176.55 129.962 175.878 129.29 175.05 129.29C174.222 129.29 173.55 129.962 173.55 130.79C173.55 131.618 174.222 132.29 175.05 132.29Z" fill="#A01010"/>
<path d="M168.95 129.83C169.563 129.83 170.06 129.333 170.06 128.72C170.06 128.107 169.563 127.61 168.95 127.61C168.337 127.61 167.84 128.107 167.84 128.72C167.84 129.333 168.337 129.83 168.95 129.83Z" fill="#A01010"/>
<path d="M176.16 117.73C176.773 117.73 177.27 117.233 177.27 116.62C177.27 116.007 176.773 115.51 176.16 115.51C175.547 115.51 175.05 116.007 175.05 116.62C175.05 117.233 175.547 117.73 176.16 117.73Z" fill="#A01010"/>
<path d="M181.65 132.25C182.456 132.25 183.11 131.596 183.11 130.79C183.11 129.984 182.456 129.33 181.65 129.33C180.844 129.33 180.19 129.984 180.19 130.79C180.19 131.596 180.844 132.25 181.65 132.25Z" fill="#A01010"/>
<path d="M173.59 142.56C174.396 142.56 175.05 141.906 175.05 141.1C175.05 140.294 174.396 139.64 173.59 139.64C172.784 139.64 172.13 140.294 172.13 141.1C172.13 141.906 172.784 142.56 173.59 142.56Z" fill="#A01010"/>
<path d="M194.95 126.32C195.756 126.32 196.41 125.666 196.41 124.86C196.41 124.054 195.756 123.4 194.95 123.4C194.144 123.4 193.49 124.054 193.49 124.86C193.49 125.666 194.144 126.32 194.95 126.32Z" fill="#A01010"/>
<path d="M196.42 132.25C197.226 132.25 197.88 131.596 197.88 130.79C197.88 129.984 197.226 129.33 196.42 129.33C195.614 129.33 194.96 129.984 194.96 130.79C194.96 131.596 195.614 132.25 196.42 132.25Z" fill="#A01010"/>
<path d="M193.4 141.1C194.206 141.1 194.86 140.446 194.86 139.64C194.86 138.834 194.206 138.18 193.4 138.18C192.594 138.18 191.94 138.834 191.94 139.64C191.94 140.446 192.594 141.1 193.4 141.1Z" fill="#A01010"/>
<path d="M179.57 145.72C180.376 145.72 181.03 145.066 181.03 144.26C181.03 143.454 180.376 142.8 179.57 142.8C178.764 142.8 178.11 143.454 178.11 144.26C178.11 145.066 178.764 145.72 179.57 145.72Z" fill="#A01010"/>
<path d="M186.25 143.48C187.564 143.48 188.63 142.414 188.63 141.1C188.63 139.786 187.564 138.72 186.25 138.72C184.936 138.72 183.87 139.786 183.87 141.1C183.87 142.414 184.936 143.48 186.25 143.48Z" fill="#A01010"/>
<path d="M191.01 135.55C192.324 135.55 193.39 134.484 193.39 133.17C193.39 131.856 192.324 130.79 191.01 130.79C189.696 130.79 188.63 131.856 188.63 133.17C188.63 134.484 189.696 135.55 191.01 135.55Z" fill="#A01010"/>
<path d="M187.05 127.87C187.928 127.87 188.64 127.158 188.64 126.28C188.64 125.402 187.928 124.69 187.05 124.69C186.172 124.69 185.46 125.402 185.46 126.28C185.46 127.158 186.172 127.87 187.05 127.87Z" fill="#A01010"/>
<path d="M191.94 119.78C192.514 119.78 192.98 119.314 192.98 118.74C192.98 118.166 192.514 117.7 191.94 117.7C191.366 117.7 190.9 118.166 190.9 118.74C190.9 119.314 191.366 119.78 191.94 119.78Z" fill="#A01010"/>
<path d="M181.04 118.24C181.366 118.24 181.63 117.976 181.63 117.65C181.63 117.324 181.366 117.06 181.04 117.06C180.714 117.06 180.45 117.324 180.45 117.65C180.45 117.976 180.714 118.24 181.04 118.24Z" fill="#A01010"/>
<path d="M186.92 121.94C187.804 121.94 188.52 121.224 188.52 120.34C188.52 119.456 187.804 118.74 186.92 118.74C186.036 118.74 185.32 119.456 185.32 120.34C185.32 121.224 186.036 121.94 186.92 121.94Z" fill="#A01010"/>
<path d="M139.45 118.36C139.495 118.349 139.536 118.328 139.573 118.3C139.609 118.272 139.64 118.237 139.662 118.196C139.685 118.156 139.699 118.112 139.703 118.066C139.708 118.02 139.704 117.974 139.69 117.93C139.678 117.885 139.658 117.843 139.63 117.806C139.602 117.77 139.567 117.739 139.527 117.715C139.487 117.692 139.443 117.677 139.397 117.671C139.351 117.665 139.305 117.668 139.26 117.68C137.88 118.06 136.16 115.68 135.39 114.4C135.788 114.12 136.105 113.741 136.31 113.3C137.46 113.09 139.74 112.94 140.36 114.04C140.406 114.121 140.482 114.181 140.572 114.207C140.661 114.233 140.757 114.223 140.84 114.18C140.88 114.157 140.916 114.127 140.944 114.09C140.972 114.054 140.993 114.012 141.005 113.967C141.017 113.922 141.02 113.876 141.014 113.83C141.008 113.784 140.993 113.74 140.97 113.7C140.17 112.25 137.75 112.39 136.54 112.55C136.639 111.959 136.545 111.352 136.27 110.82C135 108.001 134.499 104.895 134.82 101.82C135.05 99.71 141.98 95.97 145.7 93.95C150.14 91.55 153.98 89.48 155.7 87.1C159.5 81.79 156.98 74.19 156.7 73.34C156.479 72.7298 156.051 72.2167 155.49 71.89C155.484 71.1273 155.726 70.3832 156.18 69.77C156.807 69.0456 157.672 68.5701 158.62 68.43C158.712 68.4175 158.796 68.3699 158.853 68.2973C158.911 68.2246 158.939 68.1324 158.93 68.04C158.918 67.948 158.87 67.8644 158.797 67.8066C158.725 67.7489 158.632 67.7214 158.54 67.73C157.407 67.8897 156.372 68.4589 155.63 69.33C155.137 69.9845 154.851 70.7716 154.81 71.59C154.432 71.4867 154.037 71.4628 153.65 71.52C153.496 70.436 153.624 69.3306 154.02 68.31C154.1 68.02 154.18 67.73 154.26 67.42C154.456 66.8596 154.507 66.2588 154.409 65.6732C154.312 65.0877 154.068 64.5363 153.7 64.07C153.668 64.037 153.63 64.0108 153.588 63.9929C153.546 63.975 153.501 63.9657 153.455 63.9657C153.409 63.9657 153.364 63.975 153.322 63.9929C153.28 64.0108 153.242 64.037 153.21 64.07C153.146 64.1354 153.11 64.2234 153.11 64.315C153.11 64.4066 153.146 64.4946 153.21 64.56C153.494 64.9424 153.678 65.3893 153.746 65.8607C153.814 66.332 153.764 66.8129 153.6 67.26L153.36 68.13C152.923 69.2768 152.796 70.5183 152.99 71.73C152.72 71.8379 152.47 71.99 152.25 72.18C151.299 71.7627 150.462 71.1222 149.811 70.3127C149.16 69.5032 148.714 68.5487 148.51 67.53C148.495 67.4379 148.445 67.3552 148.371 67.2992C148.296 67.2433 148.203 67.2185 148.11 67.23C148.019 67.2471 147.938 67.2976 147.882 67.3716C147.827 67.4457 147.801 67.5379 147.81 67.63C147.879 67.9872 147.976 68.3383 148.1 68.68C148.68 70.3075 149.831 71.6687 151.34 72.51C146.85 72.66 145.74 70.92 145.72 70.88C145.674 70.8015 145.599 70.7439 145.511 70.7197C145.424 70.6954 145.33 70.7063 145.25 70.75C145.177 70.7886 145.12 70.8525 145.091 70.9298C145.061 71.0071 145.061 71.0925 145.09 71.17C145.086 71.1898 145.086 71.2102 145.09 71.23C145.09 71.32 146.37 73.42 151.48 73.23C151.214 73.8659 151.189 74.5771 151.41 75.23C151.92 76.67 152.96 81.33 151.16 83.85C150.21 85.17 146.26 87.31 143.08 89.03C136.27 92.71 129.84 96.19 129.29 101.23C128.922 104.738 129.356 108.284 130.56 111.6C130.783 112.24 131.047 112.864 131.35 113.47C131.376 113.502 131.399 113.535 131.42 113.57C129.85 114.24 127.68 115.86 128.32 118.36C128.348 118.449 128.41 118.523 128.492 118.566C128.575 118.609 128.671 118.618 128.76 118.59C128.849 118.562 128.923 118.5 128.966 118.418C129.009 118.335 129.018 118.239 128.99 118.15C128.36 115.72 130.99 114.45 131.86 114.15C132.225 114.507 132.682 114.756 133.18 114.87C133.53 116.42 133.79 118.87 132.82 119.2C132.776 119.214 132.735 119.236 132.7 119.265C132.664 119.295 132.635 119.331 132.613 119.372C132.592 119.413 132.579 119.458 132.575 119.504C132.571 119.55 132.576 119.596 132.59 119.64V119.64C132.624 119.724 132.688 119.792 132.769 119.831C132.851 119.87 132.944 119.877 133.03 119.85C134.63 119.36 134.23 116.39 133.92 114.93C134.224 114.911 134.524 114.847 134.81 114.74C135.42 115.85 137.42 118.91 139.45 118.36Z" fill="white"/>
<path d="M110.67 96.05C110.653 96.0719 110.641 96.0971 110.634 96.1239C110.628 96.1508 110.627 96.1787 110.631 96.206C110.636 96.2332 110.646 96.2592 110.662 96.2823C110.677 96.3053 110.697 96.325 110.72 96.34C110.759 96.3773 110.811 96.3981 110.865 96.3981C110.919 96.3981 110.971 96.3773 111.01 96.34C111.51 95.64 113.21 96.06 114.06 96.34C113.98 96.6211 113.98 96.9189 114.06 97.2C113.6 97.74 112.61 98.68 111.9 98.41C111.848 98.3904 111.791 98.392 111.74 98.4145C111.69 98.437 111.65 98.4785 111.63 98.53C111.619 98.5555 111.613 98.583 111.613 98.6108C111.613 98.6386 111.619 98.6661 111.63 98.6915C111.642 98.7169 111.658 98.7396 111.679 98.7583C111.699 98.777 111.724 98.7912 111.75 98.8C112.67 99.16 113.75 98.18 114.24 97.64C114.421 97.9488 114.693 98.1935 115.02 98.34C116.694 99.1529 118.12 100.399 119.15 101.95C119.85 103.01 118.08 107.4 117.15 109.75C116.02 112.57 115.04 114.99 115.15 116.75C115.43 120.66 119.51 123.21 119.97 123.49C120.31 123.683 120.705 123.753 121.09 123.69C121.39 124.035 121.563 124.473 121.58 124.93C121.574 125.507 121.357 126.062 120.97 126.49C120.95 126.51 120.934 126.533 120.923 126.559C120.913 126.584 120.907 126.612 120.907 126.64C120.907 126.668 120.913 126.696 120.923 126.721C120.934 126.747 120.95 126.77 120.97 126.79C120.989 126.81 121.011 126.825 121.036 126.836C121.061 126.847 121.088 126.852 121.115 126.852C121.142 126.852 121.169 126.847 121.194 126.836C121.219 126.825 121.241 126.81 121.26 126.79C121.725 126.285 121.985 125.626 121.99 124.94C121.971 124.449 121.803 123.975 121.51 123.58C121.723 123.483 121.913 123.343 122.07 123.17C122.556 123.611 122.92 124.169 123.13 124.79L123.36 125.3C123.485 125.634 123.693 125.931 123.964 126.164C124.235 126.396 124.561 126.557 124.91 126.63C124.964 126.633 125.017 126.617 125.059 126.584C125.102 126.551 125.13 126.503 125.14 126.45C125.146 126.393 125.129 126.336 125.094 126.292C125.058 126.247 125.007 126.217 124.95 126.21C124.674 126.143 124.418 126.009 124.207 125.818C123.996 125.628 123.835 125.388 123.74 125.12C123.66 124.95 123.59 124.78 123.52 124.62C123.281 123.921 122.864 123.297 122.31 122.81C122.39 122.656 122.448 122.491 122.48 122.32C123.078 122.141 123.711 122.109 124.323 122.228C124.936 122.346 125.512 122.611 126 123C126.02 123.02 126.043 123.036 126.069 123.047C126.094 123.057 126.122 123.063 126.15 123.063C126.178 123.063 126.206 123.057 126.231 123.047C126.257 123.036 126.28 123.02 126.3 123C126.32 122.981 126.335 122.959 126.346 122.934C126.357 122.909 126.362 122.882 126.362 122.855C126.362 122.828 126.357 122.801 126.346 122.776C126.335 122.751 126.32 122.729 126.3 122.71C126.139 122.562 125.961 122.435 125.77 122.33C124.869 121.791 123.801 121.603 122.77 121.8C124.77 120.01 125.97 120.39 126 120.4C126.052 120.42 126.109 120.418 126.16 120.396C126.21 120.373 126.25 120.332 126.27 120.28C126.289 120.233 126.29 120.181 126.273 120.133C126.257 120.085 126.224 120.045 126.18 120.02V120.02C126.12 120.02 124.74 119.49 122.46 121.55C122.346 121.136 122.082 120.78 121.72 120.55C120.93 120.08 118.66 118.32 118.53 116.47C118.46 115.47 119.47 112.99 120.28 110.98C122.02 106.66 123.66 102.59 121.99 100.05C120.813 98.2857 119.25 96.8119 117.42 95.74C117.074 95.5277 116.713 95.3406 116.34 95.18H116.27C116.74 94.27 117.12 92.68 115.87 91.78C115.822 91.7495 115.764 91.7392 115.709 91.7514C115.654 91.7636 115.605 91.7973 115.575 91.845C115.544 91.8927 115.534 91.9506 115.546 92.006C115.559 92.0613 115.592 92.1095 115.64 92.14C116.86 93.02 116.12 94.62 115.86 95.14C115.553 95.1097 115.244 95.1688 114.97 95.31C114.22 94.72 113.15 93.67 113.48 93.16C113.51 93.1135 113.521 93.057 113.51 93.0026C113.499 92.9483 113.466 92.9006 113.42 92.87C113.374 92.8427 113.32 92.8337 113.268 92.8449C113.216 92.856 113.17 92.8864 113.14 92.93C112.58 93.78 113.91 94.99 114.61 95.55C114.475 95.675 114.361 95.8201 114.27 95.98C113.49 95.66 111.39 95 110.67 96.05Z" fill="white"/>
<path d="M230.67 112C229.926 111.997 229.184 111.934 228.45 111.81C221.89 110.71 219.21 105.52 217.61 101.12L217.31 100.27C216.61 98.27 215.75 95.86 214.31 94.68C213.73 94.21 213.25 94.18 211.95 95.2C210.657 96.4364 208.939 97.1305 207.15 97.14C199.63 97.07 193.53 91.85 192.97 84.99C192.77 82.56 192.73 78.99 194.63 76.39C195.072 75.7859 195.601 75.2501 196.2 74.8C200.41 71.62 208.59 68.4 212.6 73.27C213.265 74.1108 213.885 74.9853 214.46 75.89C215.67 77.72 216.8 79.44 218.59 80.42C220.71 81.57 222.87 79.94 225.69 77.5C226.636 76.6107 227.668 75.8169 228.77 75.13C232.89 72.8 237.67 72.98 242.25 75.62C248.03 78.95 252.1 85.44 252.16 91.41C252.16 96.62 249.58 101.71 244.76 105.74C239.94 109.77 235.06 112 230.67 112ZM213.57 92.25C214.324 92.2666 215.05 92.546 215.62 93.04C217.54 94.59 218.51 97.35 219.3 99.57L219.59 100.4C221.67 106.13 224.52 109.01 228.8 109.73C233.08 110.45 238.07 108.58 243.4 104.12C246.46 101.56 250.09 97.28 250.04 91.43C250.04 86.25 246.27 80.37 241.19 77.43C237.28 75.18 233.19 75.01 229.79 76.96C228.816 77.5839 227.899 78.2934 227.05 79.08C224.42 81.36 221.14 84.2 217.57 82.26C215.32 81 214 79 212.69 77C212.161 76.1538 211.583 75.3391 210.96 74.56C207.77 70.68 200.48 74.15 197.45 76.43C197.023 76.757 196.646 77.1444 196.33 77.58C194.83 79.64 194.89 82.67 195.06 84.77C195.53 90.53 200.73 94.92 207.16 94.98C208.466 94.9489 209.711 94.4194 210.64 93.5C211.448 92.7627 212.479 92.3158 213.57 92.23V92.25Z" fill="white"/>
<path d="M225 97.33C226.165 97.33 227.11 96.3853 227.11 95.22C227.11 94.0547 226.165 93.11 225 93.11C223.835 93.11 222.89 94.0547 222.89 95.22C222.89 96.3853 223.835 97.33 225 97.33Z" fill="white"/>
<path d="M225.11 105.33C226.275 105.33 227.22 104.385 227.22 103.22C227.22 102.055 226.275 101.11 225.11 101.11C223.945 101.11 223 102.055 223 103.22C223 104.385 223.945 105.33 225.11 105.33Z" fill="white"/>
<path d="M232.95 106.75C233.767 106.75 234.43 106.087 234.43 105.27C234.43 104.453 233.767 103.79 232.95 103.79C232.133 103.79 231.47 104.453 231.47 105.27C231.47 106.087 232.133 106.75 232.95 106.75Z" fill="white"/>
<path d="M240.98 103.37C241.797 103.37 242.46 102.707 242.46 101.89C242.46 101.073 241.797 100.41 240.98 100.41C240.163 100.41 239.5 101.073 239.5 101.89C239.5 102.707 240.163 103.37 240.98 103.37Z" fill="white"/>
<path d="M243.53 94.46C244.11 94.46 244.58 93.9899 244.58 93.41C244.58 92.8301 244.11 92.36 243.53 92.36C242.95 92.36 242.48 92.8301 242.48 93.41C242.48 93.9899 242.95 94.46 243.53 94.46Z" fill="white"/>
<path d="M232.05 80.22C232.63 80.22 233.1 79.7499 233.1 79.17C233.1 78.5901 232.63 78.12 232.05 78.12C231.47 78.12 231 78.5901 231 79.17C231 79.7499 231.47 80.22 232.05 80.22Z" fill="white"/>
<path d="M241.45 86.07C242.715 86.07 243.74 85.0447 243.74 83.78C243.74 82.5153 242.715 81.49 241.45 81.49C240.185 81.49 239.16 82.5153 239.16 83.78C239.16 85.0447 240.185 86.07 241.45 86.07Z" fill="white"/>
<path d="M233.95 97.52C235.215 97.52 236.24 96.4947 236.24 95.23C236.24 93.9653 235.215 92.94 233.95 92.94C232.685 92.94 231.66 93.9653 231.66 95.23C231.66 96.4947 232.685 97.52 233.95 97.52Z" fill="white"/>
<path d="M218.78 89.69C219.548 89.69 220.17 89.0677 220.17 88.3C220.17 87.5323 219.548 86.91 218.78 86.91C218.012 86.91 217.39 87.5323 217.39 88.3C217.39 89.0677 218.012 89.69 218.78 89.69Z" fill="white"/>
<path d="M207.88 92.04C208.797 92.04 209.54 91.2968 209.54 90.38C209.54 89.4632 208.797 88.72 207.88 88.72C206.963 88.72 206.22 89.4632 206.22 90.38C206.22 91.2968 206.963 92.04 207.88 92.04Z" fill="white"/>
<path d="M202.01 91.9C202.557 91.9 203 91.4568 203 90.91C203 90.3632 202.557 89.92 202.01 89.92C201.463 89.92 201.02 90.3632 201.02 90.91C201.02 91.4568 201.463 91.9 202.01 91.9Z" fill="white"/>
<path d="M198.53 87.87C199.287 87.87 199.9 87.2566 199.9 86.5C199.9 85.7434 199.287 85.13 198.53 85.13C197.773 85.13 197.16 85.7434 197.16 86.5C197.16 87.2566 197.773 87.87 198.53 87.87Z" fill="white"/>
<path d="M201.15 78.31C201.907 78.31 202.52 77.6966 202.52 76.94C202.52 76.1834 201.907 75.57 201.15 75.57C200.393 75.57 199.78 76.1834 199.78 76.94C199.78 77.6966 200.393 78.31 201.15 78.31Z" fill="white"/>
<path d="M209.01 79.88C209.767 79.88 210.38 79.2666 210.38 78.51C210.38 77.7534 209.767 77.14 209.01 77.14C208.253 77.14 207.64 77.7534 207.64 78.51C207.64 79.2666 208.253 79.88 209.01 79.88Z" fill="white"/>
<path d="M212.88 87.02C214.112 87.02 215.11 86.0216 215.11 84.79C215.11 83.5584 214.112 82.56 212.88 82.56C211.648 82.56 210.65 83.5584 210.65 84.79C210.65 86.0216 211.648 87.02 212.88 87.02Z" fill="white"/>
<path d="M204.09 86.05C205.951 86.05 207.46 84.5412 207.46 82.68C207.46 80.8188 205.951 79.31 204.09 79.31C202.229 79.31 200.72 80.8188 200.72 82.68C200.72 84.5412 202.229 86.05 204.09 86.05Z" fill="white"/>
<path d="M201.9 81.07C202.16 80.65 203.01 80.18 203.44 80.43C203.87 80.68 203.71 81.57 203.44 82C203.17 82.43 202.44 83 202.02 82.74C201.6 82.48 201.65 81.5 201.9 81.07Z" fill="#A01010"/>
<path d="M229.57 91.29C231.879 91.29 233.75 89.4185 233.75 87.11C233.75 84.8014 231.879 82.93 229.57 82.93C227.261 82.93 225.39 84.8014 225.39 87.11C225.39 89.4185 227.261 91.29 229.57 91.29Z" fill="white"/>
<path d="M226.85 85.13C227.17 84.6 228.23 84.02 228.76 84.33C229.29 84.64 229.09 85.74 228.76 86.27C228.43 86.8 227.54 87.51 227.01 87.19C226.48 86.87 226.54 85.66 226.85 85.13Z" fill="#A01010"/>
<path d="M223.33 146.365L223.315 146.317C223.038 145.432 222.096 144.938 221.21 145.215L218.385 146.099C217.499 146.376 217.006 147.318 217.283 148.204L217.298 148.252C217.575 149.137 218.517 149.63 219.403 149.353L222.228 148.47C223.114 148.193 223.607 147.25 223.33 146.365Z" fill="white"/>
<path d="M229.164 147.993L229.182 147.946C229.526 147.085 229.107 146.107 228.245 145.763L225.496 144.665C224.635 144.321 223.657 144.741 223.313 145.603L223.294 145.649C222.95 146.511 223.37 147.488 224.232 147.832L226.98 148.93C227.842 149.274 228.82 148.855 229.164 147.993Z" fill="white"/>
<path d="M233.117 153.249L233.156 153.217C233.881 152.638 233.998 151.58 233.418 150.856L231.313 148.225C230.733 147.5 229.676 147.383 228.951 147.963L228.912 147.994C228.188 148.574 228.07 149.631 228.65 150.355L230.756 152.987C231.336 153.711 232.393 153.828 233.117 153.249Z" fill="white"/>
<path d="M239.12 155.979L239.14 155.933C239.525 155.089 239.152 154.093 238.307 153.708L235.24 152.312C234.395 151.928 233.399 152.301 233.015 153.146L232.994 153.191C232.61 154.036 232.983 155.032 233.827 155.416L236.895 156.812C237.739 157.196 238.735 156.823 239.12 155.979Z" fill="white"/>
<path d="M245.671 154.994L245.665 154.944C245.552 154.023 244.714 153.368 243.793 153.481L240.448 153.892C239.527 154.005 238.872 154.843 238.985 155.764L238.991 155.814C239.104 156.735 239.943 157.39 240.864 157.277L244.208 156.866C245.129 156.753 245.784 155.915 245.671 154.994Z" fill="white"/>
<path d="M250.477 150.553L250.442 150.517C249.798 149.849 248.735 149.83 248.067 150.473L245.64 152.812C244.972 153.456 244.952 154.519 245.596 155.187L245.631 155.223C246.275 155.892 247.338 155.911 248.006 155.267L250.433 152.929C251.101 152.285 251.121 151.222 250.477 150.553Z" fill="white"/>
<path d="M217.238 147.956L217.207 147.917C216.627 147.192 215.57 147.075 214.845 147.655L212.136 149.823C211.412 150.403 211.294 151.46 211.874 152.184L211.905 152.223C212.485 152.948 213.542 153.065 214.267 152.485L216.976 150.317C217.7 149.737 217.818 148.68 217.238 147.956Z" fill="white"/>
<path d="M212.704 152.359L212.658 152.341C211.796 151.997 210.819 152.416 210.475 153.278L209.188 156.5C208.844 157.362 209.263 158.339 210.125 158.684L210.171 158.702C211.033 159.046 212.01 158.627 212.355 157.765L213.642 154.542C213.986 153.681 213.566 152.703 212.704 152.359Z" fill="white"/>
<path d="M210.945 158.606L210.901 158.629C210.074 159.05 209.746 160.062 210.168 160.889L211.746 163.979C212.168 164.806 213.179 165.134 214.006 164.712L214.05 164.689C214.877 164.268 215.205 163.256 214.783 162.429L213.205 159.339C212.784 158.512 211.772 158.184 210.945 158.606Z" fill="white"/>
<path d="M214.613 163.579L214.59 163.623C214.16 164.445 214.477 165.46 215.299 165.89L218.374 167.5C219.196 167.93 220.211 167.612 220.641 166.79L220.664 166.746C221.095 165.924 220.777 164.909 219.955 164.478L216.881 162.869C216.059 162.439 215.043 162.756 214.613 163.579Z" fill="white"/>
<path d="M220.357 166.59L220.333 166.634C219.903 167.457 220.221 168.472 221.043 168.902L224.117 170.511C224.939 170.942 225.954 170.624 226.384 169.802L226.408 169.758C226.838 168.936 226.52 167.92 225.698 167.49L222.624 165.881C221.802 165.451 220.787 165.768 220.357 166.59Z" fill="white"/>
<path d="M226.192 169.629L226.169 169.674C225.739 170.496 226.056 171.511 226.878 171.941L229.953 173.551C230.775 173.981 231.79 173.663 232.22 172.841L232.244 172.797C232.674 171.975 232.356 170.96 231.534 170.529L228.46 168.92C227.638 168.49 226.623 168.807 226.192 169.629Z" fill="white"/>
<path d="M231.996 172.671L231.972 172.715C231.542 173.537 231.86 174.552 232.682 174.983L235.756 176.592C236.578 177.022 237.593 176.705 238.023 175.883L238.047 175.838C238.477 175.016 238.159 174.001 237.337 173.571L234.263 171.961C233.441 171.531 232.426 171.849 231.996 172.671Z" fill="white"/>
<path d="M237.663 176.291L237.619 176.313C236.792 176.735 236.464 177.747 236.886 178.573L238.464 181.664C238.885 182.491 239.897 182.819 240.724 182.397L240.768 182.374C241.595 181.952 241.923 180.94 241.501 180.114L239.923 177.023C239.502 176.197 238.49 175.869 237.663 176.291Z" fill="white"/>
<path d="M241.894 182.04L241.849 182.019C241.006 181.631 240.008 182 239.62 182.843L238.17 185.995C237.782 186.838 238.151 187.836 238.994 188.223L239.039 188.244C239.882 188.632 240.88 188.263 241.268 187.42L242.718 184.268C243.106 183.425 242.737 182.428 241.894 182.04Z" fill="white"/>
<path d="M238.936 187.822L238.908 187.781C238.373 187.023 237.325 186.841 236.567 187.375L233.73 189.373C232.971 189.908 232.789 190.956 233.324 191.714L233.353 191.755C233.887 192.514 234.935 192.696 235.693 192.161L238.53 190.163C239.289 189.629 239.471 188.581 238.936 187.822Z" fill="white"/>
<path d="M233.322 190.774L233.34 190.728C233.668 189.86 233.231 188.89 232.363 188.562L229.118 187.334C228.25 187.005 227.28 187.442 226.952 188.31L226.934 188.357C226.606 189.225 227.043 190.194 227.911 190.523L231.156 191.751C232.024 192.079 232.994 191.642 233.322 190.774Z" fill="white"/>
<path d="M227.196 187.973L227.231 187.938C227.891 187.286 227.898 186.222 227.245 185.562L224.806 183.094C224.154 182.434 223.09 182.428 222.431 183.08L222.395 183.115C221.735 183.767 221.729 184.831 222.381 185.491L224.82 187.959C225.472 188.619 226.536 188.625 227.196 187.973Z" fill="white"/>
<path d="M223.136 183.299L223.159 183.255C223.589 182.433 223.271 181.417 222.449 180.987L219.375 179.378C218.553 178.947 217.538 179.265 217.108 180.087L217.084 180.131C216.654 180.953 216.972 181.969 217.794 182.399L220.868 184.008C221.69 184.438 222.705 184.121 223.136 183.299Z" fill="white"/>
<path d="M217.206 180.19L217.204 180.141C217.166 179.213 216.383 178.493 215.456 178.531L211.989 178.675C211.062 178.713 210.341 179.496 210.38 180.423L210.382 180.473C210.42 181.4 211.203 182.12 212.13 182.082L215.597 181.939C216.524 181.9 217.244 181.118 217.206 180.19Z" fill="white"/>
<path d="M210.513 180.421L210.478 180.385C209.826 179.726 208.762 179.719 208.102 180.371L205.634 182.81C204.974 183.463 204.968 184.526 205.62 185.186L205.655 185.222C206.307 185.882 207.371 185.888 208.031 185.236L210.499 182.797C211.159 182.145 211.165 181.081 210.513 180.421Z" fill="white"/>
<path d="M147.48 181.64C145.884 181.643 144.303 181.331 142.829 180.72C141.354 180.109 140.016 179.211 138.89 178.08L126.33 165.53C124.057 163.249 122.781 160.16 122.781 156.94C122.781 153.72 124.057 150.631 126.33 148.35L126.51 148.17C127.638 147.041 128.977 146.145 130.45 145.534C131.924 144.923 133.504 144.609 135.1 144.609C136.696 144.609 138.276 144.923 139.75 145.534C141.223 146.145 142.562 147.041 143.69 148.17L156.25 160.72C157.379 161.848 158.275 163.187 158.886 164.66C159.497 166.134 159.811 167.714 159.811 169.31C159.811 170.906 159.497 172.486 158.886 173.96C158.275 175.433 157.379 176.772 156.25 177.9L156.07 178.08C154.943 179.21 153.604 180.106 152.13 180.717C150.656 181.327 149.076 181.641 147.48 181.64V181.64ZM135.1 146.72C133.781 146.718 132.475 146.976 131.256 147.481C130.038 147.985 128.931 148.726 128 149.66L127.82 149.84C126.883 150.77 126.139 151.876 125.631 153.094C125.123 154.313 124.862 155.62 124.862 156.94C124.862 158.26 125.123 159.567 125.631 160.786C126.139 162.004 126.883 163.11 127.82 164.04L140.38 176.59C141.31 177.527 142.416 178.271 143.634 178.779C144.853 179.287 146.16 179.548 147.48 179.548C148.8 179.548 150.107 179.287 151.326 178.779C152.544 178.271 153.65 177.527 154.58 176.59L154.76 176.42C156.641 174.534 157.698 171.979 157.698 169.315C157.698 166.651 156.641 164.096 154.76 162.21L142.2 149.66C141.271 148.723 140.165 147.981 138.946 147.476C137.727 146.971 136.419 146.714 135.1 146.72V146.72Z" fill="white"/>
<path d="M147.57 177.56C145.437 177.56 143.391 176.715 141.88 175.21L129.21 162.53C127.707 161.02 126.864 158.976 126.864 156.845C126.864 154.714 127.707 152.67 129.21 151.16L129.33 151.04C130.074 150.289 130.959 149.692 131.935 149.285C132.911 148.878 133.958 148.669 135.015 148.669C136.072 148.669 137.119 148.878 138.095 149.285C139.071 149.692 139.956 150.289 140.7 151.04L153.37 163.71C154.121 164.454 154.718 165.339 155.125 166.315C155.532 167.291 155.741 168.338 155.741 169.395C155.741 170.452 155.532 171.499 155.125 172.475C154.718 173.451 154.121 174.336 153.37 175.08L153.25 175.2C152.506 175.949 151.621 176.543 150.646 176.948C149.671 177.353 148.626 177.561 147.57 177.56ZM135 150.23C134.148 150.23 133.304 150.397 132.516 150.723C131.728 151.049 131.013 151.527 130.41 152.13L130.29 152.25C129.071 153.471 128.387 155.125 128.387 156.85C128.387 158.575 129.071 160.229 130.29 161.45L143 174.12C144.222 175.336 145.876 176.019 147.6 176.019C149.324 176.019 150.978 175.336 152.2 174.12L152.31 174C153.529 172.779 154.213 171.125 154.213 169.4C154.213 167.675 153.529 166.021 152.31 164.8L139.64 152.13C139.031 151.522 138.307 151.041 137.51 150.715C136.714 150.389 135.861 150.224 135 150.23V150.23Z" fill="white"/>
<path d="M139.15 156.47C139.63 156.47 140.02 156.08 140.02 155.6C140.02 155.12 139.63 154.73 139.15 154.73C138.67 154.73 138.28 155.12 138.28 155.6C138.28 156.08 138.67 156.47 139.15 156.47Z" fill="white"/>
<path d="M134.78 157.1C135.26 157.1 135.65 156.71 135.65 156.23C135.65 155.75 135.26 155.36 134.78 155.36C134.3 155.36 133.91 155.75 133.91 156.23C133.91 156.71 134.3 157.1 134.78 157.1Z" fill="white"/>
<path d="M131.4 157.85C131.88 157.85 132.27 157.46 132.27 156.98C132.27 156.5 131.88 156.11 131.4 156.11C130.92 156.11 130.53 156.5 130.53 156.98C130.53 157.46 130.92 157.85 131.4 157.85Z" fill="white"/>
<path d="M133.65 159.97C134.13 159.97 134.52 159.58 134.52 159.1C134.52 158.62 134.13 158.23 133.65 158.23C133.17 158.23 132.78 158.62 132.78 159.1C132.78 159.58 133.17 159.97 133.65 159.97Z" fill="white"/>
<path d="M136.13 165.21C136.61 165.21 137 164.82 137 164.34C137 163.86 136.61 163.47 136.13 163.47C135.65 163.47 135.26 163.86 135.26 164.34C135.26 164.82 135.65 165.21 136.13 165.21Z" fill="white"/>
<path d="M146.5 163.47C146.98 163.47 147.37 163.08 147.37 162.6C147.37 162.12 146.98 161.73 146.5 161.73C146.02 161.73 145.63 162.12 145.63 162.6C145.63 163.08 146.02 163.47 146.5 163.47Z" fill="white"/>
<path d="M145.96 170.25C146.44 170.25 146.83 169.86 146.83 169.38C146.83 168.9 146.44 168.51 145.96 168.51C145.48 168.51 145.09 168.9 145.09 169.38C145.09 169.86 145.48 170.25 145.96 170.25Z" fill="white"/>
<path d="M149.01 167.49C149.49 167.49 149.88 167.1 149.88 166.62C149.88 166.14 149.49 165.75 149.01 165.75C148.53 165.75 148.14 166.14 148.14 166.62C148.14 167.1 148.53 167.49 149.01 167.49Z" fill="white"/>
<path d="M150.1 173.1C150.58 173.1 150.97 172.71 150.97 172.23C150.97 171.75 150.58 171.36 150.1 171.36C149.62 171.36 149.23 171.75 149.23 172.23C149.23 172.71 149.62 173.1 150.1 173.1Z" fill="white"/>
<path d="M146.14 173.84C146.621 173.84 147.01 173.45 147.01 172.97C147.01 172.49 146.621 172.1 146.14 172.1C145.66 172.1 145.27 172.49 145.27 172.97C145.27 173.45 145.66 173.84 146.14 173.84Z" fill="white"/>
<path d="M132.77 154.57C133.25 154.57 133.64 154.18 133.64 153.7C133.64 153.22 133.25 152.83 132.77 152.83C132.29 152.83 131.9 153.22 131.9 153.7C131.9 154.18 132.29 154.57 132.77 154.57Z" fill="white"/>
<path d="M136.02 153.18C136.5 153.18 136.89 152.79 136.89 152.31C136.89 151.83 136.5 151.44 136.02 151.44C135.54 151.44 135.15 151.83 135.15 152.31C135.15 152.79 135.54 153.18 136.02 153.18Z" fill="white"/>
<path d="M145.09 166.88H144.93C144.774 166.844 144.635 166.756 144.535 166.631C144.435 166.506 144.38 166.35 144.38 166.19C144.251 166.167 144.119 166.167 143.99 166.19C143.416 166.229 142.849 166.041 142.412 165.667C141.975 165.294 141.701 164.763 141.65 164.19C141.614 163.849 141.541 163.514 141.43 163.19C141.365 163.049 141.26 162.93 141.129 162.846C140.998 162.763 140.845 162.719 140.69 162.72C139.26 162.72 138.34 162.01 138.24 160.85C138.237 160.412 138.142 159.979 137.96 159.58C137.844 159.468 137.77 159.32 137.748 159.161C137.726 159.001 137.759 158.839 137.84 158.7C137.888 158.617 137.953 158.544 138.03 158.487C138.108 158.429 138.196 158.389 138.29 158.367C138.384 158.345 138.481 158.343 138.576 158.361C138.67 158.379 138.76 158.416 138.84 158.47C139.28 158.73 139.56 159.47 139.67 160.72C139.67 160.87 139.72 161.31 140.73 161.32C141.162 161.323 141.583 161.456 141.939 161.7C142.295 161.944 142.571 162.289 142.73 162.69C142.888 163.118 142.988 163.565 143.03 164.02C143.045 164.221 143.139 164.407 143.29 164.54C143.442 164.673 143.639 164.741 143.84 164.73C144.134 164.674 144.438 164.689 144.725 164.774C145.012 164.859 145.274 165.012 145.49 165.22C145.614 165.368 145.703 165.542 145.75 165.729C145.796 165.916 145.8 166.111 145.76 166.3C145.732 166.459 145.651 166.604 145.528 166.71C145.406 166.815 145.251 166.875 145.09 166.88V166.88Z" fill="white"/>
<path d="M144.2 194.49C144.036 194.489 143.878 194.432 143.75 194.33C142.48 193.234 141.681 191.69 141.52 190.02C141.532 189.226 141.717 188.444 142.062 187.729C142.408 187.014 142.905 186.383 143.52 185.88C145.98 183.58 149.1 183.88 152.08 186.59C153.004 187.467 154.226 187.964 155.5 187.98C156.021 187.994 156.539 187.894 157.018 187.686C157.496 187.479 157.924 187.17 158.27 186.78C158.905 186.074 159.288 185.177 159.36 184.23C159.402 183.537 159.294 182.844 159.044 182.197C158.794 181.55 158.407 180.964 157.91 180.48L155.56 178.1C155.493 178.035 155.441 177.957 155.405 177.871C155.368 177.785 155.35 177.693 155.35 177.6C155.35 177.507 155.368 177.415 155.405 177.329C155.441 177.243 155.493 177.165 155.56 177.1C155.693 176.968 155.873 176.894 156.06 176.894C156.247 176.894 156.427 176.968 156.56 177.1L158.91 179.49C159.552 180.116 160.049 180.874 160.369 181.711C160.688 182.549 160.822 183.446 160.76 184.34C160.662 185.588 160.156 186.768 159.32 187.7C158.842 188.236 158.254 188.662 157.597 188.95C156.939 189.238 156.228 189.381 155.51 189.37C153.889 189.355 152.335 188.726 151.16 187.61C149.46 186.04 146.92 184.61 144.51 186.9C144.048 187.268 143.672 187.733 143.408 188.261C143.144 188.79 142.998 189.369 142.98 189.96C143.115 191.235 143.734 192.409 144.71 193.24C144.853 193.362 144.942 193.536 144.957 193.723C144.972 193.911 144.912 194.097 144.79 194.24C144.719 194.326 144.629 194.394 144.526 194.438C144.423 194.481 144.311 194.499 144.2 194.49V194.49Z" fill="white"/>
<path d="M138.27 179.16C138.174 179.16 138.08 179.141 137.992 179.103C137.905 179.065 137.826 179.01 137.76 178.94C137.628 178.807 137.554 178.627 137.554 178.44C137.554 178.253 137.628 178.073 137.76 177.94L139.03 176.73C139.095 176.663 139.173 176.611 139.259 176.575C139.345 176.538 139.437 176.52 139.53 176.52C139.623 176.52 139.715 176.538 139.801 176.575C139.887 176.611 139.965 176.663 140.03 176.73C140.162 176.863 140.236 177.043 140.236 177.23C140.236 177.417 140.162 177.597 140.03 177.73L138.76 179C138.623 179.114 138.448 179.171 138.27 179.16V179.16Z" fill="white"/>
<path d="M147.47 183.18C147.377 183.179 147.286 183.159 147.201 183.122C147.115 183.085 147.039 183.031 146.974 182.964C146.91 182.897 146.86 182.818 146.827 182.732C146.793 182.645 146.777 182.553 146.78 182.46V180.71C146.801 180.537 146.884 180.378 147.014 180.263C147.144 180.148 147.311 180.084 147.485 180.084C147.659 180.084 147.826 180.148 147.956 180.263C148.086 180.378 148.169 180.537 148.19 180.71V182.46C148.191 182.555 148.174 182.649 148.138 182.737C148.102 182.825 148.049 182.905 147.982 182.972C147.915 183.039 147.835 183.092 147.747 183.128C147.659 183.164 147.565 183.181 147.47 183.18V183.18Z" fill="white"/>
<path d="M132 172.94C131.86 172.94 131.723 172.898 131.606 172.819C131.49 172.74 131.401 172.629 131.349 172.498C131.297 172.368 131.286 172.225 131.316 172.088C131.347 171.951 131.418 171.826 131.52 171.73L132.79 170.52C132.923 170.387 133.102 170.313 133.29 170.313C133.478 170.313 133.657 170.387 133.79 170.52C133.923 170.653 133.997 170.832 133.997 171.02C133.997 171.208 133.923 171.387 133.79 171.52L132.52 172.73C132.452 172.798 132.371 172.852 132.282 172.889C132.192 172.925 132.096 172.942 132 172.94V172.94Z" fill="white"/>
<path d="M125.76 166.88C125.568 166.876 125.385 166.797 125.25 166.66C125.183 166.595 125.131 166.517 125.095 166.431C125.058 166.345 125.04 166.253 125.04 166.16C125.04 166.067 125.058 165.975 125.095 165.889C125.131 165.803 125.183 165.725 125.25 165.66L126.52 164.44C126.653 164.308 126.833 164.234 127.02 164.234C127.207 164.234 127.387 164.308 127.52 164.44C127.587 164.505 127.639 164.583 127.675 164.669C127.712 164.755 127.73 164.847 127.73 164.94C127.73 165.033 127.712 165.125 127.675 165.211C127.639 165.297 127.587 165.375 127.52 165.44L126.25 166.65C126.123 166.788 125.947 166.871 125.76 166.88V166.88Z" fill="white"/>
<path d="M155.72 161.77C155.625 161.769 155.53 161.749 155.443 161.711C155.355 161.673 155.276 161.619 155.21 161.55C155.143 161.485 155.091 161.407 155.055 161.321C155.018 161.235 155 161.143 155 161.05C155 160.957 155.018 160.865 155.055 160.779C155.091 160.693 155.143 160.615 155.21 160.55L156.48 159.34C156.613 159.208 156.793 159.134 156.98 159.134C157.167 159.134 157.347 159.208 157.48 159.34C157.547 159.405 157.599 159.483 157.635 159.569C157.672 159.655 157.69 159.747 157.69 159.84C157.69 159.933 157.672 160.025 157.635 160.111C157.599 160.197 157.547 160.275 157.48 160.34L156.2 161.55C156.076 161.684 155.903 161.763 155.72 161.77V161.77Z" fill="white"/>
<path d="M159 169.81C158.816 169.81 158.64 169.738 158.509 169.609C158.378 169.479 158.303 169.304 158.3 169.12C158.297 169.028 158.313 168.936 158.347 168.85C158.38 168.764 158.431 168.685 158.495 168.619C158.559 168.553 158.636 168.5 158.721 168.464C158.806 168.428 158.898 168.41 158.99 168.41H160.74C160.913 168.431 161.071 168.514 161.187 168.644C161.302 168.774 161.366 168.941 161.366 169.115C161.366 169.289 161.302 169.456 161.187 169.586C161.071 169.716 160.913 169.799 160.74 169.82H158.99L159 169.81Z" fill="white"/>
<path d="M149.43 155.54C149.334 155.54 149.24 155.521 149.152 155.483C149.065 155.445 148.986 155.39 148.92 155.32C148.788 155.187 148.714 155.007 148.714 154.82C148.714 154.633 148.788 154.453 148.92 154.32L150.19 153.11C150.255 153.043 150.333 152.991 150.419 152.955C150.505 152.918 150.597 152.9 150.69 152.9C150.783 152.9 150.875 152.918 150.961 152.955C151.047 152.991 151.125 153.043 151.19 153.11C151.322 153.243 151.396 153.423 151.396 153.61C151.396 153.797 151.322 153.977 151.19 154.11L149.92 155.32C149.857 155.387 149.781 155.441 149.697 155.479C149.613 155.517 149.522 155.537 149.43 155.54V155.54Z" fill="white"/>
<path d="M143.21 149.48C143.114 149.48 143.02 149.461 142.932 149.423C142.845 149.385 142.766 149.33 142.7 149.26C142.632 149.196 142.578 149.118 142.541 149.032C142.505 148.946 142.486 148.854 142.486 148.76C142.486 148.666 142.505 148.574 142.541 148.488C142.578 148.402 142.632 148.324 142.7 148.26L143.97 147.05C144.035 146.983 144.113 146.931 144.199 146.895C144.285 146.858 144.377 146.84 144.47 146.84C144.563 146.84 144.655 146.858 144.741 146.895C144.827 146.931 144.905 146.983 144.97 147.05C145.102 147.183 145.176 147.363 145.176 147.55C145.176 147.737 145.102 147.917 144.97 148.05L143.69 149.26C143.629 149.327 143.555 149.381 143.472 149.418C143.39 149.456 143.301 149.477 143.21 149.48V149.48Z" fill="white"/>
<path d="M135.12 146.07C135.028 146.067 134.938 146.047 134.854 146.009C134.77 145.972 134.694 145.918 134.631 145.851C134.568 145.784 134.518 145.705 134.486 145.619C134.453 145.533 134.437 145.442 134.44 145.35V143.59C134.44 143.497 134.459 143.405 134.495 143.32C134.532 143.235 134.586 143.158 134.653 143.094C134.721 143.031 134.8 142.982 134.887 142.95C134.975 142.918 135.067 142.905 135.16 142.91C135.252 142.913 135.342 142.933 135.426 142.971C135.51 143.008 135.586 143.062 135.649 143.129C135.712 143.196 135.762 143.275 135.794 143.361C135.827 143.447 135.843 143.538 135.84 143.63V145.38C135.835 145.567 135.756 145.744 135.622 145.873C135.487 146.002 135.307 146.073 135.12 146.07V146.07Z" fill="white"/>
<path d="M127.09 149.26C126.913 149.261 126.742 149.197 126.61 149.08L125.32 147.88C125.188 147.747 125.114 147.567 125.114 147.38C125.114 147.193 125.188 147.013 125.32 146.88C125.454 146.75 125.633 146.678 125.82 146.678C126.007 146.678 126.186 146.75 126.32 146.88L127.6 148.08C127.702 148.176 127.772 148.299 127.803 148.435C127.834 148.571 127.824 148.713 127.773 148.844C127.723 148.974 127.634 149.086 127.52 149.165C127.405 149.245 127.269 149.288 127.13 149.29L127.09 149.26Z" fill="white"/>
<path d="M123.75 157.56H121.99C121.898 157.557 121.808 157.537 121.724 157.499C121.64 157.462 121.564 157.408 121.501 157.341C121.438 157.274 121.388 157.195 121.356 157.109C121.323 157.023 121.307 156.932 121.31 156.84C121.31 156.747 121.329 156.655 121.365 156.569C121.402 156.483 121.455 156.406 121.523 156.341C121.59 156.277 121.669 156.227 121.757 156.194C121.844 156.161 121.937 156.146 122.03 156.15H123.78C123.953 156.171 124.111 156.254 124.227 156.384C124.342 156.514 124.406 156.681 124.406 156.855C124.406 157.029 124.342 157.196 124.227 157.326C124.111 157.456 123.953 157.539 123.78 157.56H123.75Z" fill="white"/>
<path d="M141.44 124.68H141.41C140.858 124.68 140.41 125.128 140.41 125.68V129.26C140.41 129.812 140.858 130.26 141.41 130.26H141.44C141.992 130.26 142.44 129.812 142.44 129.26V125.68C142.44 125.128 141.992 124.68 141.44 124.68Z" fill="#FFB815"/>
<path d="M136.633 126.801L136.616 126.825C136.295 127.278 136.403 127.905 136.856 128.225L139.791 130.302C140.244 130.622 140.871 130.515 141.191 130.062L141.209 130.037C141.529 129.584 141.422 128.958 140.969 128.637L138.033 126.561C137.58 126.24 136.954 126.348 136.633 126.801Z" fill="#FFB815"/>
<path d="M136.808 134.044L136.818 134.072C137.011 134.589 137.587 134.853 138.104 134.66L141.459 133.409C141.977 133.217 142.24 132.641 142.047 132.123L142.036 132.095C141.843 131.578 141.268 131.314 140.75 131.507L137.395 132.757C136.878 132.95 136.615 133.526 136.808 134.044Z" fill="#FFB815"/>
<path d="M145.151 134.238L145.181 134.242C145.728 134.319 146.234 133.939 146.311 133.392L146.812 129.847C146.89 129.3 146.509 128.794 145.962 128.717L145.932 128.713C145.386 128.635 144.88 129.016 144.802 129.563L144.301 133.108C144.224 133.654 144.604 134.16 145.151 134.238Z" fill="#FFB815"/>
<path d="M147.896 129.597L147.914 129.573C148.26 129.143 148.192 128.513 147.761 128.167L144.97 125.926C144.539 125.58 143.91 125.649 143.564 126.079L143.545 126.103C143.199 126.533 143.268 127.163 143.699 127.508L146.49 129.75C146.92 130.096 147.55 130.027 147.896 129.597Z" fill="#FFB815"/>
<path d="M143.732 138.116L143.75 138.093C144.096 137.662 144.027 137.032 143.597 136.687L140.806 134.445C140.375 134.099 139.746 134.168 139.4 134.598L139.381 134.622C139.035 135.052 139.104 135.682 139.534 136.028L142.326 138.269C142.756 138.615 143.386 138.546 143.732 138.116Z" fill="#FFB815"/>
<path d="M146.109 133.341L146.125 133.367C146.423 133.832 147.041 133.969 147.506 133.671L150.524 131.745C150.989 131.447 151.126 130.829 150.828 130.364L150.812 130.338C150.515 129.873 149.897 129.736 149.431 130.034L146.414 131.96C145.948 132.258 145.812 132.876 146.109 133.341Z" fill="#FFB815"/>
<path d="M182.8 77.8728L182.826 77.8566C183.429 77.4689 183.603 76.6657 183.216 76.0626L180.705 72.1566C180.317 71.5535 179.514 71.3789 178.911 71.7666L178.885 71.7828C178.282 72.1705 178.108 72.9737 178.495 73.5768L181.006 77.4828C181.394 78.0859 182.197 78.2605 182.8 77.8728Z" fill="#FFB815"/>
<path d="M188.305 68.7002L188.307 68.6702C188.34 67.953 187.786 67.3446 187.068 67.3113L182.423 67.0955C181.706 67.0622 181.098 67.6166 181.065 68.3338L181.063 68.3637C181.03 69.0809 181.584 69.6893 182.301 69.7227L186.946 69.9385C187.664 69.9718 188.272 69.4174 188.305 68.7002Z" fill="#FFB815"/>
<path d="M180.532 62.7446L180.508 62.7265C179.935 62.2944 179.12 62.409 178.688 62.9824L175.889 66.696C175.457 67.2694 175.572 68.0845 176.145 68.5166L176.169 68.5347C176.742 68.9668 177.557 68.8522 177.989 68.2788L180.788 64.5652C181.22 63.9918 181.105 63.1767 180.532 62.7446Z" fill="#FFB815"/>
<path d="M171.921 66.1471L171.894 66.1596C171.242 66.4596 170.956 67.2316 171.256 67.8839L173.199 72.1085C173.499 72.7608 174.271 73.0463 174.924 72.7463L174.951 72.7338C175.603 72.4338 175.889 71.6618 175.589 71.0095L173.646 66.7849C173.346 66.1327 172.574 65.8471 171.921 66.1471Z" fill="#FFB815"/>
<path d="M171.493 75.3696L171.49 75.3994C171.413 76.1132 171.928 76.7548 172.642 76.8324L177.265 77.3354C177.978 77.4131 178.62 76.8975 178.698 76.1837L178.701 76.1539C178.779 75.4401 178.263 74.7985 177.549 74.7209L172.926 74.2179C172.213 74.1402 171.571 74.6559 171.493 75.3696Z" fill="#FFB815"/>
<path d="M170.094 63.1385L170.091 63.1683C170.013 63.882 170.529 64.5236 171.242 64.6013L175.865 65.1043C176.579 65.182 177.22 64.6663 177.298 63.9525L177.301 63.9227C177.379 63.2089 176.863 62.5674 176.149 62.4897L171.527 61.9867C170.813 61.9091 170.171 62.4247 170.094 63.1385Z" fill="#FFB815"/>
<path d="M170.828 70.0288L170.801 70.0161C170.15 69.7141 169.377 69.9972 169.075 70.6486L167.118 74.867C166.816 75.5183 167.099 76.2912 167.751 76.5933L167.778 76.6059C168.429 76.908 169.202 76.6248 169.504 75.9735L171.461 71.7551C171.763 71.1037 171.48 70.3308 170.828 70.0288Z" fill="#FFB815"/>
<path d="M184.31 190.13H184.29C183.76 190.13 183.33 190.56 183.33 191.09V194.5C183.33 195.03 183.76 195.46 184.29 195.46H184.31C184.84 195.46 185.27 195.03 185.27 194.5V191.09C185.27 190.56 184.84 190.13 184.31 190.13Z" fill="#FFB815"/>
<path d="M177.416 192.32L177.405 192.336C177.099 192.77 177.202 193.369 177.635 193.674L180.421 195.641C180.854 195.947 181.453 195.843 181.759 195.41L181.771 195.394C182.076 194.961 181.973 194.362 181.54 194.056L178.754 192.089C178.321 191.784 177.722 191.887 177.416 192.32Z" fill="#FFB815"/>
<path d="M179.893 199.098L179.9 199.117C180.085 199.614 180.638 199.867 181.135 199.681L184.33 198.491C184.827 198.305 185.08 197.753 184.895 197.256L184.888 197.237C184.703 196.74 184.15 196.488 183.653 196.673L180.458 197.864C179.961 198.049 179.708 198.602 179.893 199.098Z" fill="#FFB815"/>
<path d="M186.561 200.389L186.581 200.392C187.106 200.464 187.591 200.097 187.663 199.572L188.13 196.194C188.202 195.669 187.835 195.184 187.31 195.112L187.29 195.109C186.765 195.036 186.28 195.403 186.208 195.929L185.741 199.307C185.669 199.832 186.036 200.316 186.561 200.389Z" fill="#FFB815"/>
<path d="M190.478 194.825L190.491 194.809C190.823 194.396 190.757 193.791 190.343 193.459L187.685 191.324C187.271 190.992 186.667 191.058 186.335 191.471L186.323 191.487C185.991 191.9 186.057 192.505 186.47 192.837L189.129 194.972C189.542 195.304 190.146 195.238 190.478 194.825Z" fill="#FFB815"/>
<path d="M186.498 202.962L186.51 202.946C186.842 202.533 186.776 201.929 186.363 201.597L183.704 199.462C183.291 199.13 182.687 199.195 182.355 199.609L182.342 199.624C182.01 200.038 182.076 200.642 182.489 200.974L185.148 203.109C185.561 203.441 186.166 203.375 186.498 202.962Z" fill="#FFB815"/>
<path d="M188.777 198.409L188.788 198.426C189.073 198.873 189.667 199.003 190.114 198.718L192.988 196.883C193.435 196.598 193.566 196.004 193.28 195.557L193.269 195.54C192.984 195.093 192.391 194.963 191.944 195.248L189.07 197.083C188.623 197.368 188.492 197.962 188.777 198.409Z" fill="#FFB815"/>
<path d="M227.182 124.676L227.181 124.656C227.162 124.127 226.716 123.713 226.186 123.733L222.779 123.86C222.249 123.879 221.835 124.325 221.855 124.855L221.856 124.875C221.875 125.404 222.321 125.818 222.851 125.798L226.258 125.671C226.788 125.652 227.202 125.206 227.182 124.676Z" fill="#FFB815"/>
<path d="M224.83 117.89L224.813 117.879C224.369 117.59 223.774 117.715 223.485 118.16L221.623 121.017C221.334 121.461 221.46 122.056 221.904 122.345L221.921 122.356C222.365 122.645 222.96 122.52 223.249 122.076L225.11 119.218C225.4 118.774 225.274 118.179 224.83 117.89Z" fill="#FFB815"/>
<path d="M218.114 120.583L218.096 120.591C217.606 120.795 217.374 121.357 217.578 121.846L218.887 124.995C219.091 125.484 219.653 125.716 220.142 125.513L220.161 125.505C220.65 125.301 220.882 124.739 220.679 124.25L219.369 121.101C219.166 120.612 218.604 120.38 218.114 120.583Z" fill="#FFB815"/>
<path d="M217.095 127.375L217.093 127.395C217.04 127.923 217.424 128.393 217.952 128.446L221.345 128.787C221.872 128.839 222.343 128.455 222.396 127.927L222.398 127.907C222.451 127.38 222.066 126.909 221.539 126.856L218.146 126.516C217.618 126.463 217.148 126.848 217.095 127.375Z" fill="#FFB815"/>
<path d="M222.712 131.057L222.728 131.069C223.153 131.386 223.755 131.297 224.071 130.872L226.106 128.135C226.422 127.71 226.333 127.108 225.908 126.792L225.892 126.78C225.466 126.464 224.865 126.552 224.549 126.978L222.514 129.714C222.198 130.14 222.286 130.741 222.712 131.057Z" fill="#FFB815"/>
<path d="M214.435 127.399L214.451 127.411C214.876 127.727 215.478 127.639 215.794 127.213L217.829 124.477C218.145 124.051 218.057 123.45 217.631 123.133L217.615 123.121C217.19 122.805 216.588 122.894 216.272 123.319L214.237 126.056C213.921 126.481 214.009 127.083 214.435 127.399Z" fill="#FFB815"/>
<path d="M219.111 129.424L219.095 129.435C218.659 129.737 218.55 130.335 218.852 130.771L220.793 133.574C221.095 134.01 221.693 134.119 222.129 133.817L222.146 133.806C222.582 133.504 222.69 132.906 222.388 132.47L220.447 129.667C220.145 129.231 219.547 129.122 219.111 129.424Z" fill="#FFB815"/>
</svg>
