<svg width="371" height="260" viewBox="0 0 371 260" fill="none" xmlns="http://www.w3.org/2000/svg">
<path d="M370.7 0.710022H0.470001V259.71H370.7V0.710022Z" fill="#D36B24"/>
<path d="M185.59 213.74C231.722 213.74 269.12 176.342 269.12 130.21C269.12 84.0776 231.722 46.68 185.59 46.68C139.458 46.68 102.06 84.0776 102.06 130.21C102.06 176.342 139.458 213.74 185.59 213.74Z" fill="#BC5713"/>
<path d="M140.85 201.19C152.104 198.96 163.686 198.96 174.94 201.19C182.74 202.72 188.11 207.78 188.11 213.51H127.79C127.79 207.78 133.09 202.71 140.85 201.19Z" fill="white"/>
<path d="M211.81 152.4H164.42C162.388 152.4 160.74 154.048 160.74 156.08C160.74 158.112 162.388 159.76 164.42 159.76H211.81C213.842 159.76 215.49 158.112 215.49 156.08C215.49 154.048 213.842 152.4 211.81 152.4Z" fill="#FFB815"/>
<path d="M145.187 50.9434L130.002 61.1204C127.483 62.8085 126.81 66.2187 128.498 68.7374L163.862 121.503C165.55 124.022 168.96 124.695 171.479 123.007L186.664 112.83C189.182 111.142 189.856 107.732 188.168 105.213L152.804 52.4475C151.116 49.9288 147.706 49.2554 145.187 50.9434Z" fill="white"/>
<path d="M154.511 63.7035C153.518 62.2217 151.512 61.8255 150.03 62.8186C148.548 63.8118 148.152 65.8181 149.145 67.3L173.135 103.095C174.128 104.576 176.134 104.973 177.616 103.979C179.098 102.986 179.494 100.98 178.501 99.4981L154.511 63.7035Z" fill="#BC5713"/>
<path d="M129.633 50.1227L134.252 47.0273C135.516 46.1798 137.066 45.8693 138.559 46.1642C140.053 46.4591 141.368 47.3352 142.216 48.5998L144.214 51.582L130.043 61.0799L128.044 58.0977C127.623 57.4701 127.331 56.7657 127.183 56.0248C127.035 55.2839 127.035 54.5212 127.183 53.7803C127.33 53.0393 127.623 52.3349 128.043 51.7072C128.464 51.0796 129.004 50.5411 129.633 50.1227V50.1227Z" fill="white"/>
<path d="M190.703 110.118L167.444 125.706C165.508 127.004 164.99 129.625 166.288 131.561C167.585 133.497 170.207 134.015 172.143 132.717L195.402 117.129C197.338 115.831 197.856 113.21 196.558 111.274C195.261 109.338 192.639 108.82 190.703 110.118Z" fill="white"/>
<path d="M175.81 164.61L175.32 164.85C170.163 167.148 164.565 168.285 158.92 168.18C153.311 168.063 147.827 166.499 143 163.64C136.869 159.987 132.078 154.457 129.333 147.869C126.588 141.282 126.037 133.985 127.76 127.06C128.095 125.684 128.509 124.328 129 123C129.523 121.649 130.131 120.333 130.82 119.06C133.634 113.88 137.714 109.496 142.68 106.32C145.198 104.709 147.91 103.423 150.75 102.49C153.641 101.56 156.632 100.976 159.66 100.75V89.45C157.644 89.345 155.622 89.3751 153.61 89.54C151.592 89.7016 149.587 90.0023 147.61 90.44C143.593 91.3277 139.715 92.7539 136.08 94.68C132.419 96.6213 129.024 99.0279 125.98 101.84C124.458 103.258 123.035 104.778 121.72 106.39C121.04 107.18 120.43 108.03 119.8 108.87C119.17 109.71 118.6 110.58 118.06 111.48C113.588 118.719 111.106 127.01 110.865 135.516C110.625 144.021 112.634 152.44 116.69 159.92C120.802 167.487 126.839 173.832 134.192 178.316C141.544 182.799 149.951 185.26 158.56 185.45C159.63 185.51 160.69 185.45 161.76 185.45C162.83 185.45 163.9 185.31 164.96 185.19C166.028 185.087 167.09 184.923 168.14 184.7C169.2 184.53 170.24 184.27 171.27 184C175.403 182.915 179.355 181.231 183 179C188.838 175.469 193.71 170.545 197.18 164.67L175.81 164.61Z" fill="white"/>
<path d="M158.45 208.94C166.85 208.94 173.66 202.13 173.66 193.73C173.66 185.33 166.85 178.52 158.45 178.52C150.05 178.52 143.24 185.33 143.24 193.73C143.24 202.13 150.05 208.94 158.45 208.94Z" fill="#BC5713"/>
<path d="M158.45 203.44C163.813 203.44 168.16 199.093 168.16 193.73C168.16 188.367 163.813 184.02 158.45 184.02C153.087 184.02 148.74 188.367 148.74 193.73C148.74 199.093 153.087 203.44 158.45 203.44Z" fill="white"/>
<path d="M241.81 136.16C241.561 136.295 241.273 136.337 240.996 136.278C240.719 136.219 240.473 136.064 240.3 135.84C230.83 126.25 231.92 112.93 232.8 107.75C222.44 105.94 214.8 101.63 210.11 94.91C203.78 85.86 204.62 75.14 205.47 70.26C194.2 68.26 186.2 63.39 181.66 55.66C181.559 55.5359 181.485 55.3924 181.442 55.2385C181.399 55.0846 181.388 54.9236 181.409 54.7652C181.431 54.6069 181.485 54.4546 181.567 54.3179C181.65 54.1811 181.76 54.0627 181.89 53.97C182.216 53.8767 182.564 53.9031 182.872 54.0443C183.181 54.1855 183.428 54.4323 183.57 54.74C187.76 61.86 195.57 66.3 206.78 67.93L208.52 68.18L208.14 69.86C207.61 72.2 205.29 84.35 211.86 93.73C216.23 99.98 223.72 103.91 234.11 105.42L235.85 105.67L235.47 107.35C234.83 110.14 232.13 124.54 241.63 134.16C241.895 134.377 242.077 134.678 242.144 135.014C242.211 135.349 242.161 135.698 242 136C241.947 136.064 241.882 136.118 241.81 136.16Z" fill="white"/>
<path d="M260 122.9L259.81 123C259.474 123.07 259.124 123.021 258.821 122.86C258.518 122.699 258.281 122.437 258.15 122.12C251.91 110.12 237.36 108.29 234.5 108.04L232.79 107.89L233.08 106.16C234.83 95.81 233.38 87.48 228.77 81.41C221.84 72.28 209.57 70.77 207.18 70.56L205.46 70.41L205.75 68.68C207.64 57.5 205.8 48.68 200.3 42.54C200.051 42.3108 199.893 41.9999 199.855 41.664C199.816 41.3281 199.9 40.9895 200.09 40.71C200.49 40.28 201.25 40.42 201.77 41C207.77 47.69 209.95 56.81 208.37 68.14C213.29 68.83 223.75 71.3 230.43 80.14C235.38 86.66 237.15 95.24 235.7 105.66C240.91 106.41 253.93 109.46 260.16 121.4C260.307 121.631 260.371 121.905 260.342 122.178C260.313 122.45 260.193 122.705 260 122.9V122.9Z" fill="white"/>
<path d="M229 84.32L214.6 94.79C214.303 94.8903 213.982 94.8931 213.684 94.798C213.385 94.703 213.125 94.515 212.94 94.2616C212.756 94.0082 212.658 93.7025 212.66 93.3892C212.661 93.0759 212.763 92.7714 212.95 92.52L227.31 82.05C227.607 81.9463 227.93 81.9408 228.231 82.0345C228.532 82.1282 228.795 82.316 228.981 82.5703C229.166 82.8246 229.266 83.1319 229.264 83.4469C229.262 83.7619 229.159 84.068 228.97 84.32H229Z" fill="#FFB815"/>
<path d="M224.11 80L211.93 88.88C211.52 89.18 210.83 88.94 210.4 88.34C210.193 88.1209 210.078 87.8312 210.078 87.53C210.078 87.2288 210.193 86.939 210.4 86.72L222.58 77.84C222.99 77.54 223.68 77.78 224.11 78.38C224.54 78.98 224.53 79.65 224.11 80Z" fill="#FFB815"/>
<path d="M217.354 74.8248L210.582 79.7572C209.983 80.1938 209.85 81.0319 210.285 81.6291C210.72 82.2263 211.558 82.3565 212.158 81.9199L218.929 76.9875C219.529 76.5509 219.662 75.7128 219.227 75.1155C218.792 74.5183 217.953 74.3882 217.354 74.8248Z" fill="#FFB815"/>
<path d="M256.15 122.23L242.38 132.23C242.084 132.32 241.768 132.315 241.476 132.217C241.183 132.119 240.927 131.933 240.745 131.684C240.563 131.434 240.463 131.135 240.458 130.826C240.454 130.517 240.545 130.214 240.72 129.96L254.5 119.96C254.94 119.64 255.67 119.88 256.13 120.51C256.351 120.741 256.475 121.047 256.479 121.366C256.483 121.685 256.365 121.994 256.15 122.23V122.23Z" fill="#FFB815"/>
<path d="M251.6 117.64L239.4 126.53C238.99 126.83 238.3 126.59 237.87 126C237.44 125.41 237.41 124.67 237.87 124.37L250.07 115.48C250.48 115.18 251.17 115.42 251.6 116.01C251.807 116.231 251.923 116.522 251.923 116.825C251.923 117.128 251.807 117.419 251.6 117.64V117.64Z" fill="#FFB815"/>
<path d="M243.632 112.431L236.876 117.356C236.278 117.792 236.145 118.628 236.58 119.224C237.014 119.82 237.851 119.949 238.449 119.513L245.204 114.589C245.803 114.153 245.935 113.317 245.501 112.721C245.067 112.125 244.23 111.995 243.632 112.431Z" fill="#FFB815"/>
<path d="M230 88L217.77 96.91C217.36 97.21 217.38 97.91 217.77 98.54C218.16 99.17 218.9 99.37 219.31 99.07L231.53 90.16C231.737 89.941 231.852 89.6512 231.852 89.35C231.852 89.0488 231.737 88.759 231.53 88.54C231.11 87.93 230.42 87.69 230 88Z" fill="#FFB815"/>
<path d="M230.532 95.304L224.584 99.6395C223.986 100.075 223.853 100.912 224.288 101.508C224.722 102.103 225.559 102.233 226.157 101.797L232.104 97.4617C232.702 97.0257 232.835 96.1893 232.401 95.5935C231.967 94.9977 231.13 94.8681 230.532 95.304Z" fill="#FFB815"/>
<path d="M200.38 45.79L186.67 55.79C186.23 56.11 185.5 55.86 185.04 55.23C184.821 54.9995 184.698 54.6933 184.698 54.375C184.698 54.0567 184.821 53.7505 185.04 53.52L198.75 43.52C199.19 43.2 199.92 43.44 200.38 44.07C200.84 44.7 200.83 45.47 200.38 45.79Z" fill="#FFB815"/>
<path d="M201.52 49.39L189.76 58C189.36 58.29 189.39 59 189.82 59.6C190.25 60.2 190.93 60.45 191.33 60.16L203.09 51.59C203.49 51.3 203.46 50.59 203.03 49.98C202.6 49.37 201.92 49.1 201.52 49.39Z" fill="#FFB815"/>
<path d="M202.677 56.2546L195.922 61.1791C195.323 61.615 195.191 62.4514 195.625 63.0472C196.059 63.643 196.896 63.7726 197.494 63.3367L204.25 58.4122C204.848 57.9762 204.981 57.1399 204.546 56.544C204.112 55.9482 203.275 55.8186 202.677 56.2546Z" fill="#FFB815"/>
</svg>
