<svg width="120" height="106" viewBox="0 0 120 106" fill="none" xmlns="http://www.w3.org/2000/svg">
<path d="M119.02 0.400024H0.0200195V105.4H119.02V0.400024Z" fill="#D36B24"/>
<path d="M37.07 90.14C42.7184 89.0204 48.5316 89.0204 54.18 90.14C58.1 90.9 60.79 93.45 60.79 96.32H30.52C30.52 93.45 33.18 90.9 37.07 90.14Z" fill="white"/>
<path d="M72.68 65.66H48.9C47.8783 65.66 47.05 66.4861 47.05 67.505C47.05 68.524 47.8783 69.35 48.9 69.35H72.68C73.7017 69.35 74.53 68.524 74.53 67.505C74.53 66.4861 73.7017 65.66 72.68 65.66Z" fill="#FFB815"/>
<path d="M36.9809 16.291L33.9074 18.3509C31.3887 20.0389 30.7153 23.4491 32.4033 25.9678L47.1066 47.9065C48.7946 50.4251 52.2048 51.0986 54.7235 49.4105L57.7971 47.3506C60.3158 45.6626 60.9892 42.2523 59.3011 39.7337L44.5979 17.795C42.9098 15.2763 39.4996 14.603 36.9809 16.291Z" fill="white"/>
<path d="M43.9275 21.1631C43.4294 20.4199 42.4231 20.2211 41.6799 20.7193C40.9367 21.2174 40.738 22.2237 41.2361 22.9669L53.2726 40.9265C53.7707 41.6697 54.777 41.8684 55.5202 41.3703C56.2634 40.8722 56.4621 39.8659 55.964 39.1227L43.9275 21.1631Z" fill="#D36B24"/>
<path d="M32.6084 13.5687C33.5513 12.9367 34.7067 12.7052 35.8203 12.9251C36.9339 13.145 37.9146 13.7983 38.5466 14.7412L38.7748 15.0818L31.6641 19.8474L31.4358 19.5068C30.8039 18.5639 30.5724 17.4085 30.7923 16.2949C31.0122 15.1813 31.6654 14.2006 32.6084 13.5687V13.5687Z" fill="white"/>
<path d="M62.1026 44.4619L50.4313 52.284C49.4587 52.9358 49.1974 54.2508 49.8477 55.2211C50.498 56.1915 51.8136 56.4496 52.7863 55.7978L64.4575 47.9757C65.4301 47.3238 65.6914 46.0088 65.0411 45.0385C64.3908 44.0682 63.0752 43.81 62.1026 44.4619Z" fill="white"/>
<path d="M54.62 71.78L54.37 71.9C51.7814 73.0506 48.9723 73.6206 46.14 73.57C43.3209 73.5156 40.5642 72.73 38.14 71.29C35.6938 69.8335 33.6614 67.7748 32.2365 65.3101C30.8115 62.8453 30.0416 60.0567 30 57.21C29.9689 55.7716 30.1303 54.3356 30.48 52.94C30.6584 52.2397 30.872 51.5488 31.12 50.87C32.0682 48.4554 33.5391 46.2806 35.4271 44.5015C37.3151 42.7225 39.5733 41.3833 42.04 40.58C43.4897 40.1119 44.9905 39.8198 46.51 39.71V34.06C45.51 34.0084 44.5077 34.0251 43.51 34.11C42.5004 34.1864 41.4977 34.3369 40.51 34.56C38.4928 35.0058 36.5452 35.7223 34.72 36.69C32.8841 37.6612 31.1831 38.8681 29.66 40.28C28.8935 40.9883 28.1784 41.7502 27.52 42.56C27.18 42.96 26.87 43.39 26.52 43.81C26.17 44.23 25.91 44.67 25.64 45.12C23.3966 48.7533 22.1515 52.9141 22.0303 57.1824C21.9092 61.4507 22.9163 65.6754 24.95 69.43C27.0213 73.2141 30.0442 76.3921 33.72 78.65C37.412 80.9051 41.6348 82.1436 45.96 82.24C46.5 82.24 47.04 82.24 47.57 82.24C48.1 82.24 48.65 82.17 49.18 82.11C49.71 82.05 50.25 81.96 50.77 81.87C51.29 81.78 51.83 81.65 52.35 81.51C54.4193 80.9571 56.3993 80.1119 58.23 79C61.1607 77.2238 63.6067 74.7504 65.35 71.8L54.62 71.78Z" fill="white"/>
<path d="M45.91 94.03C50.1239 94.03 53.54 90.614 53.54 86.4C53.54 82.1861 50.1239 78.77 45.91 78.77C41.696 78.77 38.28 82.1861 38.28 86.4C38.28 90.614 41.696 94.03 45.91 94.03Z" fill="#D36B24"/>
<path d="M45.91 91.27C48.5996 91.27 50.78 89.0897 50.78 86.4C50.78 83.7104 48.5996 81.53 45.91 81.53C43.2203 81.53 41.04 83.7104 41.04 86.4C41.04 89.0897 43.2203 91.27 45.91 91.27Z" fill="white"/>
<path d="M87.74 57.5C87.6154 57.5699 87.4697 57.5921 87.3299 57.5627C87.1902 57.5333 87.0658 57.4542 86.98 57.34C82.23 52.53 82.78 45.85 83.22 43.25C78.02 42.34 74.22 40.17 71.83 36.81C68.65 32.26 69.08 26.88 69.5 24.43C63.85 23.43 59.83 20.98 57.5 17.11C57.3 16.77 57.35 16.39 57.62 16.26C57.7823 16.2109 57.9569 16.2223 58.1114 16.2922C58.2659 16.3621 58.3898 16.4857 58.46 16.64C60.57 20.22 64.46 22.45 70.11 23.26L70.98 23.39L70.79 24.23C70.53 25.41 69.36 31.5 72.66 36.23C74.86 39.37 78.61 41.34 83.83 42.1L84.7 42.22L84.51 43.07C84.19 44.47 82.83 51.69 87.6 56.52C87.7307 56.632 87.819 56.7855 87.85 56.9549C87.8809 57.1242 87.8527 57.299 87.77 57.45L87.74 57.5Z" fill="white"/>
<path d="M96.87 50.85H96.7701C96.6023 50.8821 96.4285 50.856 96.2776 50.776C96.1267 50.696 96.0076 50.5669 95.94 50.41C92.81 44.41 85.51 43.47 84.07 43.34L83.2101 43.27L83.36 42.4C84.24 37.21 83.51 33.02 81.2 29.98C77.72 25.4 71.56 24.64 70.36 24.53L69.5 24.46L69.6501 23.59C70.5901 17.98 69.65 13.59 66.91 10.47C66.7863 10.3541 66.7075 10.1983 66.6874 10.03C66.6673 9.86174 66.7071 9.69172 66.8 9.54996C67 9.33996 67.3801 9.40998 67.6501 9.69998C70.6501 13.06 71.7501 17.63 70.9601 23.32C73.4301 23.66 78.6801 24.91 82.0301 29.32C84.5101 32.6 85.4 36.9 84.67 42.13C87.29 42.51 93.82 44.04 96.95 50.03C97.0439 50.151 97.0879 50.3034 97.073 50.4559C97.0582 50.6083 96.9855 50.7493 96.87 50.85V50.85Z" fill="white"/>
<path d="M81.3 31.49L74.09 36.74C73.941 36.7895 73.7802 36.7904 73.6307 36.7424C73.4812 36.6945 73.3508 36.6002 73.2584 36.4733C73.166 36.3464 73.1163 36.1934 73.1166 36.0364C73.1169 35.8794 73.1671 35.7266 73.26 35.6L80.47 30.35C80.6152 30.2783 80.7825 30.2654 80.9371 30.3138C81.0916 30.3622 81.2216 30.4683 81.3 30.61C81.4125 30.7288 81.4752 30.8863 81.4752 31.05C81.4752 31.2137 81.4125 31.3711 81.3 31.49V31.49Z" fill="#FFB815"/>
<path d="M78.86 29.2999L72.75 33.75C72.54 33.9 72.2 33.75 71.98 33.48C71.76 33.21 71.75 32.82 71.98 32.67L78.09 28.2099C78.3 28.0599 78.64 28.21 78.86 28.48C79.08 28.75 79.07 29.1499 78.86 29.2999Z" fill="#FFB815"/>
<path d="M74.8694 26.6662L71.4754 29.1403C71.1764 29.3582 71.1107 29.7773 71.3287 30.0763C71.5467 30.3754 71.9657 30.4411 72.2648 30.2231L75.6588 27.7491C75.9578 27.5311 76.0235 27.112 75.8056 26.813C75.5876 26.5139 75.1684 26.4482 74.8694 26.6662Z" fill="#FFB815"/>
<path d="M95.08 50.41L87.88 55.66C87.731 55.7095 87.5701 55.7104 87.4207 55.6624C87.2712 55.6145 87.1408 55.5202 87.0484 55.3933C86.956 55.2664 86.9063 55.1134 86.9066 54.9564C86.9069 54.7994 86.9571 54.6466 87.05 54.52L94.25 49.27C94.399 49.2205 94.5599 49.2196 94.7094 49.2676C94.8588 49.3155 94.9892 49.4098 95.0816 49.5367C95.174 49.6636 95.2237 49.8166 95.2234 49.9736C95.2231 50.1306 95.1729 50.2834 95.08 50.41V50.41Z" fill="#FFB815"/>
<path d="M92.65 48.21L86.53 52.67C86.32 52.82 85.98 52.67 85.76 52.4C85.54 52.13 85.53 51.74 85.76 51.59L91.88 47.13C92.09 46.97 92.44 47.13 92.65 47.39C92.86 47.65 92.86 48.06 92.65 48.21Z" fill="#FFB815"/>
<path d="M88.658 45.5822L85.264 48.0563C84.965 48.2742 84.8993 48.6933 85.1173 48.9923C85.3352 49.2914 85.7543 49.3571 86.0533 49.1391L89.4473 46.6651C89.7464 46.4471 89.812 46.028 89.5941 45.729C89.3761 45.43 88.957 45.3643 88.658 45.5822Z" fill="#FFB815"/>
<path d="M81.82 33.33L75.68 37.8C75.5781 37.9122 75.5217 38.0584 75.5217 38.21C75.5217 38.3616 75.5781 38.5077 75.68 38.62C75.9 38.92 76.25 39.04 76.45 38.89L82.59 34.42C82.6919 34.3077 82.7484 34.1616 82.7484 34.01C82.7484 33.8584 82.6919 33.7122 82.59 33.6C82.37 33.3 82 33.18 81.82 33.33Z" fill="#FFB815"/>
<path d="M82.2921 36.8517L78.8981 39.3258C78.5991 39.5437 78.5333 39.9629 78.7513 40.2619C78.9693 40.5609 79.3884 40.6266 79.6874 40.4086L83.0814 37.9346C83.3804 37.7166 83.4461 37.2975 83.2282 36.9985C83.0102 36.6995 82.5911 36.6338 82.2921 36.8517Z" fill="#FFB815"/>
<path d="M67.11 12L59.91 17.26C59.7621 17.3314 59.5924 17.3431 59.436 17.2929C59.2797 17.2426 59.1486 17.1342 59.07 16.99C58.9558 16.874 58.8918 16.7177 58.8918 16.555C58.8918 16.3922 58.9558 16.236 59.07 16.12L66.27 10.86C66.4179 10.7886 66.5876 10.7768 66.744 10.8271C66.9003 10.8774 67.0314 10.9858 67.11 11.13C67.2242 11.246 67.2882 11.4022 67.2882 11.565C67.2882 11.7278 67.2242 11.884 67.11 12V12Z" fill="#FFB815"/>
<path d="M67.52 14L61.62 18.3C61.42 18.45 61.43 18.81 61.62 19.11C61.81 19.41 62.18 19.53 62.38 19.39L68.28 15.09C68.48 14.94 68.47 14.58 68.28 14.28C68.09 13.98 67.72 13.82 67.52 14Z" fill="#FFB815"/>
<path d="M68.0981 17.403L64.7041 19.8771C64.4051 20.095 64.3394 20.5141 64.5574 20.8131C64.7753 21.1122 65.1944 21.1779 65.4935 20.9599L68.8875 18.4859C69.1865 18.2679 69.2522 17.8488 69.0342 17.5498C68.8162 17.2508 68.3971 17.1851 68.0981 17.403Z" fill="#FFB815"/>
</svg>
