<svg width="120" height="106" viewBox="0 0 120 106" fill="none" xmlns="http://www.w3.org/2000/svg">
<path d="M119.02 0.400024H0.0200195V105.4H119.02V0.400024Z" fill="#6A4C91"/>
<path d="M90.17 29.59H37.41C34.8323 29.5082 32.3875 28.4266 30.593 26.5743C28.7985 24.7219 27.7952 22.2441 27.7952 19.665C27.7952 17.086 28.7985 14.6081 30.593 12.7557C32.3875 10.9034 34.8323 9.82182 37.41 9.73999H90.17C90.5396 9.74263 90.8932 9.8913 91.1536 10.1536C91.414 10.4158 91.5601 10.7704 91.5601 11.14V16.21C91.5601 16.5796 91.414 16.9342 91.1536 17.1964C90.8932 17.4587 90.5396 17.6073 90.17 17.61H39.4301C39.0805 17.5804 38.7548 17.4206 38.5174 17.1622C38.28 16.9039 38.1483 16.5658 38.1483 16.215C38.1483 15.8642 38.28 15.5261 38.5174 15.2678C38.7548 15.0094 39.0805 14.8496 39.4301 14.82H88.7801V12.53H37.41C36.4506 12.4941 35.4937 12.652 34.5967 12.9944C33.6997 13.3368 32.881 13.8566 32.1895 14.5227C31.498 15.1888 30.948 15.9875 30.5723 16.871C30.1966 17.7546 30.0029 18.7049 30.0029 19.665C30.0029 20.6251 30.1966 21.5754 30.5723 22.459C30.948 23.3425 31.498 24.1413 32.1895 24.8073C32.881 25.4734 33.6997 25.9932 34.5967 26.3356C35.4937 26.678 36.4506 26.8359 37.41 26.8H88.7801V24.8H43.0001C42.6314 24.8 42.2779 24.6536 42.0172 24.3929C41.7565 24.1322 41.61 23.7787 41.61 23.41C41.61 23.0414 41.7565 22.6878 42.0172 22.4271C42.2779 22.1664 42.6314 22.02 43.0001 22.02H90.1501C90.5187 22.02 90.8723 22.1664 91.1329 22.4271C91.3936 22.6878 91.54 23.0414 91.54 23.41V28.22C91.5349 28.5817 91.3889 28.9272 91.1331 29.183C90.8772 29.4388 90.5318 29.5848 90.17 29.59V29.59Z" fill="white"/>
<path d="M90.17 96.0601H37.17C34.5999 96.0574 32.1357 95.036 30.3175 93.2196C28.4993 91.4032 27.4753 88.9401 27.47 86.3701V20.4401C27.47 20.0714 27.6165 19.7179 27.8771 19.4572C28.1378 19.1965 28.4913 19.05 28.86 19.05C29.2286 19.05 29.5822 19.1965 29.8429 19.4572C30.1036 19.7179 30.25 20.0714 30.25 20.4401V86.3701C30.2526 88.2036 30.9829 89.9612 32.2803 91.2568C33.5778 92.5524 35.3364 93.2801 37.17 93.2801H88.76V28.6701C88.76 28.3014 88.9064 27.9479 89.1671 27.6872C89.4278 27.4265 89.7814 27.2801 90.15 27.2801C90.5187 27.2801 90.8722 27.4265 91.1329 27.6872C91.3935 27.9479 91.54 28.3014 91.54 28.6701V94.6701C91.54 95.0353 91.3963 95.3858 91.14 95.6459C90.8836 95.906 90.5352 96.0548 90.17 96.0601Z" fill="white"/>
<path d="M87.16 23.6599C86.7904 23.66 86.4358 23.5138 86.1736 23.2534C85.9113 22.993 85.7626 22.6395 85.76 22.2699V16.6499C85.7896 16.3003 85.9494 15.9746 86.2078 15.7372C86.4661 15.4999 86.8042 15.3682 87.155 15.3682C87.5059 15.3682 87.8439 15.4999 88.1022 15.7372C88.3606 15.9746 88.5204 16.3003 88.55 16.6499V22.2699C88.55 22.6386 88.4036 22.9921 88.1429 23.2528C87.8822 23.5135 87.5286 23.6599 87.16 23.6599Z" fill="white"/>
<path d="M81.8801 88.82H63.4601C63.1992 88.8172 62.9442 88.7417 62.724 88.6018C62.5038 88.4619 62.3271 88.2632 62.2137 88.0282C62.1004 87.7932 62.055 87.5313 62.0826 87.2718C62.1102 87.0124 62.2098 86.7658 62.3701 86.56L78.0001 67H63.4601C63.0914 67 62.7378 66.8535 62.4772 66.5928C62.2165 66.3322 62.0701 65.9786 62.0701 65.61C62.0701 65.2413 62.2165 64.8878 62.4772 64.6271C62.7378 64.3664 63.0914 64.22 63.4601 64.22H80.86C81.1209 64.2227 81.3758 64.2983 81.5961 64.4382C81.8163 64.5781 81.993 64.7767 82.1064 65.0117C82.2197 65.2467 82.2652 65.5087 82.2375 65.7681C82.2099 66.0276 82.1104 66.2741 81.9501 66.48L66.35 86H81.8801C82.2487 86 82.6022 86.1464 82.8629 86.4071C83.1236 86.6678 83.2701 87.0213 83.2701 87.39C83.2701 87.7586 83.1236 88.1122 82.8629 88.3728C82.6022 88.6335 82.2487 88.78 81.8801 88.78V88.82Z" fill="white"/>
<path d="M54.53 58.88C54.2584 58.8781 53.9931 58.7979 53.766 58.6489C53.5389 58.4999 53.3597 58.2884 53.2499 58.04L45.0499 39L36.8499 58C36.704 58.3395 36.4293 58.6071 36.0861 58.744C35.7429 58.8809 35.3594 58.8759 35.0199 58.73C34.6805 58.5841 34.4128 58.3094 34.2759 57.9662C34.139 57.623 34.144 57.2395 34.2899 56.9L43.7699 34.85C43.8776 34.6001 44.0563 34.3872 44.2839 34.2379C44.5114 34.0886 44.7778 34.0093 45.0499 34.01V34.01C45.3221 34.0093 45.5885 34.0886 45.816 34.2379C46.0436 34.3872 46.2223 34.6001 46.3299 34.85L55.8099 56.9C55.9512 57.24 55.954 57.6217 55.8176 57.9637C55.6812 58.3056 55.4164 58.5807 55.0799 58.73C54.9075 58.8138 54.721 58.8647 54.53 58.88V58.88Z" fill="#FFB815"/>
<path d="M49.72 50.3H40.24C39.8713 50.3 39.5178 50.1536 39.2571 49.8929C38.9965 49.6322 38.85 49.2787 38.85 48.91C38.85 48.5414 38.9965 48.1878 39.2571 47.9272C39.5178 47.6665 39.8713 47.52 40.24 47.52H49.72C50.0886 47.52 50.4422 47.6665 50.7029 47.9272C50.9636 48.1878 51.11 48.5414 51.11 48.91C51.11 49.2787 50.9636 49.6322 50.7029 49.8929C50.4422 50.1536 50.0886 50.3 49.72 50.3V50.3Z" fill="#FFB815"/>
<path d="M80.93 38.69H62C61.6313 38.69 61.2778 38.5436 61.0172 38.2829C60.7565 38.0222 60.61 37.6687 60.61 37.3C60.61 36.9314 60.7565 36.5778 61.0172 36.3171C61.2778 36.0565 61.6313 35.91 62 35.91H80.89C81.2587 35.91 81.6122 36.0565 81.8729 36.3171C82.1335 36.5778 82.28 36.9314 82.28 37.3C82.28 37.6687 82.1335 38.0222 81.8729 38.2829C81.6122 38.5436 81.2587 38.69 80.89 38.69H80.93Z" fill="white"/>
<path d="M80.93 45.0901H62C61.6313 45.0901 61.2778 44.9436 61.0172 44.683C60.7565 44.4223 60.61 44.0687 60.61 43.7001C60.61 43.3314 60.7565 42.9779 61.0172 42.7172C61.2778 42.4565 61.6313 42.3101 62 42.3101H80.89C81.0726 42.3101 81.2533 42.346 81.4219 42.4159C81.5906 42.4857 81.7438 42.5881 81.8729 42.7172C82.0019 42.8463 82.1043 42.9995 82.1742 43.1681C82.244 43.3368 82.28 43.5175 82.28 43.7001C82.28 43.8826 82.244 44.0634 82.1742 44.232C82.1043 44.4006 82.0019 44.5539 81.8729 44.683C81.7438 44.812 81.5906 44.9144 81.4219 44.9843C81.2533 45.0541 81.0726 45.0901 80.89 45.0901H80.93Z" fill="white"/>
<path d="M80.9301 51.4899H62.0001C61.6505 51.4603 61.3248 51.3005 61.0874 51.0422C60.85 50.7838 60.7183 50.4458 60.7183 50.0949C60.7183 49.7441 60.85 49.406 61.0874 49.1477C61.3248 48.8894 61.6505 48.7296 62.0001 48.7H80.8901C81.2397 48.7296 81.5654 48.8894 81.8027 49.1477C82.0401 49.406 82.1719 49.7441 82.1719 50.0949C82.1719 50.4458 82.0401 50.7838 81.8027 51.0422C81.5654 51.3005 81.2397 51.4603 80.8901 51.4899H80.9301Z" fill="white"/>
<path d="M80.93 57.88H62C61.6313 57.88 61.2778 57.7335 61.0172 57.4728C60.7565 57.2122 60.61 56.8586 60.61 56.49C60.61 56.1213 60.7565 55.7678 61.0172 55.5071C61.2778 55.2464 61.6313 55.1 62 55.1H80.89C81.0726 55.1 81.2533 55.1359 81.4219 55.2058C81.5906 55.2756 81.7438 55.378 81.8729 55.5071C82.0019 55.6362 82.1043 55.7894 82.1742 55.958C82.244 56.1267 82.28 56.3074 82.28 56.49C82.28 56.6725 82.244 56.8533 82.1742 57.0219C82.1043 57.1906 82.0019 57.3438 81.8729 57.4728C81.7438 57.6019 81.5906 57.7043 81.4219 57.7742C81.2533 57.844 81.0726 57.88 80.89 57.88H80.93Z" fill="white"/>
<path d="M54.4899 69.0899H35.6099C35.2603 69.0603 34.9346 68.9005 34.6973 68.6422C34.4599 68.3838 34.3281 68.0458 34.3281 67.6949C34.3281 67.3441 34.4599 67.006 34.6973 66.7477C34.9346 66.4894 35.2603 66.3295 35.6099 66.2999H54.4899C54.6831 66.2836 54.8775 66.3075 55.0609 66.3701C55.2443 66.4328 55.4126 66.5329 55.5554 66.664C55.6981 66.7952 55.812 66.9545 55.89 67.132C55.9679 67.3094 56.0082 67.5011 56.0082 67.6949C56.0082 67.8888 55.9679 68.0804 55.89 68.2579C55.812 68.4354 55.6981 68.5947 55.5554 68.7258C55.4126 68.857 55.2443 68.957 55.0609 69.0197C54.8775 69.0824 54.6831 69.1063 54.4899 69.0899V69.0899Z" fill="white"/>
<path d="M54.49 75.4799H35.61C35.4274 75.4799 35.2467 75.444 35.0781 75.3741C34.9094 75.3043 34.7562 75.2019 34.6271 75.0728C34.4981 74.9437 34.3957 74.7905 34.3258 74.6219C34.256 74.4532 34.22 74.2725 34.22 74.0899C34.22 73.9074 34.256 73.7267 34.3258 73.558C34.3957 73.3894 34.4981 73.2361 34.6271 73.1071C34.7562 72.978 34.9094 72.8756 35.0781 72.8058C35.2467 72.7359 35.4274 72.7 35.61 72.7H54.49C54.6725 72.7 54.8533 72.7359 55.0219 72.8058C55.1906 72.8756 55.3438 72.978 55.4729 73.1071C55.602 73.2361 55.7043 73.3894 55.7742 73.558C55.844 73.7267 55.88 73.9074 55.88 74.0899C55.88 74.2725 55.844 74.4532 55.7742 74.6219C55.7043 74.7905 55.602 74.9437 55.4729 75.0728C55.3438 75.2019 55.1906 75.3043 55.0219 75.3741C54.8533 75.444 54.6725 75.4799 54.49 75.4799V75.4799Z" fill="white"/>
<path d="M54.49 81.88H35.61C35.2413 81.88 34.8878 81.7335 34.6271 81.4728C34.3665 81.2122 34.22 80.8586 34.22 80.49C34.22 80.1213 34.3665 79.7678 34.6271 79.5071C34.8878 79.2464 35.2413 79.1 35.61 79.1H54.49C54.8586 79.1 55.2122 79.2464 55.4729 79.5071C55.7336 79.7678 55.88 80.1213 55.88 80.49C55.88 80.8586 55.7336 81.2122 55.4729 81.4728C55.2122 81.7335 54.8586 81.88 54.49 81.88V81.88Z" fill="white"/>
<path d="M54.4899 88.28H35.6099C35.2603 88.2504 34.9346 88.0906 34.6973 87.8322C34.4599 87.5739 34.3281 87.2358 34.3281 86.885C34.3281 86.5342 34.4599 86.1961 34.6973 85.9378C34.9346 85.6794 35.2603 85.5196 35.6099 85.49H54.4899C54.6831 85.4736 54.8775 85.4975 55.0609 85.5602C55.2443 85.6229 55.4126 85.723 55.5554 85.8541C55.6981 85.9852 55.812 86.1446 55.89 86.322C55.9679 86.4995 56.0082 86.6912 56.0082 86.885C56.0082 87.0788 55.9679 87.2705 55.89 87.448C55.812 87.6254 55.6981 87.7848 55.5554 87.9159C55.4126 88.047 55.2443 88.1471 55.0609 88.2098C54.8775 88.2724 54.6831 88.2964 54.4899 88.28V88.28Z" fill="white"/>
</svg>
