<svg width="371" height="260" viewBox="0 0 371 260" fill="none" xmlns="http://www.w3.org/2000/svg">
<path d="M370.82 0.820068H0.589966V259.82H370.82V0.820068Z" fill="#6A4C91"/>
<path d="M185.7 213.84C231.827 213.84 269.22 176.447 269.22 130.32C269.22 84.1932 231.827 46.8 185.7 46.8C139.573 46.8 102.18 84.1932 102.18 130.32C102.18 176.447 139.573 213.84 185.7 213.84Z" fill="#543A7C"/>
<path d="M239.87 89.1H146.61C144.272 89.1559 141.947 88.7436 139.77 87.8875C137.594 87.0314 135.611 85.7487 133.938 84.1149C132.264 82.4811 130.935 80.5291 130.027 78.3739C129.119 76.2187 128.651 73.9037 128.651 71.565C128.651 69.2264 129.119 66.9114 130.027 64.7561C130.935 62.6009 132.264 60.649 133.938 59.0152C135.611 57.3814 137.594 56.0987 139.77 55.2426C141.947 54.3865 144.272 53.9742 146.61 54.03H239.87C240.193 54.03 240.513 54.0937 240.811 54.2173C241.11 54.3409 241.381 54.5221 241.61 54.7505C241.838 54.979 242.019 55.2501 242.143 55.5486C242.266 55.8471 242.33 56.167 242.33 56.49V65.49C242.33 65.8131 242.266 66.133 242.143 66.4314C242.019 66.7299 241.838 67.0011 241.61 67.2295C241.381 67.458 241.11 67.6392 240.811 67.7628C240.513 67.8864 240.193 67.95 239.87 67.95H150.19C149.538 67.95 148.912 67.6909 148.451 67.2295C147.989 66.7682 147.73 66.1424 147.73 65.49C147.73 64.8376 147.989 64.2119 148.451 63.7505C148.912 63.2892 149.538 63.03 150.19 63.03H237.41V59H146.61C143.326 59.0925 140.207 60.4622 137.917 62.8178C135.627 65.1735 134.345 68.3295 134.345 71.615C134.345 74.9005 135.627 78.0565 137.917 80.4122C140.207 82.7679 143.326 84.1376 146.61 84.23H237.41V80.66H156.53C155.878 80.66 155.252 80.4008 154.791 79.9395C154.329 79.4782 154.07 78.8525 154.07 78.2C154.07 77.5476 154.329 76.9219 154.791 76.4605C155.252 75.9992 155.878 75.74 156.53 75.74H239.87C240.193 75.74 240.513 75.8036 240.811 75.9273C241.11 76.0509 241.381 76.2321 241.61 76.4605C241.838 76.689 242.019 76.9602 242.143 77.2586C242.266 77.5571 242.33 77.877 242.33 78.2V86.69C242.317 87.3338 242.052 87.9467 241.592 88.3973C241.132 88.8479 240.514 89.1002 239.87 89.1Z" fill="white"/>
<path d="M239.87 206.61H146.22C141.674 206.607 137.315 204.801 134.1 201.587C130.884 198.374 129.075 194.016 129.07 189.47V72.94C129.11 72.3134 129.387 71.7255 129.845 71.2958C130.303 70.8662 130.907 70.6271 131.535 70.6271C132.163 70.6271 132.767 70.8662 133.225 71.2958C133.683 71.7255 133.96 72.3134 134 72.94V189.47C134.003 192.71 135.291 195.817 137.582 198.108C139.873 200.399 142.98 201.687 146.22 201.69H237.41V87.48C237.41 86.8276 237.669 86.2018 238.131 85.7405C238.592 85.2792 239.218 85.02 239.87 85.02C240.522 85.02 241.148 85.2792 241.61 85.7405C242.071 86.2018 242.33 86.8276 242.33 87.48V204.15C242.33 204.473 242.266 204.793 242.143 205.091C242.019 205.39 241.838 205.661 241.61 205.889C241.381 206.118 241.11 206.299 240.811 206.423C240.513 206.546 240.193 206.61 239.87 206.61V206.61Z" fill="white"/>
<path d="M234.55 78.63C233.898 78.63 233.272 78.3709 232.811 77.9095C232.349 77.4482 232.09 76.8225 232.09 76.17V66.24C232.09 65.917 232.154 65.5971 232.277 65.2986C232.401 65.0002 232.582 64.729 232.811 64.5005C233.039 64.2721 233.31 64.0909 233.609 63.9673C233.907 63.8437 234.227 63.78 234.55 63.78C234.873 63.78 235.193 63.8437 235.491 63.9673C235.79 64.0909 236.061 64.2721 236.29 64.5005C236.518 64.729 236.699 65.0002 236.823 65.2986C236.946 65.5971 237.01 65.917 237.01 66.24V76.17C237.01 76.8225 236.751 77.4482 236.29 77.9095C235.828 78.3709 235.202 78.63 234.55 78.63V78.63Z" fill="white"/>
<path d="M225.22 193.81H192.67C192.205 193.812 191.749 193.683 191.355 193.437C190.961 193.19 190.645 192.838 190.443 192.419C190.241 192 190.161 191.533 190.214 191.072C190.267 190.61 190.449 190.172 190.74 189.81L218.32 155.15H192.67C192.018 155.15 191.392 154.891 190.93 154.429C190.469 153.968 190.21 153.342 190.21 152.69C190.21 152.038 190.469 151.412 190.93 150.951C191.392 150.489 192.018 150.23 192.67 150.23H223.42C223.885 150.228 224.341 150.357 224.735 150.603C225.129 150.85 225.445 151.202 225.647 151.621C225.849 152.039 225.928 152.507 225.876 152.968C225.823 153.43 225.641 153.868 225.35 154.23L197.77 188.89H225.22C225.872 188.89 226.498 189.149 226.959 189.611C227.421 190.072 227.68 190.698 227.68 191.35C227.68 192.002 227.421 192.628 226.959 193.089C226.498 193.551 225.872 193.81 225.22 193.81V193.81Z" fill="white"/>
<path d="M176.87 140.88C176.389 140.881 175.917 140.74 175.516 140.475C175.114 140.21 174.799 139.833 174.61 139.39L160.12 105.68L145.63 139.39C145.508 139.694 145.326 139.97 145.095 140.203C144.864 140.436 144.589 140.62 144.286 140.745C143.983 140.87 143.658 140.933 143.331 140.931C143.003 140.929 142.679 140.861 142.378 140.732C142.077 140.602 141.804 140.414 141.577 140.178C141.349 139.942 141.171 139.663 141.053 139.358C140.935 139.052 140.879 138.726 140.889 138.398C140.899 138.07 140.974 137.748 141.11 137.45L157.86 98.45C158.051 98.0097 158.367 97.635 158.769 97.372C159.17 97.109 159.64 96.9693 160.12 96.97V96.97C160.6 96.9693 161.07 97.109 161.471 97.372C161.873 97.635 162.189 98.0097 162.38 98.45L179.13 137.45C179.259 137.747 179.327 138.066 179.332 138.389C179.337 138.712 179.278 139.033 179.158 139.334C179.038 139.634 178.86 139.907 178.633 140.138C178.407 140.37 178.138 140.554 177.84 140.68C177.535 140.815 177.204 140.883 176.87 140.88V140.88Z" fill="#FFB815"/>
<path d="M168.38 125.72H151.62C150.968 125.72 150.342 125.461 149.881 125C149.419 124.538 149.16 123.913 149.16 123.26C149.16 122.608 149.419 121.982 149.881 121.521C150.342 121.059 150.968 120.8 151.62 120.8H168.38C169.032 120.8 169.658 121.059 170.12 121.521C170.581 121.982 170.84 122.608 170.84 123.26C170.84 123.913 170.581 124.538 170.12 125C169.658 125.461 169.032 125.72 168.38 125.72V125.72Z" fill="#FFB815"/>
<path d="M223.54 105.2H190.15C189.498 105.2 188.872 104.941 188.41 104.48C187.949 104.018 187.69 103.392 187.69 102.74C187.69 102.088 187.949 101.462 188.41 101.001C188.872 100.539 189.498 100.28 190.15 100.28H223.54C224.192 100.28 224.818 100.539 225.279 101.001C225.741 101.462 226 102.088 226 102.74C226 103.392 225.741 104.018 225.279 104.48C224.818 104.941 224.192 105.2 223.54 105.2Z" fill="white"/>
<path d="M223.54 116.51H190.15C189.498 116.51 188.872 116.251 188.41 115.789C187.949 115.328 187.69 114.702 187.69 114.05C187.69 113.398 187.949 112.772 188.41 112.31C188.872 111.849 189.498 111.59 190.15 111.59H223.54C224.192 111.59 224.818 111.849 225.279 112.31C225.741 112.772 226 113.398 226 114.05C226 114.702 225.741 115.328 225.279 115.789C224.818 116.251 224.192 116.51 223.54 116.51V116.51Z" fill="white"/>
<path d="M223.54 127.81H190.15C189.498 127.81 188.872 127.551 188.41 127.089C187.949 126.628 187.69 126.002 187.69 125.35C187.69 124.698 187.949 124.072 188.41 123.611C188.872 123.149 189.498 122.89 190.15 122.89H223.54C224.192 122.89 224.818 123.149 225.279 123.611C225.741 124.072 226 124.698 226 125.35C226 126.002 225.741 126.628 225.279 127.089C224.818 127.551 224.192 127.81 223.54 127.81Z" fill="white"/>
<path d="M223.54 139.12H190.15C189.498 139.12 188.872 138.861 188.41 138.399C187.949 137.938 187.69 137.312 187.69 136.66C187.69 136.008 187.949 135.382 188.41 134.92C188.872 134.459 189.498 134.2 190.15 134.2H223.54C224.192 134.2 224.818 134.459 225.279 134.92C225.741 135.382 226 136.008 226 136.66C226 137.312 225.741 137.938 225.279 138.399C224.818 138.861 224.192 139.12 223.54 139.12Z" fill="white"/>
<path d="M176.81 158.93H143.43C142.778 158.93 142.152 158.671 141.69 158.209C141.229 157.748 140.97 157.122 140.97 156.47C140.97 155.818 141.229 155.192 141.69 154.731C142.152 154.269 142.778 154.01 143.43 154.01H176.81C177.462 154.01 178.088 154.269 178.549 154.731C179.011 155.192 179.27 155.818 179.27 156.47C179.27 157.122 179.011 157.748 178.549 158.209C178.088 158.671 177.462 158.93 176.81 158.93V158.93Z" fill="white"/>
<path d="M176.81 170.23H143.43C142.778 170.23 142.152 169.971 141.69 169.51C141.229 169.048 140.97 168.422 140.97 167.77C140.97 167.118 141.229 166.492 141.69 166.031C142.152 165.569 142.778 165.31 143.43 165.31H176.81C177.462 165.31 178.088 165.569 178.549 166.031C179.011 166.492 179.27 167.118 179.27 167.77C179.27 168.422 179.011 169.048 178.549 169.51C178.088 169.971 177.462 170.23 176.81 170.23V170.23Z" fill="white"/>
<path d="M176.81 181.54H143.43C142.778 181.54 142.152 181.281 141.69 180.819C141.229 180.358 140.97 179.732 140.97 179.08C140.97 178.428 141.229 177.802 141.69 177.341C142.152 176.879 142.778 176.62 143.43 176.62H176.81C177.462 176.62 178.088 176.879 178.549 177.341C179.011 177.802 179.27 178.428 179.27 179.08C179.27 179.732 179.011 180.358 178.549 180.819C178.088 181.281 177.462 181.54 176.81 181.54V181.54Z" fill="white"/>
<path d="M176.81 192.85H143.43C142.778 192.85 142.152 192.591 141.69 192.129C141.229 191.668 140.97 191.042 140.97 190.39C140.97 189.738 141.229 189.112 141.69 188.65C142.152 188.189 142.778 187.93 143.43 187.93H176.81C177.462 187.93 178.088 188.189 178.549 188.65C179.011 189.112 179.27 189.738 179.27 190.39C179.27 191.042 179.011 191.668 178.549 192.129C178.088 192.591 177.462 192.85 176.81 192.85V192.85Z" fill="white"/>
</svg>
