<svg width="120" height="106" viewBox="0 0 120 106" fill="none" xmlns="http://www.w3.org/2000/svg">
<path d="M119.02 0.400024H0.0200195V105.4H119.02V0.400024Z" fill="#017244"/>
<path d="M69.25 30.72C73.7401 30.72 77.38 27.0398 77.38 22.5C77.38 17.9602 73.7401 14.28 69.25 14.28C64.7599 14.28 61.12 17.9602 61.12 22.5C61.12 27.0398 64.7599 30.72 69.25 30.72Z" fill="#FFB815"/>
<path d="M76.9999 19.48C76.875 19.1292 76.7107 18.7937 76.5099 18.48C76.1288 17.8147 75.6614 17.2028 75.1199 16.66C73.7855 15.331 72.0445 14.4872 70.1745 14.263C68.3046 14.0388 66.4135 14.4473 64.8028 15.4232C63.192 16.3992 61.9545 17.8864 61.2876 19.6476C60.6206 21.4089 60.5626 23.3428 61.1228 25.1408C61.6831 26.9389 62.8293 28.4976 64.3786 29.5682C65.928 30.6389 67.7912 31.16 69.6712 31.0482C71.5512 30.9365 73.3397 30.1985 74.7514 28.9518C76.163 27.7052 77.1166 26.0218 77.4599 24.17C77.7484 22.5944 77.589 20.9695 76.9999 19.48V19.48ZM74.6899 16.88C72.6877 16.8721 70.7627 17.6514 69.3299 19.05C68.8933 19.4675 68.5104 19.9378 68.1899 20.45C67.4163 20.2691 66.6311 20.1421 65.8399 20.07C66.4383 18.8307 67.2507 17.7068 68.2399 16.75C69.0252 15.9791 69.9178 15.3257 70.8899 14.81C72.3144 15.1366 73.6198 15.8533 74.6599 16.88H74.6899ZM69.1299 14.61C69.4642 14.6096 69.7981 14.6297 70.1299 14.67C69.3254 15.1593 68.5775 15.7362 67.8999 16.39C66.8289 17.4353 65.9549 18.6649 65.3199 20.02C64.8099 20.02 64.3199 20.02 63.7899 20.02C63.8999 18.9473 63.8697 17.8649 63.6999 16.8C65.1545 15.4077 67.0864 14.6242 69.0999 14.61H69.1299ZM63.2599 17.2C63.3649 18.127 63.3649 19.063 63.2599 19.99C62.6799 19.99 62.0999 20.07 61.5299 20.14C61.8741 19.0472 62.4544 18.0435 63.2299 17.2H63.2599ZM61.1799 22.57C61.177 21.9302 61.2509 21.2923 61.3999 20.67C61.9999 20.58 62.6099 20.52 63.2099 20.49C62.9616 22.0777 62.3934 23.5984 61.5399 24.96C61.2894 24.1877 61.1579 23.3818 61.1499 22.57H61.1799ZM63.5099 28.19C62.7529 27.4363 62.1544 26.5387 61.7499 25.55C62.7885 24.0315 63.4721 22.2987 63.7499 20.48C64.2099 20.48 64.6799 20.48 65.1399 20.48C64.8675 21.1263 64.6533 21.7956 64.4999 22.48C64.4999 22.48 64.3499 23.18 64.2999 23.64C64.0686 25.5141 64.2705 27.4162 64.8899 29.2C64.3853 28.9146 63.9125 28.576 63.4799 28.19H63.5099ZM69.1299 30.52C67.8758 30.5202 66.6392 30.2257 65.5199 29.66C64.7737 27.7922 64.5089 25.7668 64.7499 23.77V23.77C64.7938 23.4035 64.8572 23.0397 64.9399 22.68V22.68C65.1014 21.9573 65.329 21.251 65.6199 20.57C66.3968 20.6403 67.1684 20.7605 67.9299 20.93C67.1521 22.3676 66.8539 24.016 67.0788 25.635C67.3036 27.254 68.0398 28.7588 69.1799 29.93C69.3845 30.1427 69.6016 30.343 69.8299 30.53C69.5699 30.51 69.3299 30.52 69.0999 30.52H69.1299ZM74.7499 28.19C73.6065 29.3465 72.1318 30.1189 70.5299 30.4C70.1743 30.144 69.8399 29.8597 69.5299 29.55C68.4517 28.4367 67.7621 27.0047 67.5639 25.4676C67.3657 23.9305 67.6694 22.3704 68.4299 21.02C71.4723 21.7938 74.2585 23.3523 76.5099 25.54C76.0994 26.5357 75.4903 27.4374 74.7199 28.19H74.7499ZM76.9499 24.01C76.8883 24.3493 76.8013 24.6836 76.6899 25.01C74.4433 22.8729 71.6905 21.3416 68.6899 20.56C68.9808 20.1325 69.316 19.737 69.6899 19.38C70.4148 18.6791 71.2793 18.1388 72.2269 17.7942C73.1745 17.4496 74.1841 17.3085 75.1899 17.38C75.527 17.7735 75.8251 18.1988 76.0799 18.65C76.2631 18.9702 76.4203 19.3046 76.5499 19.65C77.081 21.0361 77.2093 22.5441 76.9199 24L76.9499 24.01Z" fill="#018D59"/>
<path d="M34.7999 35.9C38.0474 35.9 40.6799 33.2674 40.6799 30.02C40.6799 26.7726 38.0474 24.14 34.7999 24.14C31.5525 24.14 28.9199 26.7726 28.9199 30.02C28.9199 33.2674 31.5525 35.9 34.7999 35.9Z" fill="white"/>
<path d="M57.3599 62.6L46.7099 57.77L45.4799 42.83C45.4535 42.5381 45.511 42.2447 45.6457 41.9843C45.7803 41.7239 45.9865 41.5073 46.2399 41.36C49.1599 39.61 58.6999 32.93 57.4199 20.87C57.4199 20.87 57.1099 18.79 54.2699 18.92C51.4299 19.05 51.1299 22 51.1299 22C51.1299 22 52.4499 30.81 41.2499 36.29L34.1899 39.29V39.23L23.6299 44.75C23.0164 45.0698 22.5229 45.5798 22.2237 46.2036C21.9244 46.8274 21.8353 47.5313 21.9699 48.21L22.5199 59.21C22.551 60.0625 22.9109 60.8699 23.5243 61.4628C24.1377 62.0557 24.9568 62.388 25.8099 62.39C26.2398 62.3826 26.6637 62.2886 27.0564 62.1137C27.4492 61.9387 27.8026 61.6865 28.0957 61.3719C28.3888 61.0574 28.6155 60.687 28.7622 60.2829C28.909 59.8789 28.9728 59.4493 28.9499 59.02L28.4699 49.47L32.6799 47.27C32.7688 47.2242 32.8678 47.2018 32.9677 47.2048C33.0676 47.2078 33.1651 47.2361 33.251 47.287C33.337 47.338 33.4086 47.41 33.4591 47.4962C33.5097 47.5825 33.5374 47.6801 33.5399 47.78L33.9499 60.78L30.9499 75.69L21.1499 92.69C20.7093 93.4172 20.5672 94.2868 20.7536 95.1164C20.9401 95.946 21.4405 96.6713 22.1499 97.14C22.5152 97.3665 22.9222 97.5174 23.3468 97.5836C23.7714 97.6499 24.205 97.6302 24.6219 97.5258C25.0387 97.4213 25.4304 97.2342 25.7737 96.9756C26.1169 96.7169 26.4046 96.392 26.6199 96.02L36.3099 79.25C36.7042 78.7895 36.9729 78.2349 37.0899 77.64L40.2399 61.98L50.1799 66.48C50.2359 66.5073 50.2848 66.5472 50.3227 66.5966C50.3605 66.6461 50.3863 66.7037 50.398 66.7649C50.4096 66.8261 50.4068 66.8892 50.3898 66.9491C50.3728 67.009 50.342 67.0641 50.2999 67.11L41.6799 76.2C41.0953 76.8207 40.7799 77.6474 40.8023 78.4997C40.8248 79.3521 41.1834 80.161 41.7999 80.75C42.4206 81.3346 43.2473 81.6501 44.0996 81.6276C44.952 81.6051 45.7609 81.2465 46.3499 80.63L58.0999 68.23C58.5472 67.8768 58.8923 67.4108 59.0999 66.88C59.4277 66.0808 59.4292 65.1849 59.1039 64.3847C58.7785 63.5845 58.1524 62.9437 57.3599 62.6V62.6Z" fill="white"/>
<path d="M83.2001 32.71H60.9601C60.3139 32.71 59.79 33.2338 59.79 33.88V33.89C59.79 34.5362 60.3139 35.06 60.9601 35.06H83.2001C83.8462 35.06 84.3701 34.5362 84.3701 33.89V33.88C84.3701 33.2338 83.8462 32.71 83.2001 32.71Z" fill="white"/>
<path d="M74 54.56L74.34 54.19L76.47 51.9L76.8 51.54L78.8 49.35L79.06 49.08L79.32 48.8C79.3146 48.8297 79.3146 48.8603 79.32 48.89V49.09C79.32 49.24 79.32 49.39 79.32 49.55L79.07 49.82L78.82 50.09L77.15 51.89L76.81 52.25L74.67 54.56L74.33 54.92" fill="white"/>
<path d="M69.28 54.56L69.61 54.19L71.61 51.94L71.94 51.58L73.94 49.34L74.27 48.97L76.74 46.25L77.07 45.89L78.9 44L79.23 43.64L79.44 43.41L79.75 43.07L80.07 42.72C80.07 42.85 80.01 42.98 79.99 43.12C79.9503 43.2915 79.9203 43.4651 79.9 43.64L79.59 43.98L79.31 44.3V44.35L77.57 46.26L77.24 46.63L74.75 49.37L74.42 49.73L72.42 51.98L72.09 52.35L70.09 54.59L69.76 54.96" fill="white"/>
<path d="M64.69 34.7L64.6 34.79L64.29 35.06L62.83 36.38L62.65 36.55L62.46 36.72V36.66L62.25 36.26L62.44 36.1L62.62 35.93L63.62 35.06L64.3 34.45L64.43 34.34L64.69 34.7Z" fill="white"/>
<path d="M74.81 34.28L74.68 34.41L74.33 34.76L74.02 35.06L72.35 36.73L72 37.08L70 39.08L69.65 39.43L67.38 41.7L67.03 42.05L65.09 44L64.73 44.35L64.43 44.02L64.66 43.8L64.78 43.67L66.66 41.8L67.01 41.46L69.27 39.2L69.62 38.86L71.68 36.8L72.03 36.46L73.36 35.13L73.74 34.75L70.74 34.48L70.13 34.43L69.72 34.83L69.41 35.13L67.58 36.93L67.23 37.27L65 39.35L64.65 39.69L64 40.33C64 40.14 63.91 39.96 63.86 39.78L64.3 39.34L64.65 39L66.82 36.87L67.17 36.52L68.66 35.06L69.32 34.41L69.74 34L69.89 33.84L70.69 33.91L73.47 34.16H73.71L74.49 34.23L74.81 34.28Z" fill="white"/>
<path d="M82.44 35.8C82.32 36 82.2 36.22 82.09 36.44V36.5C82.03 36.64 81.97 36.76 81.91 36.89V36.95C81.86 37.05 81.82 37.15 81.77 37.26L81.31 37.73L80.86 38.19L79.76 39.32L79.42 39.68L77.42 41.68L77.08 42.03L75.15 44L74.81 44.36L72.34 46.9L71.99 47.26L69.99 49.35L69.64 49.7L67.51 51.9L67.16 52.26L65.16 54.26L64.89 54.53C64.89 54.53 64.89 54.26 64.94 53.77L65.21 53.5L66.8 51.86L67.14 51.51L69.28 49.31L69.62 48.95L71.62 46.87L71.96 46.52L74.42 43.99L74.76 43.64L76.64 41.71L76.98 41.35L78.98 39.35L79.33 39L81.28 37L81.54 36.73L81.81 36.46L81.89 36.38L82.44 35.8Z" fill="white"/>
<path d="M83.05 34.86C82.9639 34.9654 82.8837 35.0756 82.8101 35.19V35.19H82.55L82.29 35.14L81.9901 35.09L80.1301 34.78L79.5601 34.69L79.42 34.81L79.1301 35.09L77.2001 36.9L76.8301 37.24L74.7701 39.17L74.41 39.51L72.41 41.42L72.04 41.76L69.5901 44.06L69.23 44.4L67.23 46.3L66.8701 46.64L65.3 48.1L65.0601 48.33C65.0601 48.12 65.0601 47.9 65.0601 47.68L65.3 47.46L66.5701 46.27L66.9301 45.93L68.9301 44.05L69.29 43.71L71.72 41.42L72.0901 41.09L74.0901 39.16L74.4501 38.82L76.5101 36.89L76.8701 36.55L78.4301 35.09L79.4301 34.16H79.4901L82.6301 34.68H82.9001L83.05 34.86Z" fill="white"/>
<path d="M69.62 54.92L69.28 54.56L67.14 52.26L66.81 51.89L65 50C65 49.76 65 49.52 65 49.27L67.12 51.55L67.46 51.91L69.58 54.2L69.92 54.56" fill="white"/>
<path d="M64.2401 34.45L61.8801 34.84L61.6 34.89H61.3201L61.05 34.58L61.23 34.41L61.5201 34.36L64.4001 33.88L65.6201 35.02L67.17 36.48L67.5301 36.82L69.5901 38.75L69.9501 39.08L72.0101 41.02L72.3701 41.35L74.79 43.63L75.1501 43.96L77.1501 45.85L77.5101 46.18L78.9501 47.53L79.1801 47.74L79.42 47.97V48.35V48.4C79.42 48.47 79.42 48.54 79.42 48.61L79.1901 48.39L78.9501 48.16L77.22 46.55L76.86 46.21L74.86 44.32L74.5001 43.98L72.0001 41.73L71.6401 41.39L69.6401 39.47L69.2801 39.13L67.22 37.2L66.86 36.87L64.9401 35.06L64.6401 34.79L64.2801 34.45H64.2401Z" fill="white"/>
<path d="M79.4799 55L79.2199 54.74L78.96 54.46L76.84 52.29L76.4999 51.94L74.3599 49.73L74.02 49.38L72.02 47.3L71.6799 46.94L69.2199 44.41L68.8799 44.06L66.9999 42.09L66.65 41.73L64.65 39.73L64.2999 39.38L63.8499 38.9L63.45 38.5L62.9999 38L62.7399 37.35C62.6399 37.13 62.5299 36.92 62.4199 36.71L62.96 37.26L63.4199 37.73L64.6099 38.97L64.96 39.32L66.96 41.32L67.3099 41.67L69.1899 43.61L69.53 43.96L71.9699 46.48L72.3199 46.83L74.3199 48.9L74.6599 49.26L76.7999 51.47L77.15 51.82L78.8799 53.61L79.15 53.87L79.4099 54.14V54.61C79.4699 54.77 79.4799 54.87 79.4799 55Z" fill="white"/>
<path d="M74.7 54.56L74.37 54.19L72.37 51.94L72.04 51.58L70.04 49.35L69.7 48.98L67.24 46.27L66.91 45.9L65.09 44L64.89 43.78L64.75 43.63L64.59 43.46C64.59 43.56 64.59 43.66 64.59 43.76L64.37 43.97L64.65 44.28L64.91 44.56L66.4 46.2L66.73 46.57L69.21 49.3L69.54 49.66L71.54 51.9L71.87 52.27L73.87 54.52L74.2 54.88" fill="white"/>
<path d="M80.64 40.27C80.64 40.4 80.57 40.52 80.54 40.65V40.79L80.33 40.59L80.13 40.4L79.39 39.67L79.03 39.32L76.86 37.19L76.51 36.84L74.68 35.04L74.37 34.74L73.79 34.16H73.59L70.79 34.41L70.17 34.47L70.77 35.06L72.1 36.39L72.45 36.73L74.51 38.79L74.86 39.14L77.11 41.38L77.46 41.73L79.33 43.6L79.48 43.74L79.68 43.94L79.9 44.16L79.84 44.58V44.77L79.4 44.33L79.02 43.95L77 42.08L76.65 41.74L74.38 39.48L74.03 39.13L72.03 37.08L71.68 36.73L70 35.06L69.34 34.41L69 34.07L69.76 34L70.76 33.91L73.95 33.63L74.58 34.25L74.73 34.41L75.4 35.06L76.88 36.52L77.24 36.87L79.39 38.99L79.74 39.33L80.29 39.87L80.49 40.07L80.64 40.27Z" fill="white"/>
<path d="M82.06 36.5C82 36.64 81.94 36.76 81.88 36.89V36.95L81.69 36.78L81.59 36.69L81.49 36.6L79.76 35.05L79.45 34.77L79.13 34.48L79.45 34.12L80.13 34.73L80.47 35.04L81.69 36.14L81.88 36.31L82.06 36.5Z" fill="white"/>
<path d="M64.73 54.74C64.73 54.74 64.73 54.31 64.73 53.74C64.73 53.17 64.8 51.86 64.79 49.96V48.9C64.79 48.7 64.79 48.48 64.79 48.27V47.63C64.74 46.57 64.6501 45.46 64.5301 44.33V44.25C64.5301 44.15 64.5301 44.04 64.5301 43.93C64.5301 43.82 64.5301 43.93 64.5301 43.93C64.5301 43.93 64.5301 43.85 64.5301 43.81V43.45C64.3861 42.4173 64.1891 41.3926 63.9401 40.38L63.8 39.83C63.69 39.41 63.5601 38.99 63.4001 38.53L63.0001 38L62.7401 37.35C62.6401 37.13 62.53 36.92 62.42 36.71V36.65L62.2101 36.25C62.014 35.9037 61.7969 35.5698 61.5601 35.25L61.4301 35.09L61.3401 34.97L61.0701 34.66L61.2501 34.49L61.4301 34.32L61.54 34.44C61.64 34.55 61.7301 34.66 61.8201 34.78L61.9001 34.88V34.95C62.1421 35.2683 62.3625 35.6024 62.5601 35.95V36C62.64 36.1279 62.7102 36.2616 62.7701 36.4V36.45C62.9001 36.7 63.0201 36.95 63.1401 37.21L63.3701 37.78C63.4501 37.99 63.5201 38.2 63.5901 38.4L63.7601 38.88C63.8267 39.1333 63.8967 39.3733 63.97 39.6C63.97 39.65 63.97 39.69 63.97 39.74L64.0701 40.15V40.28C64.3101 41.28 64.51 42.28 64.67 43.41V43.53V43.77C64.67 43.9 64.67 44.02 64.67 44.14C64.67 44.26 64.67 44.24 64.67 44.28V44.33V44.62C64.77 45.62 64.8501 46.54 64.8901 47.45C64.895 47.5199 64.895 47.5901 64.8901 47.66C64.8901 47.8 64.8901 47.95 64.8901 48.09C64.8901 48.23 64.8901 48.24 64.8901 48.31C64.8901 48.38 64.8901 48.74 64.8901 48.95V50.28C64.8901 51.78 64.8901 52.94 64.8201 53.55C64.8201 53.67 64.8201 53.76 64.8201 53.84C64.8201 53.92 64.8201 54.19 64.8201 54.31" fill="white"/>
<path d="M79 54.42V53.96C79 53.86 79 53.77 79 53.68C78.94 52.43 78.92 51.23 78.94 50.09V49.82C78.94 49.66 78.94 49.5 78.94 49.35C78.9448 49.2567 78.9448 49.1633 78.94 49.07V48.87C78.94 48.72 78.94 48.56 78.94 48.42V48.36C78.94 48.31 78.94 48.25 78.94 48.2C78.94 48.15 78.94 47.91 78.94 47.76C78.94 47.61 78.94 47.63 78.94 47.57C79 46.57 79.11 45.57 79.25 44.52V44.34V44.26L79.3 43.92V43.74L79.36 43.37C79.36 43.24 79.36 43.11 79.43 42.99C79.58 42.14 79.77 41.31 79.97 40.55C79.9643 40.5068 79.9643 40.4632 79.97 40.42C79.9886 40.3289 80.012 40.2387 80.04 40.15V40.01C80.0444 39.9634 80.0444 39.9166 80.04 39.87C80.21 39.28 80.4 38.72 80.59 38.2C80.66 38.02 80.73 37.85 80.79 37.68L81.08 37C81.08 36.91 81.17 36.81 81.21 36.71V36.64L81.36 36.35C81.3844 36.3089 81.4045 36.2653 81.42 36.22V36.22C81.5977 35.8577 81.7981 35.507 82.02 35.17C82.0328 35.138 82.0496 35.1078 82.07 35.08L82.15 34.96L82.32 34.72L82.4 34.61L82.59 34.77L82.79 34.92C82.7038 35.0254 82.6237 35.1355 82.55 35.25V35.25V35.33C82.45 35.5 82.34 35.66 82.24 35.85C82.14 36.04 82 36.27 81.89 36.49V36.55C81.83 36.69 81.77 36.81 81.71 36.94V37C81.66 37.1 81.62 37.2 81.57 37.31L81.35 37.83C81.07 38.52 80.81 39.29 80.56 40.13V40.26C80.56 40.39 80.49 40.51 80.46 40.64V40.78C80.29 41.38 80.16 42 80.03 42.65C80.03 42.78 79.97 42.91 79.95 43.05C79.9103 43.2215 79.8802 43.3951 79.86 43.57C79.86 43.7 79.86 43.82 79.79 43.95V44.14L79.73 44.56V44.75C79.59 45.75 79.5 46.75 79.44 47.75C79.435 47.8199 79.435 47.8901 79.44 47.96V48.34V48.39C79.44 48.46 79.44 48.53 79.44 48.6V48.75C79.4346 48.7798 79.4346 48.8102 79.44 48.84V49.04C79.44 49.19 79.44 49.34 79.44 49.5C79.44 49.66 79.44 49.68 79.44 49.78C79.44 51.07 79.44 52.45 79.52 53.88V54.16V54.63" fill="white"/>
<path d="M98.4 40.75L94.15 39.79V26.94L98.4 27.78V40.75Z" fill="white"/>
<path d="M94.5601 29.58H86.5601V34.81H94.5601V29.58Z" fill="white"/>
<path d="M88.71 34.18C88.71 34.18 90.1799 38.24 94.3099 36.95V34.18H88.71Z" fill="white"/>
<path d="M92.5601 8.27002H90.5601V62.18H92.5601V8.27002Z" fill="white"/>
<path d="M86.8201 31C86.8201 31 77.8201 33 73.9301 32.66C73.6575 32.6287 73.3834 32.7054 73.1666 32.8736C72.9498 33.0418 72.8075 33.2882 72.7701 33.56C72.6801 34.44 73.0101 35.56 75.2501 35.89C78.9901 36.38 87.1901 37.36 87.7701 34.16C88.3501 30.96 86.8201 31 86.8201 31Z" fill="white"/>
<path d="M75.9099 35.1C76.4512 35.1 76.89 34.6612 76.89 34.12C76.89 33.5788 76.4512 33.14 75.9099 33.14C75.3687 33.14 74.9299 33.5788 74.9299 34.12C74.9299 34.6612 75.3687 35.1 75.9099 35.1Z" fill="#1D1D66"/>
<path d="M79.6899 34.81C80.2312 34.81 80.6699 34.3712 80.6699 33.83C80.6699 33.2887 80.2312 32.85 79.6899 32.85C79.1487 32.85 78.71 33.2887 78.71 33.83C78.71 34.3712 79.1487 34.81 79.6899 34.81Z" fill="#1D1D66"/>
<path d="M83.95 34.16C84.4913 34.16 84.93 33.7212 84.93 33.18C84.93 32.6388 84.4913 32.2 83.95 32.2C83.4088 32.2 82.97 32.6388 82.97 33.18C82.97 33.7212 83.4088 34.16 83.95 34.16Z" fill="#1D1D66"/>
</svg>
