<svg width="371" height="260" viewBox="0 0 371 260" fill="none" xmlns="http://www.w3.org/2000/svg">
<path d="M370.33 0.700012H0.0999756V259.7H370.33V0.700012Z" fill="#017244"/>
<path d="M185.22 214.13C231.573 214.13 269.15 176.553 269.15 130.2C269.15 83.8468 231.573 46.27 185.22 46.27C138.867 46.27 101.29 83.8468 101.29 130.2C101.29 176.553 138.867 214.13 185.22 214.13Z" fill="#085B35"/>
<path d="M201.33 88.48C207.77 88.48 212.99 83.206 212.99 76.7C212.99 70.1941 207.77 64.92 201.33 64.92C194.89 64.92 189.67 70.1941 189.67 76.7C189.67 83.206 194.89 88.48 201.33 88.48Z" fill="#FFB815"/>
<path d="M212.38 72.36C212.38 72.36 212.38 72.36 212.38 72.31C212.204 71.7949 211.969 71.3017 211.68 70.84C210.135 68.0866 207.58 66.041 204.556 65.1344C201.531 64.2279 198.273 64.5314 195.468 65.9808C192.662 67.4302 190.53 69.9124 189.519 72.9038C188.509 75.8953 188.7 79.1622 190.051 82.0158C191.403 84.8693 193.81 87.0864 196.765 88.1996C199.719 89.3128 202.991 89.235 205.89 87.9827C208.788 86.7304 211.087 84.4014 212.302 81.4869C213.516 78.5724 213.551 75.3 212.4 72.36H212.38ZM209.08 68.63C206.208 68.6261 203.448 69.7459 201.39 71.75C200.769 72.3496 200.222 73.021 199.76 73.75C198.653 73.4938 197.531 73.3068 196.4 73.19C197.956 69.9803 200.486 67.3447 203.63 65.66C205.688 66.1219 207.576 67.1507 209.08 68.63V68.63ZM201.08 65.39C201.555 65.3898 202.029 65.4198 202.5 65.48C199.494 67.2932 197.096 69.9596 195.61 73.14C194.88 73.09 194.14 73.07 193.41 73.08C193.57 71.5446 193.53 69.995 193.29 68.47C195.404 66.477 198.205 65.3741 201.11 65.39H201.08ZM192.66 69.1C192.82 70.4285 192.82 71.7715 192.66 73.1C191.84 73.1 191.01 73.21 190.19 73.32C190.704 71.747 191.557 70.3063 192.69 69.1H192.66ZM189.66 76.79C189.658 75.87 189.769 74.9531 189.99 74.06C190.84 73.94 191.71 73.85 192.58 73.81C192.229 76.0874 191.416 78.2689 190.19 80.22C189.854 79.1084 189.692 77.9513 189.71 76.79H189.66ZM193 84.85C191.918 83.7671 191.065 82.4784 190.49 81.06C191.957 78.8765 192.917 76.3926 193.3 73.79C193.96 73.79 194.62 73.79 195.3 73.79C194.909 74.7383 194.602 75.7186 194.38 76.72V76.72C194.38 76.72 194.16 77.72 194.09 78.39C193.754 81.0866 194.045 83.8242 194.94 86.39C194.257 85.9457 193.623 85.4294 193.05 84.85H193ZM201.06 88.18C199.263 88.1872 197.491 87.7655 195.89 86.95C194.815 84.2786 194.433 81.3786 194.78 78.52C194.78 78.52 194.78 78.52 194.78 78.52C194.84 77.9952 194.93 77.4743 195.05 76.96V76.96C195.287 75.9305 195.622 74.926 196.05 73.96C197.16 74.0607 198.262 74.2311 199.35 74.47C198.138 76.7206 197.747 79.3233 198.245 81.8308C198.743 84.3382 200.099 86.5938 202.08 88.21C201.78 88.17 201.45 88.18 201.11 88.18H201.06ZM209.12 84.85C207.478 86.5023 205.364 87.6061 203.07 88.01C200.994 86.5393 199.538 84.3503 198.984 81.8673C198.429 79.3843 198.817 76.7839 200.07 74.57C204.433 75.6724 208.428 77.9078 211.65 81.05C211.09 82.4721 210.246 83.7651 209.17 84.85H209.12ZM212.27 78.85C212.177 79.3439 212.054 79.8316 211.9 80.31C208.68 77.2496 204.738 75.0547 200.44 73.93C201.449 72.4197 202.838 71.2021 204.467 70.3998C206.096 69.5974 207.908 69.2388 209.72 69.36C210.201 69.9205 210.627 70.5267 210.99 71.17C211.258 71.6331 211.485 72.1182 211.67 72.62C212.47 74.5972 212.696 76.7603 212.32 78.86L212.27 78.85Z" fill="#017244"/>
<path d="M151.95 95.9C156.606 95.9 160.38 92.1258 160.38 87.47C160.38 82.8143 156.606 79.04 151.95 79.04C147.294 79.04 143.52 82.8143 143.52 87.47C143.52 92.1258 147.294 95.9 151.95 95.9Z" fill="white"/>
<path d="M184.28 134.16L169 127.24L167.24 105.83C167.203 105.412 167.285 104.993 167.476 104.62C167.667 104.246 167.96 103.935 168.32 103.72C172.51 101.21 186.18 91.64 184.32 74.36C184.32 74.36 183.87 71.36 179.81 71.56C175.75 71.76 175.3 75.98 175.3 75.98C175.3 75.98 177.2 88.61 161.15 96.45L151.03 100.73L150.98 100.63L135.84 108.55C134.963 109.009 134.257 109.738 133.827 110.63C133.396 111.521 133.264 112.528 133.45 113.5L134.25 129.27C134.296 130.491 134.812 131.648 135.689 132.499C136.566 133.35 137.738 133.831 138.96 133.84C139.577 133.827 140.185 133.691 140.748 133.439C141.311 133.187 141.818 132.825 142.238 132.374C142.659 131.922 142.985 131.391 143.196 130.812C143.408 130.232 143.501 129.616 143.47 129L142.77 115.32L148.77 112.17C148.896 112.104 149.037 112.071 149.18 112.074C149.322 112.077 149.462 112.117 149.585 112.189C149.708 112.261 149.81 112.363 149.883 112.486C149.956 112.608 149.996 112.747 150 112.89L150.59 131.47L146.29 152.84L132.29 177.15C131.662 178.199 131.464 179.45 131.738 180.641C132.012 181.832 132.737 182.871 133.76 183.54C134.284 183.865 134.868 184.082 135.477 184.177C136.086 184.271 136.708 184.243 137.306 184.093C137.904 183.943 138.466 183.674 138.958 183.302C139.45 182.931 139.862 182.464 140.17 181.93L154.05 157.93C154.614 157.272 155 156.48 155.17 155.63L159.69 133.18L174 139.6C174.082 139.637 174.153 139.693 174.209 139.764C174.264 139.835 174.302 139.918 174.319 140.006C174.335 140.094 174.33 140.185 174.305 140.271C174.279 140.357 174.233 140.436 174.17 140.5L161.83 153.5C161.413 153.937 161.087 154.453 160.87 155.017C160.653 155.58 160.55 156.181 160.566 156.785C160.581 157.389 160.716 157.984 160.962 158.536C161.209 159.087 161.561 159.585 162 160C162.886 160.839 164.07 161.293 165.29 161.261C166.511 161.229 167.669 160.715 168.51 159.83L185.35 142.07C186.015 141.568 186.53 140.893 186.84 140.12C187.253 138.987 187.218 137.74 186.743 136.632C186.267 135.524 185.386 134.64 184.28 134.16V134.16Z" fill="white"/>
<path d="M221.36 91.33H189.41C188.504 91.33 187.77 92.0642 187.77 92.97V93.06C187.77 93.9657 188.504 94.7 189.41 94.7H221.36C222.266 94.7 223 93.9657 223 93.06V92.97C223 92.0642 222.266 91.33 221.36 91.33Z" fill="white"/>
<path d="M208.18 122.64L208.66 122.11L211.72 118.82L212.2 118.31L215.1 115.18L215.47 114.78L215.84 114.38C215.835 114.423 215.835 114.467 215.84 114.51V114.79C215.84 115.01 215.84 115.23 215.84 115.46L215.47 115.85L215.11 116.23L212.72 118.81L212.24 119.33L209.17 122.64L208.69 123.16" fill="white"/>
<path d="M201.37 122.64L201.85 122.11L204.78 118.88L205.25 118.36L208.16 115.16L208.64 114.63L212.18 110.73L212.66 110.21L215.16 107.45L215.64 106.93L215.93 106.61L216.37 106.12L216.83 105.61C216.83 105.8 216.75 105.99 216.72 106.18C216.69 106.37 216.63 106.68 216.58 106.94L216.15 107.42L215.74 107.87L215.68 107.94L213.18 110.68L212.71 111.2L209.14 115.13L208.67 115.65L205.74 118.87L205.26 119.4L202.34 122.62L201.86 123.14" fill="white"/>
<path d="M194.8 94.18L194.66 94.3L194.22 94.7L192.13 96.58L191.86 96.82L191.59 97.07V96.98L191.29 96.42L191.56 96.18L191.83 95.94L193.21 94.7L194.21 93.82L194.39 93.66L194.8 94.18Z" fill="white"/>
<path d="M209.3 93.57L209.12 93.76L208.61 94.26L208.17 94.7L205.77 97.09L205.27 97.59L202.33 100.52L201.83 101.02L198.57 104.27L198.07 104.76L195.36 107.47L194.85 107.96C194.856 107.934 194.856 107.906 194.85 107.88V107.88L194.42 107.41L194.75 107.08L194.92 106.91L197.61 104.22L198.11 103.73L201.35 100.5L201.85 100.01L204.85 97.01L205.35 96.52L207.25 94.62L207.8 94.06L203.47 93.68L202.59 93.6L202.01 94.18L201.56 94.62L198.95 97.19L198.44 97.68L195.31 100.75L194.81 101.25L193.89 102.16L193.68 101.38L194.32 100.75L194.82 100.25L197.92 97.2L198.43 96.71L200.56 94.62L201.51 93.68L202.1 93.09L202.33 92.87L203.47 92.97L207.47 93.33H207.81L208.93 93.43L209.3 93.57Z" fill="white"/>
<path d="M220.23 95.75C220.06 96.04 219.89 96.35 219.73 96.67C219.716 96.7014 219.699 96.7316 219.68 96.76V96.76L219.41 97.31V97.4L219.21 97.84L218.54 98.52L217.91 99.18L216.33 100.79L215.84 101.3L213 104.25L212.51 104.76L209.84 107.51L209.34 108.02L205.8 111.66L205.31 112.17L202.41 115.17L201.91 115.68L198.85 118.83L198.36 119.34L195.53 122.25L195.14 122.64C195.14 122.64 195.14 122.25 195.21 121.55L195.59 121.17L197.88 118.81L198.37 118.31L201.43 115.15L201.92 114.64L204.82 111.64L205.31 111.14L208.83 107.52L209.32 107.01L212.01 104.24L212.5 103.73L215.34 100.81L215.84 100.3L218.63 97.42L219.01 97.03L219.39 96.64L219.5 96.53L220.23 95.75Z" fill="white"/>
<path d="M221.1 94.41C220.977 94.5632 220.864 94.7235 220.76 94.89L220.38 94.83L220.01 94.77L219.57 94.7L216.92 94.25L216.1 94.12L215.91 94.29L215.49 94.7L212.72 97.29L212.2 97.77L209.25 100.54L208.73 101.02L205.82 103.77L205.29 104.25L201.77 107.55L201.27 108.03L198.37 110.75L197.85 111.24L195.61 113.34L195.26 113.66C195.26 113.36 195.26 113.05 195.26 112.74L195.6 112.42L197.41 110.72L197.94 110.23L200.81 107.53L201.33 107.04L204.82 103.77L205.34 103.29L208.27 100.52L208.79 100.04L211.74 97.27L212.26 96.79L214.49 94.7L215.91 93.36H215.99L220.49 94.11L220.88 94.18L221.1 94.41Z" fill="white"/>
<path d="M201.85 123.15L201.37 122.64L198.31 119.34L197.83 118.81L195.3 116.1C195.3 115.76 195.3 115.41 195.3 115.1L198.3 118.37L198.78 118.89L201.83 122.17L202.31 122.69" fill="white"/>
<path d="M194.15 93.81L190.76 94.38L190.37 94.45L189.96 94.51C189.841 94.3535 189.714 94.2033 189.58 94.06L189.84 93.82L190.25 93.75L194.38 93.06L196.12 94.7L198.35 96.79L198.87 97.27L201.81 100.04L202.33 100.52L205.28 103.29L205.8 103.77L209.27 107.03L209.79 107.51L212.66 110.21L213.17 110.69L215.23 112.62L215.56 112.93L215.9 113.25C215.9 113.42 215.9 113.61 215.9 113.79V113.86C215.9 113.97 215.9 114.07 215.9 114.17L215.56 113.85L215.22 113.53L212.75 111.21L212.23 110.73L209.29 108L208.78 107.52L205.27 104.23L204.76 103.75L201.83 101L201.31 100.51L198.36 97.74L197.84 97.26L195.09 94.68L194.66 94.28L194.15 93.8V93.81Z" fill="white"/>
<path d="M216 123.21L215.63 122.83L215.25 122.44L212.25 119.33L211.76 118.82L208.7 115.66L208.2 115.16L205.3 112.16L204.81 111.65L201.25 108L200.75 107.5L198.07 104.73L197.57 104.22L194.73 101.3L194.24 100.8L193.58 100.11L193.02 99.53L192.42 98.92C192.31 98.63 192.19 98.32 192.05 97.99C191.91 97.66 191.76 97.37 191.6 97.07L192.37 97.86L193.02 98.53L194.74 100.3L195.23 100.8L198.07 103.73L198.57 104.24L201.27 107.01L201.75 107.52L205.26 111.13L205.75 111.63L208.64 114.63L209.13 115.14L212.2 118.31L212.69 118.81L215.18 121.37L215.55 121.75L215.93 122.14V122.81C216 123 216 123.08 216 123.21Z" fill="white"/>
<path d="M209.14 122.64L208.66 122.11L205.73 118.88L205.25 118.36L202.36 115.17L201.87 114.64L198.35 110.75L197.88 110.23L195.36 107.47L195.07 107.15L194.88 106.94L194.65 106.68L194.71 107.11L194.39 107.43L194.8 107.88L195.17 108.29L197.3 110.64L197.78 111.16L201.33 115.07L201.81 115.6L204.73 118.8L205.2 119.33L208.13 122.56L208.61 123.08" fill="white"/>
<path d="M217.65 102.16L217.5 102.7C217.496 102.77 217.496 102.84 217.5 102.91L217.2 102.62L216.91 102.34L215.85 101.29L215.34 100.8L212.23 97.74L211.73 97.24L209.1 94.67L208.66 94.23L207.82 93.41V93.35H207.53L203.53 93.7L202.64 93.78L203.5 94.64L205.41 96.54L205.91 97.03L208.91 100.03L209.41 100.53L212.63 103.74L213.13 104.24L215.82 106.92L216.02 107.13L216.32 107.42L216.63 107.72L216.54 108.33C216.535 108.42 216.535 108.51 216.54 108.6L215.91 107.97L215.36 107.43L212.66 104.74L212.16 104.24L208.71 101L208.21 100.5L205.27 97.57L204.77 97.07L202.37 94.68L201.43 93.74L200.94 93.25L202.02 93.15L203.39 93.03L207.97 92.63L208.87 93.52L209.1 93.74L210.05 94.68L212.18 96.77L212.68 97.27L215.77 100.27L216.27 100.76L217.06 101.54L217.34 101.82L217.65 102.16Z" fill="white"/>
<path d="M219.68 96.76L219.41 97.31V97.4L219.13 97.16L219 97.04L218.86 96.91L216.38 94.69L215.93 94.28L215.47 93.87L215.93 93.36L216.93 94.24L217.42 94.69L219.16 96.25L219.44 96.5L219.68 96.76Z" fill="white"/>
<path d="M194.84 122.89C194.84 122.89 194.84 122.29 194.84 121.53C194.84 120.77 194.94 118.82 194.92 116.1V114.59V113.68C194.92 113.37 194.92 113.07 194.92 112.76C194.85 111.25 194.72 109.66 194.54 108.04V107.92C194.54 107.78 194.54 107.62 194.48 107.46C194.484 107.397 194.484 107.333 194.48 107.27L194.41 106.76C194.208 105.276 193.927 103.804 193.57 102.35L193.37 101.58C193.21 100.98 193.02 100.36 192.79 99.71C192.72 99.47 192.62 99.23 192.53 98.98C192.44 98.73 192.3 98.38 192.16 98.05C192.02 97.72 191.87 97.43 191.71 97.13V97.04L191.41 96.48C191.413 96.4601 191.413 96.4399 191.41 96.42C191.136 95.912 190.822 95.4271 190.47 94.97C190.415 94.8865 190.355 94.8063 190.29 94.73C190.25 94.6743 190.206 94.6209 190.16 94.57C190.041 94.4135 189.914 94.2633 189.78 94.12L190.04 93.88L190.3 93.64L190.45 93.81C190.59 93.96 190.72 94.13 190.85 94.29L190.96 94.44L191.04 94.54C191.403 95.0054 191.737 95.493 192.04 96C192.037 96.0232 192.037 96.0468 192.04 96.07C192.14 96.25 192.24 96.45 192.34 96.64L192.39 96.72C192.57 97.07 192.74 97.43 192.91 97.81C193.08 98.19 193.13 98.36 193.23 98.62C193.33 98.88 193.46 99.22 193.56 99.51C193.66 99.8 193.71 99.98 193.79 100.2C193.87 100.42 194 100.89 194.09 101.2C194.118 101.261 194.138 101.324 194.15 101.39L194.31 101.99V102.18C194.64 103.57 194.93 105.07 195.16 106.66V106.83L195.21 107.18C195.21 107.36 195.26 107.53 195.28 107.71C195.285 107.777 195.285 107.843 195.28 107.91V107.99C195.28 108.12 195.28 108.26 195.28 108.4C195.43 109.79 195.53 111.14 195.6 112.45C195.595 112.55 195.595 112.65 195.6 112.75C195.6 112.95 195.6 113.16 195.6 113.37V113.69C195.6 113.99 195.6 114.3 195.6 114.6V115.45V116.51C195.6 118.66 195.54 120.31 195.49 121.2C195.49 121.36 195.49 121.5 195.49 121.61C195.49 121.88 195.49 122.11 195.49 122.28" fill="white"/>
<path d="M215.24 122.44V121.77C215.24 121.64 215.24 121.51 215.24 121.37C215.15 119.58 215.12 117.86 215.14 116.23C215.14 116.09 215.14 115.97 215.14 115.84C215.14 115.71 215.14 115.39 215.14 115.18C215.14 114.97 215.14 114.9 215.14 114.77V114.48C215.14 114.26 215.14 114.05 215.14 113.83V113.76C215.14 113.68 215.14 113.6 215.14 113.53C215.14 113.46 215.14 113.11 215.14 112.9C215.135 112.807 215.135 112.713 215.14 112.62C215.23 111.17 215.38 109.71 215.58 108.25V107.99V107.88L215.65 107.39V107.14C215.65 106.95 215.71 106.78 215.74 106.61C215.77 106.44 215.8 106.23 215.84 106.06C216.06 104.83 216.32 103.65 216.62 102.56C216.631 102.495 216.647 102.432 216.67 102.37C216.67 102.25 216.73 102.12 216.77 101.99L216.83 101.78L216.89 101.59C217.13 100.74 217.4 99.94 217.68 99.2C217.77 98.94 217.87 98.69 217.97 98.45V98.4C218.11 98.06 218.25 97.74 218.38 97.4L218.57 96.98L218.62 96.88L218.82 96.46C218.849 96.3944 218.882 96.3309 218.92 96.27C218.92 96.27 218.92 96.27 218.92 96.22C219.176 95.7064 219.463 95.2088 219.78 94.73C219.797 94.6837 219.821 94.64 219.85 94.6C219.883 94.5388 219.923 94.4817 219.97 94.43L220.21 94.08L220.33 93.92L220.6 94.15L220.88 94.37C220.757 94.5232 220.644 94.6835 220.54 94.85V94.85L220.46 94.97C220.32 95.21 220.16 95.45 220.02 95.71C219.88 95.97 219.68 96.31 219.52 96.63C219.506 96.6615 219.489 96.6916 219.47 96.72L219.2 97.27V97.36L219 97.8C218.89 98.04 218.79 98.29 218.69 98.55V98.62C218.29 99.62 217.91 100.72 217.56 101.92L217.51 102.11L217.36 102.65C217.356 102.72 217.356 102.79 217.36 102.86C217.12 103.71 216.92 104.6 216.74 105.53C216.74 105.72 216.66 105.91 216.63 106.1C216.6 106.29 216.54 106.6 216.49 106.86L216.4 107.39V107.66L216.31 108.27C216.305 108.36 216.305 108.45 216.31 108.54C216.11 109.98 215.97 111.44 215.88 112.87C215.88 112.97 215.88 113.07 215.88 113.17C215.88 113.27 215.88 113.53 215.88 113.71V113.78C215.88 113.89 215.88 113.99 215.88 114.09C215.875 114.16 215.875 114.23 215.88 114.3C215.875 114.343 215.875 114.387 215.88 114.43V114.71C215.88 114.93 215.88 115.15 215.88 115.38C215.88 115.61 215.88 115.64 215.88 115.77C215.88 117.62 215.88 119.6 216 121.65V122.06V122.73" fill="white"/>
<path d="M243.1 102.85L237.01 101.46V83.05L243.1 84.26V102.85Z" fill="white"/>
<path d="M237.6 86.84H226.13V94.34H237.6V86.84Z" fill="white"/>
<path d="M229.22 93.43C229.22 93.43 231.33 99.26 237.22 97.43V93.43H229.22Z" fill="white"/>
<path d="M234.74 56.3H231.87V133.57H234.74V56.3Z" fill="white"/>
<path d="M226.51 88.91C226.51 88.91 213.61 91.82 208.03 91.29C207.64 91.2445 207.247 91.3542 206.936 91.5955C206.626 91.8368 206.422 92.1903 206.37 92.58C206.24 93.83 206.72 95.48 209.93 95.9C215.28 96.61 227.04 98.02 227.87 93.43C228.7 88.84 226.51 88.91 226.51 88.91Z" fill="white"/>
<path d="M210.87 94.76C211.649 94.76 212.28 94.1287 212.28 93.35C212.28 92.5713 211.649 91.94 210.87 91.94C210.091 91.94 209.46 92.5713 209.46 93.35C209.46 94.1287 210.091 94.76 210.87 94.76Z" fill="#017244"/>
<path d="M216.28 94.34C217.059 94.34 217.69 93.7087 217.69 92.93C217.69 92.1513 217.059 91.52 216.28 91.52C215.501 91.52 214.87 92.1513 214.87 92.93C214.87 93.7087 215.501 94.34 216.28 94.34Z" fill="#017244"/>
<path d="M222.4 93.41C223.179 93.41 223.81 92.7787 223.81 92C223.81 91.2212 223.179 90.59 222.4 90.59C221.621 90.59 220.99 91.2212 220.99 92C220.99 92.7787 221.621 93.41 222.4 93.41Z" fill="#017244"/>
</svg>
