<svg width="120" height="106" viewBox="0 0 120 106" fill="none" xmlns="http://www.w3.org/2000/svg">
<path d="M119.02 0.399994H0.0200195V105.4H119.02V0.399994Z" fill="#529129"/>
<path d="M42.71 93.64H71.71C73.0998 93.64 74.4325 94.1921 75.4152 95.1748C76.3979 96.1575 76.95 97.4903 76.95 98.88V98.88C76.95 99.01 76.8984 99.1346 76.8065 99.2265C76.7146 99.3184 76.59 99.37 76.46 99.37H38C37.87 99.37 37.7454 99.3184 37.6535 99.2265C37.5616 99.1346 37.51 99.01 37.51 98.88C37.51 97.4972 38.0565 96.1704 39.0306 95.1888C40.0046 94.2073 41.3272 93.6506 42.71 93.64V93.64Z" fill="white"/>
<path d="M64.56 16.4L62.72 15.61L63.66 7.76999C63.7039 7.55224 63.7908 7.34543 63.9156 7.16168C64.0405 6.97793 64.2007 6.82095 64.3869 6.69989C64.5731 6.57883 64.7817 6.49614 65.0003 6.45666C65.2189 6.41719 65.4431 6.42172 65.66 6.47C65.8771 6.51515 66.0831 6.60284 66.2662 6.728C66.4492 6.85316 66.6057 7.01332 66.7266 7.19925C66.8474 7.38517 66.9303 7.59317 66.9703 7.81128C67.0104 8.02938 67.0069 8.25326 66.96 8.47L64.56 16.4Z" fill="#FFB815"/>
<path d="M51.52 74L50.1699 73.95L47.7599 80.29C47.6264 80.6038 47.6195 80.9571 47.7407 81.2758C47.8618 81.5946 48.1017 81.8541 48.4099 82V82C48.7463 82.0522 49.0897 81.9705 49.3665 81.7723C49.6432 81.5741 49.8311 81.2753 49.89 80.94L51.52 74Z" fill="#FFB815"/>
<path d="M65.15 88.67H49.2999C48.5396 88.6726 47.8111 88.9759 47.2734 89.5135C46.7358 90.0512 46.4326 90.7796 46.4299 91.54C46.4299 91.67 46.4816 91.7946 46.5735 91.8865C46.6654 91.9784 46.79 92.03 46.9199 92.03H67.53C67.6599 92.03 67.7845 91.9784 67.8764 91.8865C67.9683 91.7946 68.02 91.67 68.02 91.54C68.02 90.7788 67.7176 90.0488 67.1793 89.5106C66.6411 88.9724 65.9111 88.67 65.15 88.67V88.67Z" fill="#FFB815"/>
<path d="M57.23 78.35H57.22C56.1154 78.35 55.22 79.2454 55.22 80.35V85.1C55.22 86.2046 56.1154 87.1 57.22 87.1H57.23C58.3345 87.1 59.23 86.2046 59.23 85.1V80.35C59.23 79.2454 58.3345 78.35 57.23 78.35Z" fill="white"/>
<path d="M56.0601 80.83C53.0203 80.8001 49.9964 80.3869 47.0601 79.6C46.8259 79.5383 46.6068 79.4295 46.4162 79.2803C46.2255 79.131 46.0673 78.9445 45.9512 78.732C45.8352 78.5195 45.7637 78.2856 45.7411 78.0445C45.7186 77.8034 45.7454 77.5603 45.8201 77.33V77.26C45.9649 76.8237 46.2721 76.4598 46.678 76.2439C47.0838 76.0279 47.5572 75.9764 48.0001 76.1C52.2894 77.2488 56.7688 77.5055 61.1614 76.8543C65.5539 76.2032 69.7662 74.658 73.5378 72.3142C77.3095 69.9705 80.5603 66.8781 83.0893 63.2281C85.6184 59.5781 87.3718 55.4482 88.2414 51.0936C89.1109 46.739 89.078 42.2524 88.1448 37.911C87.2115 33.5697 85.3977 29.4659 82.8154 25.8534C80.2332 22.2408 76.9374 19.1964 73.1318 16.9082C69.3262 14.62 65.0917 13.1367 60.6901 12.55C60.2268 12.4922 59.8034 12.2587 59.5075 11.8976C59.2116 11.5366 59.0657 11.0756 59.1 10.61V10.61C59.1187 10.3683 59.1858 10.1328 59.2972 9.9175C59.4086 9.7022 59.5622 9.51147 59.7487 9.35665C59.9353 9.20182 60.151 9.08605 60.3831 9.01619C60.6152 8.94634 60.859 8.92383 61.1 8.95C70.2358 10.1292 78.5749 14.7571 84.409 21.8856C90.2431 29.0142 93.1305 38.1037 92.4799 47.2923C91.8292 56.4808 87.6896 65.0728 80.9092 71.3081C74.1288 77.5433 65.2208 80.9499 56.0101 80.83H56.0601Z" fill="white"/>
<path d="M56.84 75.08C55.3878 75.0802 53.9374 74.9766 52.4999 74.77C44.7798 73.3627 37.9055 69.018 33.3215 62.6486C28.7376 56.2793 26.8008 48.3811 27.918 40.6137C29.0352 32.8462 33.1195 25.8141 39.3128 20.9949C45.506 16.1756 53.3261 13.9444 61.13 14.77V14.77C68.7318 15.8472 75.6423 19.7673 80.4673 25.7396C85.2923 31.7118 87.6727 39.2918 87.1284 46.9503C86.5841 54.6088 83.1555 61.7758 77.5344 67.0056C71.9132 72.2355 64.5178 75.1388 56.84 75.13V75.08ZM56.76 15.49C49.3596 15.4922 42.2352 18.2994 36.8224 23.3458C31.4096 28.3923 28.1108 35.3028 27.5909 42.6849C27.0709 50.0669 29.3684 57.3717 34.0204 63.1271C38.6724 68.8824 45.333 72.6605 52.6599 73.7C60.3393 74.806 68.1435 72.816 74.3556 68.1679C80.5677 63.5198 84.679 56.5944 85.7849 48.915C86.8909 41.2357 84.901 33.4315 80.2529 27.2194C75.6048 21.0072 68.6793 16.896 60.9999 15.79V15.79C59.5955 15.5899 58.1786 15.4896 56.76 15.49Z" fill="white"/>
<path d="M61.0801 21.69C61.015 21.3133 60.8685 20.9553 60.6509 20.641C60.4333 20.3267 60.1497 20.0635 59.8201 19.87C58.6701 19.16 55.76 18.58 55.48 20.12C55.2 21.66 54.04 20.68 54.04 20.68C54.2595 20.5586 54.4478 20.388 54.5901 20.1815C54.7324 19.975 54.8248 19.7383 54.86 19.49C54.99 18.63 52.7001 18.25 52.6501 19.01C52.6001 19.77 53.1401 20.11 52.5201 20.24C51.8646 20.4177 51.1957 20.5414 50.5201 20.61C49.7501 20.67 49.67 19.73 49.67 19.73C50.1501 19.7704 50.6335 19.7298 51.1 19.61C51.95 19.4 52.4501 18.61 51.5101 18.3C50.5701 17.99 51.5701 19.02 49.5101 18.72C49.5101 18.72 49.2501 18.63 49.0201 17.94C48.7901 17.25 46.8801 16.94 46.1901 17.54C45.5001 18.14 45.8701 18.63 46.4401 18.83C47.0101 19.03 46.2 19.39 47.1 19.57C48 19.75 48.36 19.86 48.1 20.1C47.84 20.34 43.3501 19.04 43.4401 18.01C43.4401 18.01 34.44 22.11 30.8 30.52C30.8424 30.6805 30.9284 30.8262 31.0484 30.9409C31.1684 31.0556 31.3178 31.1349 31.48 31.17C32.05 31.3 32.4801 31.36 32.2101 32.47C31.9401 33.58 31.6601 35.93 33.1501 36.2C34.6401 36.47 33.89 35.2 33.54 34.62C33.19 34.04 32.9601 32.2 33.8201 32.62C34.6801 33.04 33.4201 33.16 34.7001 35.62C35.9801 38.08 34 37.86 35.55 39.62C37.1 41.38 37.96 39.53 38.47 40.14C38.98 40.75 38.47 41.14 39.47 41.27C40.47 41.4 40.0601 40.98 40.5201 41.97C40.9801 42.96 41.2901 44.91 44.2801 44.2C44.4138 44.4901 44.483 44.8056 44.483 45.125C44.483 45.4444 44.4138 45.7599 44.2801 46.05C43.7901 46.8 42.28 46.75 42.16 48.31C42.071 48.8885 42.1043 49.4793 42.2576 50.0443C42.4109 50.6092 42.6808 51.1358 43.05 51.59C43.75 52.73 43.22 53.42 44.05 53.97C44.88 54.52 46.7101 54.84 46.3401 56.26C45.9701 57.68 45.34 60.26 45.66 60.95C45.98 61.64 45.5701 61.59 45.4601 62.39C45.3501 63.19 46.4601 64.01 46.3801 65.03C46.3001 66.05 45.2801 67.03 45.9401 68.13C46.6001 69.23 46.7701 68.79 47.0701 69.76C47.3701 70.73 47.5801 71.14 48.0701 71.27C48.5601 71.4 49.4501 71.52 49.7701 72C50.0901 72.48 50.8601 71.62 50.3301 71.11C49.8001 70.6 49.1301 70.77 49.3301 69.76C49.5301 68.75 50.1201 68.46 49.3301 67.96C48.5401 67.46 48.6701 66.89 49.0001 66.88C49.3301 66.87 50.0801 66.55 49.4501 66.02C48.8201 65.49 48.62 65.35 49.1 65.37C49.6759 65.5223 50.2802 65.5318 50.8605 65.3976C51.4408 65.2634 51.9795 64.9896 52.4301 64.6C53.3277 63.7172 54.1726 62.7823 54.9601 61.8C55.1922 61.2442 55.2783 60.6384 55.2101 60.04C55.0701 59.15 55.7501 58.92 56.9301 59.04C58.1101 59.16 57.9301 58.59 57.9301 58.59C57.9301 58.59 58.9301 59.67 59.3301 55.31C59.3301 55.31 59.27 54.59 60.61 53.97C61.95 53.35 60.82 51.76 60.05 51.76C60.05 51.76 59.7601 50.76 59.1201 50.65C58.4801 50.54 57.0501 50.65 56.4601 50.21C56.0215 49.8829 55.5526 49.5982 55.0601 49.36C55.0601 49.36 55.78 46.25 52.73 46.24C52.73 46.24 52.29 44 50.73 44.05C49.17 44.1 49.01 44.24 48.79 43.88C48.57 43.52 48.2801 42.12 47.2101 42.4C46.1401 42.68 46.0001 44 45.0001 43.72C44.0001 43.44 42.6401 43.49 42.9501 42.45C43.2601 41.41 43.4401 40.17 41.8101 40.16C41.8101 40.16 41.4001 39.99 42.0801 39.43C42.7601 38.87 42.4501 38.01 42.0801 38.07C41.7101 38.13 40.5401 38.94 39.9901 38.97C39.4401 39 37.6801 38.69 38.6501 36.54C39.6201 34.39 44.22 34.18 44.55 35.26C44.88 36.34 44.5 36.78 45.55 36.88C46.6 36.98 46.3 35.08 46.3 35.08L49.23 33.27C49.433 33.1054 49.6085 32.9096 49.7501 32.69C49.9601 32.34 53.53 30.62 54.3 29.42C55.07 28.22 55.3 27.56 56.3 28.08C57.3 28.6 57.7301 28.72 57.9901 28.08C58.2501 27.44 59.5801 29.13 60.1301 28.39C60.2739 28.2334 60.3683 28.0378 60.4014 27.8277C60.4346 27.6177 60.405 27.4025 60.3163 27.2092C60.2277 27.016 60.084 26.8531 59.9032 26.7412C59.7224 26.6293 59.5126 26.5732 59.3 26.58C58.18 26.42 59.6401 25.32 59.1901 25.04C58.7401 24.76 57.8901 25.73 57.4601 25.34C57.0301 24.95 57.9401 23.5 56.4601 23.45C54.9801 23.4 54.81 23.54 54.36 25.17C53.91 26.8 53.2701 25.17 52.1201 26.37C50.9701 27.57 51.2301 26.84 51.1201 26.12C51.0136 25.7425 50.7893 25.4088 50.4799 25.1678C50.1705 24.9267 49.7922 24.7909 49.4001 24.78C48.5901 24.72 48.92 23.24 50.11 22.92C51.3 22.6 52.7401 22.05 52.7401 22.05C52.7401 22.05 52.8701 23.05 53.7401 22.79C54.002 22.6952 54.2399 22.5439 54.437 22.3469C54.634 22.1499 54.7853 21.912 54.8801 21.65L55.7401 21.77C55.7401 21.77 56.3201 21.14 56.4901 21.11C56.6601 21.08 58.41 21.39 58.41 21.39C58.41 21.39 59.4101 21.31 58.4601 21.78C57.5101 22.25 56.95 21.67 57.16 22.52C57.37 23.37 57.4301 22.88 58.0601 23.46C58.1839 23.6018 58.3423 23.7091 58.5199 23.7714C58.6975 23.8338 58.8882 23.8491 59.0735 23.8159C59.2588 23.7827 59.4323 23.702 59.5771 23.5818C59.722 23.4616 59.8333 23.306 59.9001 23.13C59.9001 23.13 61.19 23.64 61.47 22.81C61.5236 22.7119 61.556 22.6037 61.5652 22.4924C61.5744 22.381 61.5602 22.269 61.5234 22.1635C61.4867 22.058 61.4282 21.9613 61.3519 21.8798C61.2755 21.7982 61.1829 21.7336 61.0801 21.69V21.69Z" fill="white"/>
<path d="M54.24 30.67C54.61 31.11 55.62 30.87 54.67 29.92C54.67 29.92 53.86 30.24 54.24 30.67Z" fill="white"/>
<path d="M56.4 29.3C56.67 28.9 55.86 28.46 55.86 28.46C55.7961 28.4414 55.7289 28.4379 55.6635 28.4498C55.5981 28.4616 55.5362 28.4884 55.483 28.5282C55.4297 28.5679 55.3863 28.6194 55.3563 28.6787C55.3263 28.738 55.3104 28.8035 55.31 28.87C55.24 29.4 56.12 29.69 56.4 29.3Z" fill="white"/>
<path d="M56.6801 30.7C56.6801 30.7 58.2601 30.33 57.1901 29.46C56.9753 29.7255 56.6808 29.9149 56.3501 30C55.9101 30 55.3501 29.9 55.6501 30.71C55.9501 31.52 56.6801 30.7 56.6801 30.7Z" fill="white"/>
<path d="M58.88 28.67C58.88 28.67 57.49 28.53 58.1 29.59C58.383 29.762 58.6449 29.9667 58.88 30.2C59.26 30.58 60.22 30.72 60.31 30.13C60.4 29.54 60.16 28.86 58.88 28.67Z" fill="white"/>
<path d="M86.3999 40.74C86.3999 40.74 83.6899 41.01 83.3999 40.21C83.1099 39.41 82.2499 39.12 80.4599 39.4C78.6699 39.68 79.3799 38.98 78.7599 38.72C78.3474 38.5701 77.904 38.5254 77.4699 38.59C77.4699 38.59 79.2999 35.37 73.0099 36.7C73.0099 36.7 70.5099 35.9 69.6799 37.47C68.8499 39.04 69.2099 39.26 66.8799 39.9C64.5499 40.54 66.3099 41.95 66.3099 41.95C66.3099 41.95 67.0599 42.44 66.1699 42.95C65.722 43.2904 65.3956 43.7659 65.2389 44.3062C65.0822 44.8465 65.1036 45.4228 65.2999 45.95C65.7199 46.88 66.9399 48.95 67.8099 49.36C68.6799 49.77 71.1999 50.07 71.7199 49.43C72.2399 48.79 72.7199 48.7 73.3699 49.34C74.0199 49.98 76.2699 49.6 76.0199 50.22C75.7699 50.84 74.5899 52.22 75.4999 53.84C76.4099 55.46 77.0399 56.79 75.9899 57.67C75.7611 57.8453 75.5747 58.0699 75.4446 58.3271C75.3145 58.5842 75.244 58.8674 75.2382 59.1556C75.2324 59.4438 75.2916 59.7295 75.4113 59.9917C75.5311 60.2539 75.7083 60.4857 75.9299 60.67C75.9299 60.67 75.1899 62.79 75.8699 63.67C76.1419 64.0722 76.3121 64.5344 76.3661 65.0168C76.4201 65.4993 76.3562 65.9877 76.1799 66.44C75.9299 67.05 76.1799 66.71 76.1799 66.71C76.1799 66.71 75.9899 67.66 76.4999 67.14C77.0099 66.62 88.2899 56.81 86.3999 40.74Z" fill="white"/>
<path d="M73.68 36C74.1697 35.8226 74.6177 35.5464 74.9961 35.1886C75.3746 34.8308 75.6755 34.399 75.88 33.92C75.88 33.92 77.35 34.67 77.88 33.72C77.88 33.72 78.49 35.5 79.38 35.72C79.2682 35.7378 79.1611 35.7782 79.0654 35.839C78.9698 35.8997 78.8876 35.9793 78.8239 36.073C78.7602 36.1667 78.7163 36.2724 78.695 36.3837C78.6737 36.495 78.6754 36.6094 78.7001 36.72C78.8501 37.56 81.3001 37.15 80.7701 35.54C80.2401 33.93 77.77 34.18 79.24 33.31C80.71 32.44 81.41 34.93 81.42 35.58C81.43 36.23 80.88 37.79 82.17 37.22C83.46 36.65 83.1701 34.75 83.5801 35.73C83.9901 36.71 83.23 37.8 84.41 37.92C84.9117 37.9476 85.4103 38.0178 85.9001 38.13C85.9001 38.13 83.9001 30.27 79.5201 25.34C79.5201 25.34 79.5201 25.94 78.3901 26C78.141 26.0103 77.8996 26.0894 77.6927 26.2285C77.4858 26.3676 77.3215 26.5613 77.2179 26.7881C77.1144 27.0149 77.0756 27.2659 77.106 27.5134C77.1364 27.7608 77.2347 27.995 77.3901 28.19C78.1501 29.01 79.3001 28.57 79.2701 29.19C79.2401 29.81 79.03 30.08 78.16 29.68C77.29 29.28 76.74 29.37 76.51 30.15C76.28 30.93 75.93 31.54 75.32 31.24C74.71 30.94 73.3201 31.43 73.9601 32.73C73.9601 32.73 74.29 33.87 73.51 33.59C72.73 33.31 70.72 32.59 70.61 34.48C70.5 36.37 72.21 36.36 73.68 36Z" fill="white"/>
<path d="M73.61 28.88C74.13 29.07 74.11 29.61 73.76 29.78C73.41 29.95 72.7601 30.55 73.4001 30.78C74.0401 31.01 75.72 31.33 75.69 30.35C75.7214 30.1052 75.6612 29.8574 75.5209 29.6543C75.3806 29.4513 75.1701 29.3072 74.93 29.25C74.93 29.25 74.18 28.38 74.72 27.65C74.7253 27.5501 74.7086 27.4503 74.6709 27.3576C74.6332 27.265 74.5755 27.1818 74.5019 27.114C74.4284 27.0462 74.3408 26.9954 74.2454 26.9653C74.15 26.9353 74.0492 26.9266 73.95 26.94C73.14 26.94 73.16 28.29 72.95 28.32C72.6436 28.3372 72.3365 28.3372 72.0301 28.32C71.8807 28.3904 71.7511 28.4968 71.6528 28.6295C71.5546 28.7622 71.4907 28.9171 71.467 29.0805C71.4432 29.244 71.4603 29.4107 71.5166 29.5659C71.573 29.7211 71.6669 29.86 71.79 29.97C72.83 31 73.1 28.7 73.61 28.88Z" fill="white"/>
</svg>
