<svg width="371" height="260" viewBox="0 0 371 260" fill="none" xmlns="http://www.w3.org/2000/svg">
<path d="M370.65 0.490005H0.420044V259.49H370.65V0.490005Z" fill="#529129"/>
<path d="M185.53 202.4C231.745 202.4 269.21 164.935 269.21 118.72C269.21 72.5048 231.745 35.04 185.53 35.04C139.315 35.04 101.85 72.5048 101.85 118.72C101.85 164.935 139.315 202.4 185.53 202.4Z" fill="#427F1B"/>
<path d="M155.74 213.79H212.55C215.202 213.79 217.746 214.844 219.621 216.719C221.496 218.594 222.55 221.138 222.55 223.79V224C222.55 224.249 222.451 224.488 222.275 224.665C222.098 224.841 221.859 224.94 221.61 224.94H146.61C146.361 224.94 146.122 224.841 145.945 224.665C145.769 224.488 145.67 224.249 145.67 224V223.81C145.67 221.158 146.724 218.614 148.599 216.739C150.474 214.864 153.018 213.81 155.67 213.81L155.74 213.79Z" fill="white"/>
<path d="M198.39 63.61L194.82 62.08L196.64 46.83C196.818 45.984 197.324 45.2433 198.048 44.7707C198.772 44.2981 199.654 44.1324 200.5 44.31C200.92 44.3968 201.318 44.5657 201.672 44.807C202.026 45.0483 202.329 45.3572 202.563 45.7159C202.797 46.0746 202.958 46.4761 203.036 46.8973C203.115 47.3185 203.109 47.751 203.02 48.17L198.39 63.61Z" fill="#FFB815"/>
<path d="M173 175.59L170.38 175.49L165.69 187.83C165.24 189.31 165.81 190.83 166.95 191.14C168.1 191.49 169.39 190.57 169.84 189.09L173 175.59Z" fill="#FFB815"/>
<path d="M199.65 204.14H168.65C167.93 204.14 167.218 204.282 166.553 204.557C165.888 204.833 165.284 205.236 164.775 205.745C164.266 206.254 163.863 206.858 163.587 207.523C163.312 208.188 163.17 208.9 163.17 209.62V209.73C163.17 209.979 163.269 210.218 163.445 210.395C163.622 210.571 163.861 210.67 164.11 210.67H204.21C204.459 210.67 204.698 210.571 204.875 210.395C205.051 210.218 205.15 209.979 205.15 209.73V209.62C205.15 208.899 205.008 208.184 204.731 207.518C204.454 206.852 204.049 206.247 203.538 205.738C203.027 205.229 202.42 204.826 201.753 204.551C201.086 204.277 200.371 204.137 199.65 204.14V204.14Z" fill="#FFB815"/>
<path d="M185.39 184.06H182.88C181.422 184.06 180.24 185.242 180.24 186.7V198.44C180.24 199.898 181.422 201.08 182.88 201.08H185.39C186.848 201.08 188.03 199.898 188.03 198.44V186.7C188.03 185.242 186.848 184.06 185.39 184.06Z" fill="white"/>
<path d="M181.87 188.89C175.976 188.831 170.113 188.028 164.42 186.5C163.964 186.38 163.537 186.168 163.166 185.878C162.794 185.587 162.486 185.224 162.259 184.811C162.033 184.397 161.893 183.941 161.848 183.472C161.804 183.002 161.855 182.529 162 182.08V181.95C162.281 181.105 162.875 180.401 163.66 179.982C164.446 179.563 165.362 179.462 166.22 179.7C174.563 181.942 183.277 182.447 191.824 181.186C200.37 179.924 208.567 176.922 215.906 172.365C223.246 167.809 229.572 161.794 234.494 154.695C239.416 147.595 242.828 139.56 244.52 131.089C246.212 122.617 246.148 113.888 244.331 105.443C242.514 96.997 238.983 89.014 233.957 81.9877C228.931 74.9613 222.516 69.0412 215.11 64.5935C207.704 60.1458 199.464 57.2652 190.9 56.13C189.999 56.0171 189.176 55.5635 188.599 54.8623C188.023 54.1611 187.737 53.2656 187.8 52.36V52.36C187.834 51.8864 187.965 51.4247 188.183 51.0029C188.401 50.5811 188.702 50.208 189.069 49.906C189.435 49.604 189.859 49.3796 190.315 49.2462C190.77 49.1128 191.249 49.0733 191.72 49.13C209.455 51.4559 225.634 60.4662 236.949 74.32C248.264 88.1737 253.862 105.825 252.599 123.668C251.337 141.511 243.309 158.198 230.155 170.32C217.002 182.443 199.716 189.085 181.83 188.89H181.87Z" fill="white"/>
<path d="M183.38 177.71C171.35 177.72 159.604 174.052 149.717 167.198C139.83 160.344 132.275 150.631 128.064 139.362C123.853 128.093 123.187 115.805 126.157 104.147C129.126 92.4892 135.588 82.0174 144.677 74.1357C153.766 66.254 165.047 61.3391 177.008 60.0498C188.969 58.7605 201.039 61.1585 211.598 66.9223C222.158 72.6861 230.703 81.5403 236.089 92.2978C241.475 103.055 243.443 115.202 241.73 127.11C239.73 141.158 232.727 154.012 222.006 163.309C211.286 172.605 197.57 177.719 183.38 177.71V177.71ZM183.23 61.84C168.469 61.8452 154.285 67.5766 143.664 77.8281C133.044 88.0796 126.814 102.052 126.286 116.803C125.759 131.555 130.975 145.936 140.837 156.92C150.698 167.904 164.436 174.634 179.159 175.693C193.883 176.752 208.443 172.059 219.775 162.6C231.107 153.141 238.329 139.655 239.918 124.979C241.508 110.304 237.343 95.5841 228.299 83.9177C219.255 72.2513 206.038 64.5484 191.43 62.43V62.43C188.714 62.0403 185.974 61.8431 183.23 61.84V61.84Z" fill="white"/>
<path d="M191.64 73.89C191.511 73.1584 191.224 72.4636 190.799 71.8541C190.374 71.2445 189.822 70.7346 189.18 70.36C186.95 68.98 181.28 67.85 180.75 70.85C180.22 73.85 177.94 71.93 177.94 71.93C178.369 71.6934 178.737 71.3609 179.017 70.9585C179.296 70.5561 179.478 70.0946 179.55 69.61C179.79 67.95 175.34 67.21 175.23 68.68C175.12 70.15 176.23 70.83 174.99 71.08C173.741 71.4196 172.467 71.6604 171.18 71.8C169.68 71.9 169.52 70.08 169.52 70.08C170.456 70.1616 171.4 70.0839 172.31 69.85C173.96 69.45 174.92 67.85 173.1 67.31C171.28 66.77 173.22 68.7 169.17 68.12C169.17 68.12 168.67 67.94 168.22 66.61C167.77 65.28 164.06 64.61 162.72 65.82C161.38 67.03 162.1 67.95 163.21 68.33C164.32 68.71 162.73 69.42 164.48 69.78C166.23 70.14 166.94 70.35 166.48 70.78C166.02 71.21 157.25 68.72 157.43 66.73C157.43 66.73 139.87 74.73 132.85 91.05C132.928 91.3606 133.093 91.6428 133.325 91.8639C133.556 92.0851 133.846 92.2362 134.16 92.3C135.28 92.57 136.01 92.67 135.59 94.84C135.17 97.01 134.52 101.57 137.41 102.09C140.3 102.61 138.85 100.18 138.17 99.02C137.49 97.86 137.05 94.3 138.72 95.18C140.39 96.06 137.94 96.23 140.44 100.94C142.94 105.65 139.07 105.29 142.08 108.69C145.09 112.09 146.76 108.52 147.75 109.69C148.74 110.86 147.75 111.6 149.75 111.88C151.75 112.16 150.89 111.31 151.75 113.24C152.61 115.17 153.26 118.96 159.07 117.57C159.07 117.57 160.07 119.72 159.07 121.17C158.07 122.62 155.27 122.54 154.95 125.56C154.63 128.58 155.3 129.74 156.68 131.95C158.06 134.16 157.01 135.5 158.55 136.56C160.09 137.62 163.71 138.26 163 141.02C162.29 143.78 161 148.89 161.69 150.15C162.38 151.41 161.51 151.39 161.28 152.95C161.05 154.51 163.28 156.09 163.09 158.08C162.9 160.07 160.94 162.01 162.22 164.08C163.5 166.15 163.84 165.37 164.42 167.26C165 169.15 165.42 169.94 166.42 170.19C167.42 170.44 169.1 170.68 169.71 171.62C170.32 172.56 171.83 170.86 170.81 169.87C169.79 168.88 168.47 169.22 168.81 167.26C169.15 165.3 170.34 164.72 168.81 163.76C167.28 162.8 167.52 161.67 168.16 161.65C168.8 161.63 170.26 161 169.03 159.98C167.8 158.96 167.42 158.69 168.37 158.72C169.32 158.75 172.25 159.72 174.83 157.21C176.571 155.494 178.21 153.677 179.74 151.77C180.203 150.693 180.376 149.514 180.24 148.35C179.96 146.61 181.29 146.17 183.59 146.4C185.89 146.63 185.59 145.52 185.59 145.52C185.59 145.52 187.59 147.61 188.31 139.13C188.31 139.13 188.19 137.74 190.8 136.53C193.41 135.32 191.21 132.24 189.72 132.24C189.72 132.24 189.15 130.36 187.92 130.07C186.69 129.78 183.92 130.13 182.74 129.23C181.888 128.588 180.978 128.029 180.02 127.56C180.02 127.56 181.41 121.51 175.48 121.51C175.48 121.51 174.63 117.15 171.65 117.25C168.67 117.35 168.31 117.62 167.88 116.92C167.45 116.22 166.88 113.5 164.8 114.04C162.72 114.58 162.22 117.27 160.19 116.66C158.16 116.05 155.59 116.21 156.19 114.18C156.79 112.15 157.14 109.77 153.97 109.73C153.97 109.73 153.17 109.41 154.49 108.33C155.81 107.25 155.2 105.57 154.49 105.67C153.78 105.77 151.49 107.36 150.42 107.42C149.35 107.48 145.95 106.88 147.82 102.7C149.69 98.52 158.65 98.11 159.3 100.22C159.95 102.33 159.19 103.17 161.3 103.36C163.41 103.55 162.76 99.87 162.76 99.87L168.45 96.34C168.846 96.028 169.185 95.649 169.45 95.22C169.87 94.53 176.81 91.22 178.31 88.86C179.81 86.5 180.31 85.23 182.31 86.26C184.31 87.29 185.1 87.5 185.61 86.2C186.12 84.9 188.7 88.2 189.76 86.8C190.82 85.4 190.32 83.59 188.14 83.28C185.96 82.97 188.81 80.84 187.94 80.28C187.07 79.72 185.42 81.61 184.57 80.85C183.72 80.09 185.51 77.28 182.66 77.19C179.81 77.1 179.46 77.36 178.58 80.52C177.7 83.68 176.46 80.52 174.22 82.86C171.98 85.2 172.5 83.78 172.28 82.37C172.075 81.6378 171.642 80.9905 171.042 80.5226C170.443 80.0548 169.71 79.791 168.95 79.77C167.37 79.65 167.95 76.77 170.31 76.15C172.67 75.53 175.43 74.45 175.43 74.45C175.43 74.45 175.68 76.45 177.34 75.89C177.852 75.7066 178.317 75.4126 178.703 75.0289C179.088 74.6451 179.384 74.1812 179.57 73.67L181.23 73.91C181.23 73.91 182.36 72.69 182.68 72.64C183 72.59 186.42 73.17 186.42 73.17C186.42 73.17 188.35 73.03 186.52 73.93C184.69 74.83 183.59 73.72 183.98 75.37C184.37 77.02 184.52 76.08 185.73 77.21C186.94 78.34 188.89 78.08 189.32 76.56C189.32 76.56 191.83 77.56 192.38 75.94C192.546 75.569 192.562 75.148 192.424 74.7657C192.286 74.3833 192.005 74.0694 191.64 73.89V73.89Z" fill="white"/>
<path d="M178.33 91.36C179.05 92.21 181.03 91.75 179.17 89.9C179.17 89.9 177.6 90.52 178.33 91.36Z" fill="white"/>
<path d="M182.53 88.68C183.06 87.91 181.53 87.05 181.53 87.05C181.406 87.0167 181.276 87.012 181.149 87.0363C181.023 87.0605 180.904 87.1132 180.801 87.1902C180.698 87.2672 180.614 87.3666 180.555 87.4809C180.496 87.5952 180.463 87.7214 180.46 87.85C180.27 88.89 182 89.45 182.53 88.68Z" fill="white"/>
<path d="M183.09 91.41C183.09 91.41 186.16 90.69 184.09 89.01C183.67 89.5122 183.098 89.8634 182.46 90.01C181.6 90.1 180.46 89.83 181.09 91.4C181.72 92.97 183.09 91.41 183.09 91.41Z" fill="white"/>
<path d="M187.36 87.47C187.36 87.47 184.65 87.19 185.83 89.27C186.388 89.5928 186.902 89.986 187.36 90.44C188.1 91.18 189.97 91.44 190.13 90.31C190.29 89.18 189.85 87.83 187.36 87.47Z" fill="white"/>
<path d="M240.87 110.94C240.87 110.94 235.6 111.46 235.08 109.94C234.56 108.42 232.85 107.82 229.38 108.38C225.91 108.94 227.27 107.55 226.07 107.06C225.271 106.766 224.412 106.676 223.57 106.8C223.57 106.8 227.11 100.53 214.88 103.12C214.88 103.12 210.02 101.57 208.41 104.63C206.8 107.69 207.49 108.09 202.97 109.35C198.45 110.61 201.87 113.35 201.87 113.35C201.87 113.35 203.32 114.35 201.59 115.35C199.86 116.35 199.11 119.35 199.91 121.14C200.71 122.93 203.09 127 204.78 127.77C206.47 128.54 211.36 129.14 212.38 127.91C213.4 126.68 214.28 126.49 215.59 127.74C216.9 128.99 221.23 128.23 220.74 129.43C220.25 130.63 217.97 133.27 219.74 136.49C221.51 139.71 222.74 142.21 220.68 143.93C218.62 145.65 218.74 147.93 220.57 149.85C220.57 149.85 219.13 153.98 220.47 155.76C220.995 156.545 221.323 157.444 221.427 158.382C221.532 159.32 221.409 160.269 221.07 161.15C220.58 162.35 221.07 161.68 221.07 161.68C221.07 161.68 220.7 163.53 221.69 162.51C222.68 161.49 244.53 142.19 240.87 110.94Z" fill="white"/>
<path d="M216.13 101.77C218.97 101.12 220.42 97.77 220.42 97.77C220.42 97.77 223.28 99.24 224.42 97.39C224.42 97.39 225.62 100.84 227.35 101.31C227.134 101.343 226.927 101.42 226.742 101.536C226.557 101.652 226.397 101.805 226.273 101.984C226.148 102.164 226.062 102.367 226.018 102.581C225.975 102.795 225.975 103.016 226.02 103.23C226.31 104.86 231.09 104.07 230.02 100.95C228.95 97.83 224.15 98.31 227.02 96.6C229.89 94.89 231.23 99.75 231.26 101.03C231.29 102.31 230.26 105.33 232.71 104.2C235.16 103.07 234.71 99.4 235.46 101.31C236.21 103.22 234.77 105.31 237.07 105.57C238.047 105.625 239.017 105.765 239.97 105.99C239.97 105.99 236.03 90.7 227.56 81.11C227.56 81.11 227.5 82.27 225.36 82.38C223.22 82.49 221.9 85.07 223.36 86.65C224.82 88.23 227.07 87.4 227.01 88.55C226.95 89.7 226.54 90.29 224.86 89.55C223.18 88.81 222.08 88.94 221.65 90.46C221.22 91.98 220.52 93.16 219.34 92.57C218.16 91.98 215.34 92.95 216.7 95.47C216.7 95.47 217.33 97.68 215.82 97.14C214.31 96.6 210.38 95.2 210.17 98.87C209.96 102.54 213.28 102.42 216.13 101.77Z" fill="white"/>
<path d="M216 87.88C216.192 87.9121 216.369 88.0037 216.506 88.1417C216.643 88.2797 216.734 88.4573 216.765 88.6495C216.796 88.8416 216.765 89.0386 216.679 89.2127C216.592 89.3869 216.452 89.5293 216.28 89.62C215.59 89.94 214.28 91.13 215.58 91.53C216.88 91.93 220.08 92.6 220.04 90.69C220.096 90.2137 219.974 89.7335 219.697 89.342C219.42 88.9505 219.008 88.6755 218.54 88.57C218.54 88.57 217.09 86.87 218.15 85.44C218.159 85.2459 218.125 85.0523 218.051 84.8726C217.977 84.6929 217.865 84.5317 217.722 84.4001C217.579 84.2686 217.409 84.17 217.224 84.1112C217.039 84.0525 216.843 84.035 216.65 84.06C215.06 84.06 215.11 86.7 214.78 86.75C214.184 86.7843 213.586 86.7843 212.99 86.75C212.684 86.8722 212.415 87.0728 212.211 87.3316C212.007 87.5904 211.874 87.8983 211.827 88.2245C211.779 88.5507 211.818 88.8837 211.94 89.19C212.061 89.4964 212.262 89.7654 212.52 89.97C214.47 91.9 215 87.53 216 87.88Z" fill="white"/>
</svg>
