<svg width="120" height="106" viewBox="0 0 120 106" fill="none" xmlns="http://www.w3.org/2000/svg">
<path d="M119.02 0.400024H0.0200195V105.4H119.02V0.400024Z" fill="#129CB2"/>
<path d="M56.34 82.4701H16C15.1557 82.4701 14.3458 82.1354 13.7479 81.5393C13.1499 80.9432 12.8126 80.1344 12.81 79.2901V20.0001C12.81 19.154 13.1461 18.3426 13.7443 17.7444C14.3426 17.1461 15.154 16.8101 16 16.8101H56.38C57.226 16.8101 58.0374 17.1461 58.6357 17.7444C59.2339 18.3426 59.57 19.154 59.57 20.0001V79.3201C59.5648 79.739 59.4771 80.1528 59.312 80.5378C59.1468 80.9228 58.9074 81.2716 58.6075 81.5641C58.3075 81.8566 57.9529 82.0872 57.5638 82.2426C57.1748 82.3981 56.759 82.4753 56.34 82.4701ZM16 18.7401C15.8385 18.7401 15.6785 18.7719 15.5293 18.8337C15.3801 18.8955 15.2445 18.9861 15.1302 19.1003C15.016 19.2145 14.9255 19.3501 14.8636 19.4994C14.8018 19.6486 14.77 19.8085 14.77 19.9701V79.2901C14.7727 79.6145 14.9034 79.9248 15.1338 80.1534C15.3642 80.3819 15.6755 80.5101 16 80.5101H56.38C56.7045 80.5101 57.0158 80.3819 57.2462 80.1534C57.4766 79.9248 57.6073 79.6145 57.61 79.2901V20.0001C57.61 19.8385 57.5782 19.6786 57.5164 19.5294C57.4545 19.3801 57.364 19.2445 57.2498 19.1303C57.1355 19.0161 56.9999 18.9255 56.8507 18.8637C56.7015 18.8019 56.5415 18.7701 56.38 18.7701L16 18.7401Z" fill="white"/>
<path d="M55.35 22.3H16.79V31.5601H55.35V22.3Z" fill="white"/>
<path d="M24.04 37.13H16.79V44.62H24.04V37.13Z" fill="white"/>
<path d="M34.47 37.13H27.22V44.62H34.47V37.13Z" fill="white"/>
<path d="M44.91 37.13H37.66V44.62H44.91V37.13Z" fill="white"/>
<path d="M55.35 37.13H48.1V44.62H55.35V37.13Z" fill="white"/>
<path d="M24.04 47.83H16.79V55.32H24.04V47.83Z" fill="white"/>
<path d="M34.47 47.83H27.22V55.32H34.47V47.83Z" fill="white"/>
<path d="M44.91 47.83H37.66V55.32H44.91V47.83Z" fill="white"/>
<path d="M55.35 47.83H48.1V55.32H55.35V47.83Z" fill="white"/>
<path d="M24.04 58.54H16.79V66.03H24.04V58.54Z" fill="white"/>
<path d="M34.47 58.54H27.22V66.03H34.47V58.54Z" fill="white"/>
<path d="M44.91 58.54H37.66V66.03H44.91V58.54Z" fill="white"/>
<path d="M24.04 69.24H16.79V76.73H24.04V69.24Z" fill="white"/>
<path d="M34.47 69.24H27.22V76.73H34.47V69.24Z" fill="white"/>
<path d="M44.91 69.24H37.66V76.73H44.91V69.24Z" fill="white"/>
<path d="M48.1 58.54V69.24V70.72V76.73H55.35V70.72V69.24V58.54H48.1Z" fill="white"/>
<path d="M73.25 81.4001L66.98 77.8701V31.55H73.25V81.4001Z" fill="white"/>
<path d="M67.95 75.83C70.0321 75.83 71.72 74.1421 71.72 72.06C71.72 69.9779 70.0321 68.29 67.95 68.29C65.8679 68.29 64.18 69.9779 64.18 72.06C64.18 74.1421 65.8679 75.83 67.95 75.83Z" fill="white"/>
<path d="M71.94 78.4299H69.64V85.0899H71.94V78.4299Z" fill="white"/>
<path d="M95.97 57.2899L98.51 50.9299L73.19 25.2L68.72 29.5999L95.97 57.2899Z" fill="white"/>
<path d="M93.81 50.8C95.8921 50.8 97.58 49.1121 97.58 47.03C97.58 44.9479 95.8921 43.26 93.81 43.26C91.7279 43.26 90.04 44.9479 90.04 47.03C90.04 49.1121 91.7279 50.8 93.81 50.8Z" fill="white"/>
<path d="M100.7 56.61L102.53 61.69L95.01 54.17L96.63 52.54L100.7 56.61Z" fill="white"/>
<path d="M70.16 33.82C73.4847 33.82 76.18 31.1248 76.18 27.8C76.18 24.4753 73.4847 21.78 70.16 21.78C66.8352 21.78 64.14 24.4753 64.14 27.8C64.14 31.1248 66.8352 33.82 70.16 33.82Z" fill="white"/>
<path d="M70.16 31.55C72.231 31.55 73.91 29.8711 73.91 27.8C73.91 25.729 72.231 24.05 70.16 24.05C68.0889 24.05 66.41 25.729 66.41 27.8C66.41 29.8711 68.0889 31.55 70.16 31.55Z" fill="#129CB2"/>
<path d="M70.16 30.33C71.5573 30.33 72.69 29.1973 72.69 27.8C72.69 26.4027 71.5573 25.27 70.16 25.27C68.7627 25.27 67.63 26.4027 67.63 27.8C67.63 29.1973 68.7627 30.33 70.16 30.33Z" fill="white"/>
<path d="M79.05 91.31C76.8226 91.3022 74.6027 91.0507 72.43 90.56C72.1407 90.4776 71.8937 90.2878 71.7396 90.0294C71.5856 89.7709 71.536 89.4634 71.6012 89.1697C71.6663 88.8759 71.8412 88.6182 72.0901 88.4491C72.3389 88.28 72.643 88.2124 72.94 88.26C97.45 93.69 104.83 66.01 105.13 64.83C105.158 64.6695 105.218 64.5165 105.308 64.3805C105.397 64.2446 105.514 64.1286 105.65 64.0399C105.787 63.9513 105.94 63.8918 106.101 63.8653C106.262 63.8388 106.426 63.8459 106.584 63.886C106.742 63.9262 106.89 63.9985 107.018 64.0986C107.146 64.1986 107.253 64.3241 107.33 64.4673C107.408 64.6104 107.455 64.7681 107.469 64.9303C107.483 65.0925 107.462 65.2559 107.41 65.41C107.34 65.69 100.54 91.31 79.05 91.31Z" fill="#FFB815"/>
<path d="M72.69 15.67H67.27V23.28H72.69V15.67Z" stroke="white" stroke-width="0.74" stroke-miterlimit="10"/>
<path d="M70.84 15.67H68.9V22.78H70.84V15.67Z" stroke="white" stroke-width="0.74" stroke-miterlimit="10"/>
</svg>
