<svg width="371" height="259" viewBox="0 0 371 259" fill="none" xmlns="http://www.w3.org/2000/svg">
<path d="M370.23 0H0V259H370.23V0Z" fill="#129CB2"/>
<path d="M175.96 212.75C221.938 212.75 259.21 175.478 259.21 129.5C259.21 83.5223 221.938 46.25 175.96 46.25C129.982 46.25 92.71 83.5223 92.71 129.5C92.71 175.478 129.982 212.75 175.96 212.75Z" fill="#0A909E"/>
<path d="M183.2 184.07H108.68C107.121 184.067 105.627 183.447 104.525 182.345C103.423 181.243 102.803 179.749 102.8 178.19V68.73C102.803 67.1713 103.423 65.6772 104.525 64.5751C105.627 63.473 107.121 62.8526 108.68 62.85H183.2C184.758 62.8526 186.251 63.4733 187.351 64.5757C188.452 65.6781 189.07 67.1722 189.07 68.73V178.19C189.07 179.748 188.452 181.242 187.351 182.344C186.251 183.447 184.758 184.067 183.2 184.07V184.07ZM108.68 66.51C108.081 66.51 107.506 66.7481 107.082 67.1719C106.658 67.5957 106.42 68.1706 106.42 68.77V178.19C106.42 178.789 106.658 179.364 107.082 179.788C107.506 180.212 108.081 180.45 108.68 180.45H183.2C183.799 180.447 184.372 180.208 184.795 179.785C185.218 179.362 185.457 178.789 185.46 178.19V68.73C185.46 68.1306 185.222 67.5558 184.798 67.1319C184.374 66.7081 183.799 66.47 183.2 66.47L108.68 66.51Z" fill="white"/>
<path d="M181.36 73.03H110.2V90.13H181.36V73.03Z" fill="white"/>
<path d="M123.57 100.39H110.2V114.2H123.57V100.39Z" fill="white"/>
<path d="M142.84 100.39H129.47V114.2H142.84V100.39Z" fill="white"/>
<path d="M162.1 100.39H148.73V114.2H162.1V100.39Z" fill="white"/>
<path d="M181.36 100.39H167.99V114.2H181.36V100.39Z" fill="white"/>
<path d="M123.57 120.15H110.2V133.96H123.57V120.15Z" fill="white"/>
<path d="M142.84 120.15H129.47V133.96H142.84V120.15Z" fill="white"/>
<path d="M162.1 120.15H148.73V133.96H162.1V120.15Z" fill="white"/>
<path d="M181.36 120.15H167.99V133.96H181.36V120.15Z" fill="white"/>
<path d="M123.57 139.9H110.2V153.71H123.57V139.9Z" fill="white"/>
<path d="M142.84 139.9H129.47V153.71H142.84V139.9Z" fill="white"/>
<path d="M162.1 139.9H148.73V153.71H162.1V139.9Z" fill="white"/>
<path d="M123.57 159.66H110.2V173.47H123.57V159.66Z" fill="white"/>
<path d="M142.84 159.66H129.47V173.47H142.84V159.66Z" fill="white"/>
<path d="M162.1 159.66H148.73V173.47H162.1V159.66Z" fill="white"/>
<path d="M167.99 139.9V159.66V162.39V173.47H181.36V162.39V159.66V139.9H167.99Z" fill="white"/>
<path d="M214.41 182.09L202.82 175.58V90.09H214.41V182.09Z" fill="white"/>
<path d="M204.61 171.81C208.454 171.81 211.57 168.694 211.57 164.85C211.57 161.006 208.454 157.89 204.61 157.89C200.766 157.89 197.65 161.006 197.65 164.85C197.65 168.694 200.766 171.81 204.61 171.81Z" fill="white"/>
<path d="M211.99 176.61H207.74V188.89H211.99V176.61Z" fill="white"/>
<path d="M256.32 137.6L261.02 125.86L214.29 78.38L206.03 86.51L256.32 137.6Z" fill="white"/>
<path d="M252.33 125.63C256.174 125.63 259.29 122.514 259.29 118.67C259.29 114.826 256.174 111.71 252.33 111.71C248.486 111.71 245.37 114.826 245.37 118.67C245.37 122.514 248.486 125.63 252.33 125.63Z" fill="white"/>
<path d="M265.06 136.34L268.43 145.72L254.55 131.84L257.55 128.83L265.06 136.34Z" fill="white"/>
<path d="M208.69 94.2901C214.826 94.2901 219.8 89.316 219.8 83.1801C219.8 77.0442 214.826 72.0701 208.69 72.0701C202.554 72.0701 197.58 77.0442 197.58 83.1801C197.58 89.316 202.554 94.2901 208.69 94.2901Z" fill="white"/>
<path d="M208.69 90.09C212.506 90.09 215.6 86.9963 215.6 83.18C215.6 79.3637 212.506 76.27 208.69 76.27C204.874 76.27 201.78 79.3637 201.78 83.18C201.78 86.9963 204.874 90.09 208.69 90.09Z" fill="#048B99"/>
<path d="M208.69 87.85C211.269 87.85 213.36 85.7592 213.36 83.18C213.36 80.6009 211.269 78.51 208.69 78.51C206.111 78.51 204.02 80.6009 204.02 83.18C204.02 85.7592 206.111 87.85 208.69 87.85Z" fill="white"/>
<path d="M225.03 200.36C220.945 200.347 216.874 199.884 212.89 198.98C212.599 198.932 212.32 198.825 212.071 198.666C211.823 198.507 211.609 198.299 211.444 198.054C211.278 197.81 211.165 197.534 211.11 197.244C211.054 196.954 211.059 196.656 211.123 196.368C211.187 196.08 211.309 195.808 211.482 195.568C211.655 195.329 211.875 195.127 212.128 194.976C212.381 194.825 212.663 194.726 212.956 194.687C213.248 194.649 213.546 194.67 213.83 194.75C232.83 198.94 248.51 193.01 260.57 177.11C266.271 169.392 270.561 160.724 273.24 151.51C273.298 151.221 273.414 150.947 273.581 150.705C273.748 150.462 273.962 150.256 274.212 150.1C274.461 149.943 274.739 149.838 275.03 149.792C275.321 149.746 275.618 149.76 275.903 149.833C276.189 149.906 276.456 150.036 276.69 150.215C276.923 150.395 277.118 150.62 277.262 150.877C277.405 151.134 277.495 151.417 277.526 151.71C277.557 152.003 277.527 152.299 277.44 152.58C274.649 162.37 270.105 171.572 264.03 179.74C253.68 193.37 240.36 200.36 225.03 200.36Z" fill="#FFB815"/>
<path d="M213.36 60.8H203.36V74.84H213.36V60.8Z" stroke="white" stroke-width="1.37" stroke-miterlimit="10"/>
<path d="M209.94 60.8H206.36V73.91H209.94V60.8Z" stroke="white" stroke-width="1.37" stroke-miterlimit="10"/>
</svg>
