<svg width="371" height="259" viewBox="0 0 371 259" fill="none" xmlns="http://www.w3.org/2000/svg">
<path d="M370.23 0H0V259H370.23V0Z" fill="#7D2193"/>
<path d="M185.12 213C231.236 213 268.62 175.616 268.62 129.5C268.62 83.3842 231.236 46 185.12 46C139.004 46 101.62 83.3842 101.62 129.5C101.62 175.616 139.004 213 185.12 213Z" fill="#641777"/>
<path d="M271.86 129.61C271.865 132.35 271.107 135.037 269.67 137.37C268.412 139.384 266.862 141.201 265.07 142.76C261.839 145.52 258.25 147.831 254.4 149.63C247.146 152.999 239.553 155.583 231.75 157.34C227.92 158.24 224.06 158.96 220.19 159.59C216.32 160.22 212.45 160.79 208.53 161.13C200.76 161.91 192.97 162.26 185.18 162.32C177.39 162.38 169.6 161.95 161.83 161.2C157.943 160.82 154.067 160.317 150.2 159.69C146.33 159.07 142.46 158.36 138.62 157.48C134.78 156.6 130.96 155.48 127.17 154.28C123.336 153.038 119.591 151.538 115.96 149.79C112.092 147.984 108.486 145.663 105.24 142.89C103.43 141.322 101.866 139.492 100.6 137.46C99.0962 135.129 98.319 132.403 98.3671 129.629C98.4152 126.855 99.2863 124.158 100.87 121.88C102.208 119.951 103.833 118.237 105.69 116.8C109.021 114.295 112.691 112.275 116.59 110.8C123.937 108.016 131.571 106.054 139.35 104.95C143.17 104.33 147 103.89 150.83 103.51C154.66 103.13 158.48 102.84 162.3 102.61C169.94 102.14 177.58 101.96 185.22 101.95C192.86 101.94 200.5 102.18 208.14 102.67C211.96 102.91 215.78 103.21 219.6 103.61C223.42 104.01 227.25 104.45 231.06 105.09C234.87 105.73 238.69 106.45 242.48 107.39C246.321 108.322 250.094 109.518 253.77 110.97C257.651 112.448 261.304 114.468 264.62 116.97C266.457 118.382 268.066 120.069 269.39 121.97C270.923 124.23 271.779 126.88 271.86 129.61V129.61ZM263.19 129.61C263.218 128.487 262.923 127.38 262.34 126.42C261.575 125.146 260.628 123.991 259.53 122.99C258.279 121.848 256.942 120.805 255.53 119.87C254.042 118.896 252.503 118.001 250.92 117.19C244.293 113.853 237.335 111.218 230.16 109.33C200.718 101.589 169.768 101.637 140.35 109.47C133.195 111.386 126.256 114.03 119.64 117.36C118.065 118.177 116.533 119.075 115.05 120.05C113.655 120.979 112.334 122.015 111.1 123.15C110.007 124.132 109.067 125.271 108.31 126.53C107.739 127.453 107.453 128.525 107.49 129.61C107.58 130.658 107.957 131.662 108.58 132.51C109.433 133.647 110.443 134.657 111.58 135.51C114.257 137.535 117.193 139.193 120.31 140.44C127.005 143.179 133.965 145.216 141.08 146.52C148.328 147.966 155.654 148.994 163.02 149.6C170.4 150.29 177.84 150.6 185.28 150.6C192.72 150.6 200.16 150.35 207.55 149.67C214.935 149.097 222.281 148.095 229.55 146.67C236.679 145.396 243.656 143.385 250.37 140.67C253.502 139.414 256.454 137.75 259.15 135.72C260.288 134.837 261.298 133.801 262.15 132.64C262.763 131.742 263.122 130.695 263.19 129.61V129.61Z" fill="white"/>
<path d="M185.22 219.79C184.49 219.79 183.75 219.73 183.02 219.65C182.29 219.57 181.59 219.36 180.9 219.17C180.21 218.98 179.57 218.7 178.9 218.42C178.23 218.14 177.71 217.8 177.12 217.48C175.04 216.155 173.166 214.531 171.56 212.66C168.727 209.282 166.363 205.539 164.53 201.53C162.739 197.745 161.209 193.843 159.95 189.85C158.68 185.91 157.61 181.95 156.68 177.96C155.75 173.97 155.04 169.96 154.41 165.96C153.78 161.96 153.24 157.96 152.86 153.88C152.07 145.81 151.72 137.71 151.67 129.63C151.62 121.55 152.02 113.44 152.79 105.37C153.17 101.33 153.673 97.2999 154.3 93.2799C154.93 89.2799 155.64 85.2799 156.54 81.2799C157.44 77.2799 158.54 73.2799 159.78 69.3699C161.034 65.3681 162.557 61.4559 164.34 57.66C166.193 53.6332 168.578 49.8731 171.43 46.48C173.047 44.5901 174.934 42.9491 177.03 41.61C177.63 41.28 178.23 40.96 178.84 40.61C179.45 40.26 180.17 40.09 180.84 39.85C181.51 39.61 182.28 39.51 182.99 39.37C183.7 39.23 184.49 39.25 185.23 39.22C185.97 39.19 186.73 39.34 187.46 39.45C188.19 39.56 188.89 39.78 189.57 40C190.25 40.22 190.89 40.53 191.51 40.83C192.13 41.13 192.68 41.49 193.26 41.83C195.258 43.219 197.031 44.9051 198.52 46.83C201.119 50.3074 203.219 54.131 204.76 58.19C207.624 65.8422 209.636 73.7869 210.76 81.88C211.4 85.88 211.85 89.8299 212.24 93.8099C212.63 97.7899 212.93 101.81 213.16 105.75C213.63 113.7 213.82 121.64 213.82 129.59C213.82 137.54 213.59 145.47 213.09 153.42C212.85 157.42 212.55 161.42 212.09 165.34C211.63 169.26 211.23 173.34 210.58 177.27C209.431 185.35 207.402 193.281 204.53 200.92C202.99 204.962 200.893 208.769 198.3 212.23C196.829 214.153 195.072 215.84 193.09 217.23L191.37 218.23C190.75 218.52 190.1 218.78 189.45 219.04C188.8 219.3 188.07 219.42 187.37 219.59C186.67 219.76 185.95 219.79 185.22 219.79ZM185.22 210.79C186.381 210.815 187.523 210.502 188.51 209.89C189.831 209.07 191.024 208.059 192.05 206.89C194.443 204.171 196.461 201.145 198.05 197.89C201.477 190.976 204.195 183.732 206.16 176.27C214.196 145.642 214.148 113.453 206.02 82.85C204.036 75.4057 201.302 68.182 197.86 61.29C196.268 58.0617 194.25 55.0616 191.86 52.37C190.847 51.227 189.671 50.2397 188.37 49.44C187.415 48.8521 186.311 48.5502 185.19 48.57C184.106 48.6676 183.069 49.0582 182.19 49.7C180.999 50.5788 179.935 51.6187 179.03 52.79C176.926 55.5874 175.201 58.6506 173.9 61.9C171.037 68.892 168.903 76.1604 167.53 83.5899C166.001 91.1305 164.909 98.7533 164.26 106.42C163.53 114.11 163.26 121.86 163.21 129.61C163.16 137.36 163.49 145.1 164.21 152.8C164.837 160.475 165.905 168.108 167.41 175.66C168.766 183.082 170.888 190.344 173.74 197.33C175.04 200.6 176.772 203.68 178.89 206.49C179.801 207.684 180.879 208.742 182.09 209.63C183.006 210.298 184.09 210.7 185.22 210.79V210.79Z" fill="white"/>
<path d="M242.44 71.32C243.441 72.1645 244.284 73.1803 244.93 74.32C245.533 75.3698 245.991 76.4968 246.29 77.67C246.785 79.7412 246.953 81.8768 246.79 84C246.472 87.7518 245.679 91.4481 244.43 95C242.05 101.721 239.008 108.19 235.35 114.31C231.767 120.321 227.851 126.127 223.62 131.7C219.38 137.23 214.89 142.56 210.2 147.7C205.51 152.84 200.54 157.7 195.39 162.42C190.195 167.109 184.743 171.506 179.06 175.59C176.18 177.59 173.23 179.59 170.17 181.36C167.086 183.217 163.894 184.886 160.61 186.36C157.173 187.914 153.56 189.046 149.85 189.73C147.767 190.101 145.642 190.168 143.54 189.93C142.351 189.779 141.185 189.48 140.07 189.04C138.857 188.568 137.734 187.891 136.75 187.04C135.772 186.157 134.96 185.108 134.35 183.94C133.793 182.872 133.389 181.731 133.15 180.55C132.751 178.49 132.687 176.38 132.96 174.3C133.485 170.627 134.494 167.039 135.96 163.63C138.794 157.217 142.261 151.104 146.31 145.38C150.24 139.69 154.46 134.27 158.84 128.99C163.22 123.71 167.71 118.57 172.34 113.54C176.97 108.51 181.73 103.61 186.65 98.84C189.1 96.45 191.58 94.08 194.15 91.79C196.72 89.5 199.29 87.22 201.97 85.05C204.65 82.88 207.41 80.76 210.27 78.77C213.153 76.7453 216.158 74.9017 219.27 73.25C220.85 72.43 222.48 71.67 224.18 70.99C225.916 70.2742 227.709 69.7056 229.54 69.29C231.545 68.8302 233.607 68.6685 235.66 68.81C236.824 68.8969 237.97 69.1391 239.07 69.53C240.286 69.9322 241.426 70.5374 242.44 71.32V71.32ZM237.53 77.06C236.804 76.4157 235.895 76.0138 234.93 75.91C233.58 75.735 232.213 75.7586 230.87 75.98C227.777 76.504 224.756 77.3901 221.87 78.62C215.726 81.2006 209.843 84.3616 204.3 88.06C192.967 95.5417 182.607 104.403 173.46 114.44C164.214 124.384 156.255 135.451 149.77 147.38C146.562 153.209 143.933 159.338 141.92 165.68C140.94 168.629 140.338 171.69 140.13 174.79C140.042 176.136 140.177 177.488 140.53 178.79C140.73 179.674 141.223 180.463 141.93 181.03C142.686 181.536 143.571 181.813 144.48 181.83C145.777 181.888 147.076 181.767 148.34 181.47C151.303 180.735 154.17 179.655 156.88 178.25C162.675 175.267 168.176 171.745 173.31 167.73C178.599 163.728 183.673 159.448 188.51 154.91C193.423 150.41 198.133 145.69 202.64 140.75C207.18 135.86 211.53 130.75 215.64 125.55C219.778 120.36 223.64 114.956 227.21 109.36C230.802 103.923 233.856 98.1488 236.33 92.12C237.502 89.3059 238.319 86.3564 238.76 83.34C238.936 82.0647 238.919 80.7702 238.71 79.5C238.583 78.5827 238.17 77.7289 237.53 77.06Z" fill="white"/>
<path d="M234.7 166.16C236.25 163.991 237.243 161.474 237.59 158.83C237.944 156.006 237.816 153.141 237.21 150.36C235.84 144.353 233.387 138.647 229.97 133.52C226.508 128.148 222.504 123.145 218.02 118.59C208.926 109.356 198.396 101.656 186.84 95.79C183.96 94.35 181.03 93.02 178.05 91.87C175.09 90.6983 172.065 89.6966 168.99 88.87C163.055 87.144 156.87 86.4407 150.7 86.79C147.836 86.9762 145.019 87.6071 142.35 88.66C139.856 89.634 137.64 91.2059 135.896 93.2373C134.153 95.2688 132.935 97.6975 132.35 100.31C131.686 103.197 131.52 106.177 131.86 109.12C132.649 115.533 134.612 121.747 137.65 127.45C140.734 133.405 144.55 138.952 149.01 143.96C158.055 154.066 169.102 162.181 181.45 167.79C187.567 170.556 193.998 172.571 200.6 173.79C206.973 175.051 213.518 175.193 219.94 174.21C226.09 173.17 231.62 170.46 234.7 166.16ZM241.7 171.74C239.04 174.865 235.664 177.301 231.86 178.84C228.297 180.253 224.528 181.074 220.7 181.27C217.058 181.457 213.407 181.25 209.81 180.65C206.326 180.09 202.89 179.267 199.53 178.19C196.199 177.147 192.931 175.915 189.74 174.5C186.55 173.11 183.45 171.57 180.41 169.94C168.308 163.359 157.145 155.182 147.22 145.63C142.175 140.8 137.607 135.496 133.58 129.79C129.35 123.929 126.278 117.314 124.53 110.3C123.663 106.51 123.463 102.598 123.94 98.74C124.234 96.701 124.768 94.7039 125.53 92.79C126.315 90.843 127.347 89.0047 128.6 87.32C131.146 83.9943 134.442 81.3181 138.22 79.51C141.792 77.8168 145.609 76.6997 149.53 76.2C153.286 75.7069 157.084 75.6164 160.86 75.93C164.543 76.2124 168.199 76.7672 171.8 77.59C186.09 80.89 199.04 87.66 210.6 96.05C222.16 104.44 232.41 114.93 239.74 127.66C241.579 130.864 243.163 134.208 244.48 137.66C245.848 141.208 246.818 144.897 247.37 148.66C247.952 152.611 247.854 156.632 247.08 160.55C246.247 164.679 244.41 168.54 241.73 171.79L241.7 171.74Z" fill="white"/>
<path d="M187.72 137.69C193.508 137.69 198.2 132.998 198.2 127.21C198.2 121.422 193.508 116.73 187.72 116.73C181.932 116.73 177.24 121.422 177.24 127.21C177.24 132.998 181.932 137.69 187.72 137.69Z" fill="white"/>
<path d="M206.01 77.46C209.307 77.46 211.98 74.7871 211.98 71.49C211.98 68.1928 209.307 65.52 206.01 65.52C202.713 65.52 200.04 68.1928 200.04 71.49C200.04 74.7871 202.713 77.46 206.01 77.46Z" fill="#FFB815"/>
<path d="M226.29 162.24C231.454 162.24 235.64 158.054 235.64 152.89C235.64 147.726 231.454 143.54 226.29 143.54C221.126 143.54 216.94 147.726 216.94 152.89C216.94 158.054 221.126 162.24 226.29 162.24Z" fill="#FFB815"/>
<path d="M138.51 137.7C141.404 137.7 143.75 135.354 143.75 132.46C143.75 129.566 141.404 127.22 138.51 127.22C135.616 127.22 133.27 129.566 133.27 132.46C133.27 135.354 135.616 137.7 138.51 137.7Z" fill="#FFB815"/>
</svg>
