<svg width="120" height="106" viewBox="0 0 120 106" fill="none" xmlns="http://www.w3.org/2000/svg">
<path d="M119.32 0.820007H0.320007V105.82H119.32V0.820007Z" fill="#7D2193"/>
<path d="M100.77 53.31C100.782 54.6021 100.436 55.8724 99.77 56.98C99.1701 57.9306 98.4358 58.7895 97.59 59.53C96.0734 60.8283 94.3922 61.921 92.59 62.78C89.1587 64.3683 85.5686 65.5884 81.88 66.42C78.2542 67.2453 74.5804 67.8431 70.88 68.21C67.21 68.58 63.53 68.7499 59.88 68.7699C56.23 68.7899 52.52 68.6 48.88 68.24C45.1812 67.8809 41.5077 67.2965 37.88 66.49C34.182 65.6621 30.582 64.4453 27.14 62.8599C25.2875 62.0101 23.5584 60.9135 22 59.6C21.1485 58.8548 20.4106 57.9889 19.81 57.03C19.1353 55.9079 18.7889 54.6191 18.81 53.31C18.8498 52.0077 19.2628 50.7442 20 49.67C20.6266 48.7566 21.3887 47.9439 22.26 47.26C23.8363 46.0678 25.5736 45.1049 27.42 44.4C30.895 43.0896 34.5032 42.164 38.18 41.64C52.5747 39.7266 67.1606 39.7468 81.55 41.7C85.2185 42.2429 88.8188 43.1748 92.29 44.48C94.125 45.1894 95.8517 46.152 97.42 47.34C98.2852 48.0159 99.0437 48.8182 99.67 49.72C100.364 50.7906 100.745 52.0341 100.77 53.31V53.31ZM96.67 53.31C96.6875 52.7765 96.5522 52.2491 96.28 51.79C95.9136 51.1884 95.4584 50.6456 94.93 50.18C93.7025 49.0852 92.3336 48.1603 90.86 47.43C87.724 45.8564 84.433 44.6131 81.04 43.72C67.1208 40.0582 52.4888 40.0789 38.58 43.78C35.1924 44.6833 31.9081 45.9367 28.78 47.5199C27.3319 48.2491 25.9868 49.1671 24.78 50.25C24.2607 50.7125 23.8155 51.2522 23.46 51.85C23.1918 52.2884 23.0596 52.7964 23.08 53.31C23.1193 53.8052 23.2959 54.2796 23.59 54.68C23.9858 55.2212 24.4572 55.7028 24.99 56.1099C26.2577 57.0683 27.6464 57.8551 29.12 58.45C32.287 59.7388 35.5774 60.7005 38.94 61.32C42.3696 62.0003 45.8352 62.4844 49.32 62.7699C52.81 63.0999 56.32 63.24 59.84 63.24C63.36 63.24 66.84 63.1199 70.37 62.7999C73.858 62.5294 77.3273 62.0553 80.76 61.38C84.1295 60.7719 87.427 59.8168 90.6 58.53C92.0829 57.9351 93.4816 57.1484 94.76 56.19C95.2954 55.7678 95.7728 55.2769 96.18 54.73C96.4734 54.312 96.6432 53.8199 96.67 53.31V53.31Z" fill="white"/>
<path d="M59.8 96C58.4499 95.9999 57.1268 95.6224 55.98 94.91C55.0007 94.281 54.1181 93.513 53.36 92.63C52.0146 91.0352 50.8911 89.2659 50.02 87.37C48.3922 83.7951 47.1485 80.0575 46.31 76.22C43.1737 61.137 43.1498 45.5725 46.24 30.48C47.0699 26.633 48.3069 22.8852 49.93 19.3C50.8067 17.3987 51.9334 15.623 53.28 14.02C54.0459 13.1276 54.9388 12.3527 55.93 11.72C57.0899 10.992 58.4306 10.604 59.8 10.6C61.1557 10.6523 62.4692 11.0855 63.59 11.85C64.5337 12.5112 65.373 13.3101 66.08 14.22C67.3256 15.8613 68.3354 17.6688 69.08 19.59C70.4258 23.2106 71.3779 26.9656 71.92 30.79C72.9548 38.2677 73.4394 45.8113 73.37 53.36C73.4249 60.9003 72.9202 68.4343 71.86 75.9C71.3075 79.6918 70.3486 83.4132 69 87C68.2749 88.9089 67.2853 90.7064 66.06 92.34C65.3571 93.2409 64.5248 94.0328 63.59 94.69C62.4815 95.4869 61.1641 95.9422 59.8 96V96ZM59.8 91.75C60.35 91.7669 60.8928 91.6207 61.36 91.33C61.9873 90.9465 62.5536 90.4713 63.04 89.92C64.1652 88.6332 65.1166 87.2043 65.87 85.67C67.4973 82.4041 68.7841 78.9794 69.71 75.45C73.5073 60.9684 73.4832 45.7494 69.64 31.28C68.709 27.7558 67.4155 24.3375 65.78 21.08C65.0324 19.5539 64.084 18.1346 62.96 16.86C62.4842 16.3152 61.9277 15.8464 61.31 15.47C60.8562 15.1929 60.3315 15.054 59.8 15.07C59.2867 15.1117 58.7951 15.2952 58.38 15.6C57.8205 16.018 57.3194 16.509 56.89 17.06C55.8937 18.3833 55.0766 19.8325 54.46 21.37C53.1175 24.6666 52.1124 28.0907 51.46 31.59C50.7399 35.1574 50.2257 38.7634 49.92 42.39C49.57 46.03 49.43 49.69 49.42 53.39C49.41 57.09 49.55 60.71 49.88 64.39C50.1741 68.02 50.6817 71.6296 51.4 75.2C52.0414 78.7116 53.0468 82.1468 54.4 85.45C55.0149 86.9945 55.8321 88.4505 56.83 89.78C57.2642 90.3456 57.7759 90.8472 58.35 91.27C58.7858 91.5413 59.2868 91.6899 59.8 91.7V91.75Z" fill="white"/>
<path d="M86.86 25.75C87.767 26.532 88.4011 27.5829 88.67 28.75C88.9052 29.7314 88.9862 30.7436 88.9099 31.75C88.755 33.5265 88.3788 35.2767 87.79 36.9599C86.663 40.1382 85.2296 43.1993 83.51 46.1C80.0955 51.755 76.1114 57.0459 71.62 61.89C69.38 64.3 67.05 66.63 64.62 68.89C62.1614 71.1049 59.5843 73.1846 56.9 75.12C54.1641 77.0879 51.2437 78.7858 48.18 80.19C46.5538 80.9236 44.8447 81.4575 43.09 81.78C42.1 81.9573 41.0896 81.991 40.09 81.88C38.9022 81.7477 37.7809 81.2636 36.87 80.4899C35.9901 79.6743 35.3944 78.5985 35.17 77.42C34.9821 76.4478 34.9517 75.4518 35.08 74.47C35.334 72.7314 35.8148 71.0336 36.51 69.42C37.8524 66.3876 39.4938 63.4966 41.4099 60.79C49.0182 50.2677 57.8539 40.6901 67.73 32.26C70.2663 30.1381 73.0063 28.2723 75.9099 26.69C77.4447 25.862 79.0776 25.2304 80.77 24.81C81.7179 24.5989 82.6906 24.5214 83.6599 24.5799C84.8213 24.6327 85.9385 25.0411 86.86 25.75V25.75ZM84.53 28.4599C84.1899 28.149 83.7585 27.9561 83.3 27.91C82.6634 27.8161 82.0165 27.8161 81.38 27.91C79.9131 28.1552 78.48 28.5714 77.11 29.15C74.21 30.3779 71.4312 31.8744 68.81 33.62C58.0869 40.7437 49.2401 50.3486 43.02 61.62C41.5051 64.3758 40.2625 67.2729 39.31 70.2699C38.8497 71.6719 38.5707 73.1271 38.48 74.6C38.4389 75.2217 38.4963 75.8461 38.65 76.45C38.7472 76.8664 38.9792 77.239 39.31 77.51C39.6706 77.7456 40.0894 77.8771 40.52 77.89C41.1349 77.9171 41.7506 77.8599 42.3499 77.72C43.738 77.3664 45.0803 76.8529 46.3499 76.19C49.0921 74.7726 51.6938 73.0984 54.12 71.19C56.6229 69.2995 59.023 67.2767 61.31 65.13C63.63 63.0033 65.8566 60.77 67.99 58.43C70.14 56.12 72.2 53.7299 74.14 51.2399C76.0917 48.7842 77.9173 46.2309 79.61 43.59C81.3117 41.0187 82.7618 38.2894 83.94 35.44C84.4892 34.1095 84.8689 32.7152 85.07 31.29C85.1613 30.6867 85.1613 30.0732 85.07 29.47C84.9865 29.0899 84.7997 28.7404 84.53 28.4599Z" fill="white"/>
<path d="M83.2 70.59C83.9101 69.4974 84.3821 68.2676 84.5854 66.9806C84.7887 65.6936 84.7187 64.3781 84.38 63.1199C83.7425 60.2654 82.5831 57.5532 80.96 55.12C79.3289 52.5938 77.435 50.2474 75.31 48.12C71.0181 43.7487 66.0388 40.1105 60.57 37.35C57.8811 35.96 55.0518 34.8605 52.13 34.07C49.325 33.2445 46.3993 32.9063 43.48 33.07C40.8423 33.1075 38.3263 34.1858 36.48 36.07C35.6579 37.1228 35.0628 38.3346 34.7324 39.6289C34.4019 40.9232 34.3432 42.2719 34.56 43.59C34.9139 46.6265 35.8403 49.5684 37.2899 52.26C40.2918 57.9055 44.5599 62.7794 49.76 66.5C54.8803 70.3333 60.8014 72.9588 67.08 74.1799C70.0928 74.7711 73.1852 74.8354 76.2199 74.3699C78.9503 74.0677 81.4548 72.7114 83.2 70.59V70.59ZM86.53 73.23C85.261 74.6968 83.6646 75.8444 81.87 76.5799C80.1861 77.254 78.4017 77.6427 76.59 77.73C73.197 77.8448 69.8107 77.3538 66.59 76.28C65.0131 75.7803 63.4641 75.1961 61.95 74.53C60.44 73.89 58.95 73.15 57.55 72.38C56.15 71.61 54.7 70.7899 53.34 69.8999C51.98 69.0099 50.61 68.14 49.34 67.16C43.9975 63.3538 39.3039 58.7109 35.44 53.41C33.4429 50.6264 31.9876 47.4919 31.15 44.17C30.7374 42.3803 30.646 40.5316 30.88 38.7099C31.1615 36.7652 31.9133 34.9185 33.07 33.3299C34.2765 31.7603 35.8351 30.4964 37.62 29.64C39.3076 28.8221 41.1186 28.2883 42.98 28.06C46.5008 27.6546 50.0657 27.8746 53.51 28.7099C60.148 30.366 66.3873 33.3343 71.86 37.44C74.5903 39.458 77.14 41.7099 79.48 44.17C81.8294 46.6714 83.8953 49.4248 85.64 52.38C87.4547 55.4409 88.676 58.8165 89.24 62.3299C89.4953 64.2193 89.414 66.1389 89 68C88.6063 69.9156 87.7593 71.709 86.53 73.23V73.23Z" fill="white"/>
<path d="M60.98 57.7C64.0286 57.7 66.5 55.2286 66.5 52.18C66.5 49.1314 64.0286 46.66 60.98 46.66C57.9314 46.66 55.46 49.1314 55.46 52.18C55.46 55.2286 57.9314 57.7 60.98 57.7Z" fill="white"/>
<path d="M69.63 28.65C71.1874 28.65 72.45 27.3874 72.45 25.83C72.45 24.2725 71.1874 23.01 69.63 23.01C68.0726 23.01 66.81 24.2725 66.81 25.83C66.81 27.3874 68.0726 28.65 69.63 28.65Z" fill="#FFB815"/>
<path d="M79.23 68.74C81.6711 68.74 83.65 66.7611 83.65 64.32C83.65 61.8789 81.6711 59.9 79.23 59.9C76.7889 59.9 74.81 61.8789 74.81 64.32C74.81 66.7611 76.7889 68.74 79.23 68.74Z" fill="#FFB815"/>
<path d="M37.71 57.13C39.0797 57.13 40.19 56.0197 40.19 54.65C40.19 53.2804 39.0797 52.17 37.71 52.17C36.3404 52.17 35.23 53.2804 35.23 54.65C35.23 56.0197 36.3404 57.13 37.71 57.13Z" fill="#FFB815"/>
</svg>
